<svg width="80" height="80" viewBox="0 0 80 80" fill="none" xmlns="http://www.w3.org/2000/svg">
<path d="M65.5826 24.4963L51.2116 10.4373C51.0127 10.2427 50.745 10.1331 50.4658 10.1331H30.1407C29.8615 10.1331 29.5938 10.2424 29.3948 10.4373L15.0242 24.4963C14.8188 24.6968 14.7034 24.9717 14.7034 25.2587V45.1411C14.7034 45.428 14.8191 45.7029 15.0242 45.9035L29.3951 59.9624C29.594 60.1571 29.8618 60.2667 30.141 60.2667H37.1034V68.8C37.1034 69.3891 37.5804 69.8667 38.17 69.8667C38.7596 69.8667 39.2367 69.3891 39.2367 68.8V60.2667H41.37V68.8C41.37 69.3891 41.8471 69.8667 42.4367 69.8667C43.0263 69.8667 43.5034 69.3891 43.5034 68.8V60.2667H50.4658C50.745 60.2667 51.0127 60.1573 51.2116 59.9624L65.5826 45.9035C65.7879 45.7029 65.9034 45.428 65.9034 45.1411V25.2589C65.9034 24.972 65.7879 24.6968 65.5826 24.4963ZM63.77 44.6923L50.0306 58.1333H30.5764L16.837 44.6923V25.7077L30.5764 12.2667H50.0306L63.77 25.7077V44.6923Z" fill="#00467F"/>
<path d="M49.1109 13.3333H31.4962C31.217 13.3333 30.9493 13.4426 30.7504 13.6376L18.2952 25.8218C18.0898 26.0224 17.9744 26.2973 17.9744 26.5842V43.8154C17.9744 44.1024 18.0901 44.3773 18.2952 44.5778L30.7504 56.7621C30.9493 56.9568 31.217 57.0664 31.4962 57.0664H49.1109C49.3901 57.0664 49.6578 56.957 49.8568 56.7621L62.312 44.5778C62.5173 44.3773 62.6328 44.1024 62.6328 43.8154V26.5842C62.6328 26.2973 62.517 26.0224 62.312 25.8218L49.8568 13.6376C49.6576 13.4426 49.3898 13.3333 49.1109 13.3333ZM60.4994 43.3666L48.6754 54.9333H31.9317L20.1077 43.3666V27.0333L31.9317 15.4666H48.6754L60.4994 27.0333V43.3666Z" fill="#00467F"/>
<path d="M46.17 21.8666C45.9732 21.8666 45.7804 21.888 45.5951 21.929C45.3722 20.6821 44.2794 19.7333 42.97 19.7333C42.7732 19.7333 42.5804 19.7546 42.3951 19.7957C42.1722 18.5488 41.0794 17.6 39.77 17.6C38.8242 17.6 37.9908 18.0952 37.518 18.8405C37.2231 18.728 36.9034 18.6666 36.57 18.6666C35.0991 18.6666 33.9034 19.8629 33.9044 21.2962L33.47 33.8661L32.9804 33.0037C32.5639 32.0824 31.8127 31.3786 30.8668 31.0218C29.9178 30.665 28.8908 30.6984 27.9575 31.1218C26.6514 31.713 26.07 33.2562 26.6951 34.6317L29.546 39.876L31.9898 46.448C32.3564 47.436 33.0242 48.2594 33.9034 48.8218V51.7333C33.9034 52.3224 34.3804 52.8 34.97 52.8C35.5596 52.8 36.0367 52.3224 36.0367 51.7333V48.1906C36.0367 47.7725 35.7919 47.3922 35.4106 47.2192C34.745 46.9165 34.2396 46.3792 33.9898 45.7045L31.5188 39.0613C31.5012 39.0138 31.4802 38.968 31.4564 38.9237L28.6044 33.6826C28.4983 33.4482 28.6023 33.1712 28.8503 33.0592C29.2524 32.8768 29.7023 32.8624 30.1148 33.0181C30.5274 33.1738 30.8554 33.481 31.0804 33.969L33.4783 38.1997C33.482 38.2061 33.4882 38.2104 33.4922 38.2168C33.5106 38.2474 33.5375 38.2704 33.5588 38.2992C33.6146 38.3746 33.6743 38.4442 33.7458 38.5016C33.7791 38.5282 33.8162 38.5472 33.853 38.5698C33.9303 38.6176 34.0103 38.6552 34.097 38.6818C34.1202 38.689 34.1375 38.7058 34.1615 38.7114C36.9178 39.3618 37.0959 41.0042 37.1042 41.1114C37.1282 41.6824 37.5988 42.1328 38.1698 42.1328C38.178 42.1328 38.1863 42.1328 38.1959 42.1322C38.7844 42.1181 39.25 41.6296 39.2364 41.0405C39.2335 40.9133 39.118 38.113 35.5004 36.881L36.0367 21.3333C36.0367 21.0389 36.2762 20.8 36.57 20.8C36.8639 20.8 37.1034 21.0389 37.1034 21.3333V31.4666C37.1034 32.0557 37.5804 32.5333 38.17 32.5333C38.7596 32.5333 39.2367 32.0557 39.2367 31.4666V21.3333V20.8V20.2666C39.2367 19.9722 39.4762 19.7333 39.77 19.7333C40.0639 19.7333 40.3034 19.9722 40.3034 20.2666V21.8666V22.4V30.4C40.3034 30.989 40.7804 31.4666 41.37 31.4666C41.9596 31.4666 42.4367 30.989 42.4367 30.4V22.4C42.4367 22.1056 42.6762 21.8666 42.97 21.8666C43.2639 21.8666 43.5034 22.1056 43.5034 22.4V24V24.5333V31.4666C43.5034 32.0557 43.9804 32.5333 44.57 32.5333C45.1596 32.5333 45.6367 32.0557 45.6367 31.4666V24.5333C45.6367 24.2389 45.8762 24 46.17 24C46.4639 24 46.7034 24.2389 46.7034 24.5333V44.7618C46.7034 45.7978 46.1159 46.7258 45.1711 47.1853C44.8034 47.3634 44.57 47.7362 44.57 48.1448V51.7333C44.57 52.3224 45.0471 52.8 45.6367 52.8C46.2263 52.8 46.7034 52.3224 46.7034 51.7333V48.7594C48.0346 47.8672 48.8367 46.3896 48.8367 44.7621V24.5333C48.8367 23.0629 47.641 21.8666 46.17 21.8666Z" fill="#00467F"/>
<path d="M40.3035 45.3333C39.7139 45.3333 39.2368 45.8109 39.2368 46.4V47.4666C39.2368 48.0557 39.7139 48.5333 40.3035 48.5333C40.8931 48.5333 41.3701 48.0557 41.3701 47.4666V46.4C41.3701 45.8109 40.8931 45.3333 40.3035 45.3333Z" fill="#00467F"/>
</svg>
