<svg width="90" height="90" viewBox="0 0 90 90" fill="none" xmlns="http://www.w3.org/2000/svg">
<path d="M77.1147 35.934C76.452 35.934 75.9147 36.4713 75.9147 37.134C75.9147 40.9347 74.0001 45.4104 71.1231 49.9995L69.1629 48.3522C69.1068 48.3051 69.0423 48.2721 68.9847 48.2271C68.9865 48.2007 69 48.1785 69 48.1518V39.7518C69 36.4437 66.3081 33.7518 63 33.7518C59.6919 33.7518 57 36.4437 57 39.7518V42.7296C57 44.4834 57.69 46.0755 58.8066 47.2614C58.0956 47.4993 57.4236 47.8596 56.8377 48.3522L55.9458 49.1016C55.6251 48.6222 55.2453 48.183 54.8076 47.8149L51.1632 44.7522C51.1071 44.7051 51.0426 44.6721 50.985 44.6271C50.9868 44.6007 51.0003 44.5785 51.0003 44.5518V36.1518C51.0003 32.8437 48.3084 30.1518 45.0003 30.1518C41.6922 30.1518 39.0003 32.8437 39.0003 36.1518V39.1296C39.0003 40.8834 39.6903 42.4755 40.8069 43.6614C40.0959 43.8993 39.4239 44.2596 38.838 44.7522L35.1924 47.8149C34.7526 48.1845 34.3742 48.6219 34.0541 49.101L33.1631 48.3522C32.5766 47.8596 31.9046 47.4993 31.1936 47.2614C32.3105 46.0755 33.0002 44.4831 33.0002 42.7296V39.7518C33.0002 36.4437 30.3083 33.7518 27.0002 33.7518C23.6921 33.7518 21.0002 36.4437 21.0002 39.7518V48.1518C21.0002 48.1785 21.0137 48.201 21.0155 48.2271C20.9579 48.2718 20.8934 48.3051 20.8373 48.3522L18.8762 50.0001C15.9998 45.4113 14.0855 40.9356 14.0855 37.1337C14.0855 28.6524 21.551 21.7518 30.7268 21.7518C36.0074 21.7518 40.869 24.0387 44.064 28.026C44.52 28.5945 45.4809 28.5945 45.9366 28.026C49.1316 24.0387 53.9928 21.7518 59.2731 21.7518C66.2058 21.7518 72.4806 25.7889 74.8866 31.797C75.1326 32.4129 75.8322 32.7117 76.4463 32.4651C77.0616 32.2191 77.361 31.5207 77.1144 30.9054C74.3475 23.9949 67.1775 19.3518 59.2731 19.3518C53.7537 19.3518 48.6294 21.555 45.0003 25.4427C41.3709 21.555 36.2462 19.3518 30.7268 19.3518C20.2274 19.3518 11.6855 27.3288 11.6855 37.1337C11.6855 53.6664 42.9003 80.052 44.2287 81.1668C44.4519 81.3537 44.7261 81.4476 45.0003 81.4476C45.2745 81.4476 45.5487 81.354 45.7719 81.1668C47.1 80.0523 78.3147 53.667 78.3147 37.134C78.3147 36.4713 77.7774 35.934 77.1147 35.934ZM59.4 39.7521C59.4 37.767 61.0149 36.1521 63 36.1521C64.9851 36.1521 66.6 37.767 66.6 39.7521V46.9521H65.4183C65.3898 46.9518 65.3619 46.9446 65.3331 46.9446H63.5469C61.2546 46.9032 59.4 45.0321 59.4 42.7299V39.7521ZM58.3815 50.19C59.0301 49.6446 59.8416 49.3446 60.6666 49.3446L65.4174 49.3521C66.213 49.3719 66.9918 49.6632 67.6188 50.19L69.8028 52.0251C66.495 56.8797 62.2653 61.7691 58.1997 66.0435V56.5521C58.1997 55.8894 57.6624 55.3521 56.9997 55.3521C56.337 55.3521 55.7997 55.8894 55.7997 56.5521V67.3521C55.7997 68.0136 55.2612 68.5521 54.5997 68.5521C53.9382 68.5521 53.3997 68.0136 53.3997 67.3521V56.1585C53.3997 55.026 53.8866 53.9664 54.7356 53.2527L58.3815 50.19ZM41.4 36.1521C41.4 34.167 43.0149 32.5521 45 32.5521C46.9851 32.5521 48.6 34.167 48.6 36.1521V43.3521H47.4183C47.3898 43.3518 47.3619 43.3446 47.3331 43.3446H45.5469C43.2546 43.3032 41.4 41.4321 41.4 39.1299V36.1521ZM36.7359 49.6527L40.3815 46.59C41.0301 46.0446 41.8416 45.7446 42.6666 45.7446L47.4174 45.7521C48.213 45.7719 48.9918 46.0632 49.6188 46.59L53.2632 49.6527C53.5956 49.932 53.8623 50.2863 54.0804 50.6685L53.1918 51.4152C51.7989 52.5864 50.9997 54.315 50.9997 56.1585V67.0401L48.7626 65.16C48.1746 64.6662 47.5005 64.3056 46.7874 64.0677C47.9076 62.8812 48.5997 61.2864 48.5997 59.5296V56.5518C48.5997 53.2437 45.9078 50.5518 42.5997 50.5518C40.7364 50.5518 39.0896 51.4236 37.9883 52.7604C37.6634 52.2624 37.2717 51.8055 36.807 51.4149L35.924 50.673C36.1427 50.2902 36.402 49.9332 36.7359 49.6527ZM39 63.7521V56.5521C39 54.567 40.6149 52.9521 42.6 52.9521C44.5851 52.9521 46.2 54.567 46.2 56.5521V59.5299C46.2 61.8579 44.3058 63.7521 41.9778 63.7521H40.2669H39ZM23.3999 46.9521V39.7521C23.3999 37.767 25.0148 36.1521 26.9999 36.1521C28.985 36.1521 30.5999 37.767 30.5999 39.7521V42.7299C30.5999 45.0321 28.7453 46.9032 26.453 46.9446H24.6668C24.6383 46.9446 24.6104 46.9518 24.5816 46.9521H23.3999ZM22.3814 50.19C23.0078 49.6632 23.7866 49.3719 24.5822 49.3521L29.333 49.3446C30.158 49.3446 30.9695 49.6446 31.6187 50.19L35.2631 53.2527C36.1127 53.9664 36.5996 55.0257 36.5996 56.1585V56.5521V64.9521V65.046C36.5474 65.0871 36.4883 65.1171 36.4373 65.16L34.2 67.0401V56.5521C34.2 55.8894 33.6627 55.3521 33 55.3521C32.3373 55.3521 31.8 55.8894 31.8 56.5521V66.0453C27.7341 61.7712 23.5043 56.8815 20.1962 52.0266L22.3814 50.19ZM45 78.6666C43.4139 77.2911 39.5616 73.8759 35.0982 69.42L37.9818 66.9978C38.6304 66.4524 39.4419 66.1524 40.2669 66.1524H44.9334C45.7584 66.1524 46.5699 66.4524 47.2191 66.9978L50.8635 70.0599C51.4893 70.5864 51.9156 71.3361 52.086 72.177C48.867 75.2673 46.2402 77.5908 45 78.6666Z" fill="#00467F"/>
</svg>
