<svg width="100" height="100" viewBox="0 0 100 100" fill="none" xmlns="http://www.w3.org/2000/svg">
<path d="M41.9998 85.6095C58.2002 85.6095 71.3332 72.4766 71.3332 56.2762C71.3332 40.0759 58.2002 26.9429 41.9998 26.9429C25.7995 26.9429 12.6665 40.0759 12.6665 56.2762C12.6665 72.4766 25.7995 85.6095 41.9998 85.6095Z" fill="white"/>
<path d="M41.9999 86.9427C25.0903 86.9427 11.3333 73.186 11.3333 56.276C11.3333 39.366 25.0903 25.6094 41.9999 25.6094C58.9096 25.6094 72.6666 39.366 72.6666 56.276C72.6666 73.186 58.9096 86.9427 41.9999 86.9427ZM41.9999 28.276C26.5606 28.276 13.9999 40.8374 13.9999 56.276C13.9999 71.7147 26.5606 84.276 41.9999 84.276C57.4393 84.276 69.9999 71.7147 69.9999 56.276C69.9999 40.8374 57.4393 28.276 41.9999 28.276Z" fill="#00467F"/>
<path d="M57.5692 31.4199C53.0562 28.5869 47.7215 26.9429 41.9998 26.9429C25.7995 26.9429 12.6665 40.0759 12.6665 56.2762H42.1528L57.5692 31.4199Z" fill="white"/>
<path d="M42.1529 57.6094H12.6666C11.9303 57.6094 11.3333 57.013 11.3333 56.276C11.3333 39.366 25.0903 25.6094 41.9999 25.6094C47.7703 25.6094 53.3989 27.2277 58.2786 30.2904C58.8996 30.6797 59.0893 31.4987 58.7023 32.1224L43.2856 56.979C43.0429 57.371 42.6146 57.6094 42.1529 57.6094ZM14.0313 54.9427H41.4109L55.7209 31.8697C51.5396 29.5144 46.8243 28.276 41.9999 28.276C27.0069 28.276 14.7293 40.1197 14.0313 54.9427Z" fill="#00467F"/>
<path d="M42 56.2759L65.8647 73.3223C69.303 68.5169 71.3333 62.6353 71.3333 56.2759C71.3333 49.2819 68.8817 42.8629 64.796 37.8223L42 56.2759Z" fill="white"/>
<path d="M65.8633 74.6562C65.595 74.6562 65.3243 74.5755 65.09 74.4075L41.2253 57.3605C40.886 57.1182 40.6797 56.7329 40.6673 56.3162C40.655 55.8995 40.8373 55.5012 41.1607 55.2395L63.957 36.7865C64.5293 36.3242 65.367 36.4129 65.832 36.9832C70.2397 42.4205 72.6667 49.2719 72.6667 56.2759C72.6667 62.7082 70.6893 68.8709 66.9493 74.0989C66.6887 74.4622 66.2793 74.6562 65.8633 74.6562ZM44.2013 56.2095L65.53 71.4452C68.459 66.9192 70 61.7019 70 56.2759C70 50.3265 68.082 44.4985 64.5743 39.7172L44.2013 56.2095Z" fill="#00467F"/>
<path d="M42 56.2759L68.665 44.0546C65.1033 36.2966 58.26 30.3643 49.909 28.0303L42 56.2759Z" fill="white"/>
<path d="M42 57.6092C41.688 57.6092 41.3803 57.4999 41.134 57.2902C40.7386 56.9516 40.576 56.4166 40.716 55.9166L48.625 27.6706C48.823 26.9622 49.5586 26.5456 50.2676 26.7462C58.9563 29.1746 66.1036 35.2812 69.8763 43.4989C70.024 43.8205 70.0376 44.1862 69.9146 44.5186C69.7916 44.8509 69.5416 45.1202 69.22 45.2672L42.5553 57.4886C42.3776 57.5689 42.188 57.6092 42 57.6092ZM50.825 29.7029L44.06 53.8656L66.868 43.4112C63.5026 36.9089 57.759 32.0012 50.825 29.7029Z" fill="#00467F"/>
<path d="M85.9998 14.9429H59.3332C57.8605 14.9429 56.6665 16.1369 56.6665 17.6095V41.6095L59.9998 38.9429H85.9998C87.4725 38.9429 88.6665 37.7489 88.6665 36.2762V17.6095C88.6665 16.1369 87.4725 14.9429 85.9998 14.9429Z" fill="white"/>
<path d="M56.6666 42.9427C56.4699 42.9427 56.2726 42.8997 56.0893 42.811C55.6269 42.5884 55.3333 42.1224 55.3333 41.6094V17.6094C55.3333 15.4037 57.1276 13.6094 59.3333 13.6094H85.9999C88.2056 13.6094 89.9999 15.4037 89.9999 17.6094V36.276C89.9999 38.4817 88.2056 40.276 85.9999 40.276H60.4672L57.4993 42.651C57.2583 42.8437 56.9636 42.9427 56.6666 42.9427ZM59.3333 16.276C58.5983 16.276 57.9999 16.8737 57.9999 17.6094V38.8347L59.1673 37.901C59.4036 37.7124 59.6973 37.6094 59.9999 37.6094H85.9999C86.7349 37.6094 87.3333 37.0117 87.3333 36.276V17.6094C87.3333 16.8737 86.7349 16.276 85.9999 16.276H59.3333Z" fill="#00467F"/>
<path d="M67.3326 34.9431C67.0403 34.9431 66.7459 34.8481 66.5006 34.6514C65.9249 34.1904 65.8319 33.3521 66.2923 32.7764L76.9589 19.4431C77.4186 18.8701 78.2596 18.7751 78.8326 19.2348C79.4083 19.6958 79.5013 20.5341 79.0409 21.1098L68.3743 34.4431C68.1113 34.7711 67.7233 34.9431 67.3326 34.9431Z" fill="#00467F"/>
<path d="M67.9998 25.6095C66.1618 25.6095 64.6665 24.1149 64.6665 22.2762C64.6665 20.4375 66.1618 18.9429 67.9998 18.9429C69.8378 18.9429 71.3332 20.4375 71.3332 22.2762C71.3332 24.1149 69.8378 25.6095 67.9998 25.6095ZM67.9998 21.6095C67.6318 21.6095 67.3332 21.9089 67.3332 22.2762C67.3332 22.6435 67.6318 22.9429 67.9998 22.9429C68.3678 22.9429 68.6665 22.6435 68.6665 22.2762C68.6665 21.9089 68.3678 21.6095 67.9998 21.6095Z" fill="#00467F"/>
<path d="M77.3331 34.943C75.4951 34.943 73.9998 33.4484 73.9998 31.6097C73.9998 29.771 75.4951 28.2764 77.3331 28.2764C79.1711 28.2764 80.6664 29.771 80.6664 31.6097C80.6664 33.4484 79.1711 34.943 77.3331 34.943ZM77.3331 30.943C76.9651 30.943 76.6664 31.2424 76.6664 31.6097C76.6664 31.977 76.9651 32.2764 77.3331 32.2764C77.7011 32.2764 77.9998 31.977 77.9998 31.6097C77.9998 31.2424 77.7011 30.943 77.3331 30.943Z" fill="#00467F"/>
</svg>
