<svg width="100" height="100" viewBox="0 0 100 100" fill="none" xmlns="http://www.w3.org/2000/svg">
<path d="M74.2758 14.6665H34.2758C32.8031 14.6665 31.6091 15.8605 31.6091 17.3332V82.6665C31.6091 84.1392 32.8031 85.3332 34.2758 85.3332H82.2758C83.7485 85.3332 84.9425 84.1392 84.9425 82.6665V25.3332L74.2758 14.6665Z" fill="white"/>
<path d="M82.2759 86.6663H34.2759C32.0702 86.6663 30.2759 84.872 30.2759 82.6663V17.333C30.2759 15.1273 32.0702 13.333 34.2759 13.333H74.2759C74.6299 13.333 74.9685 13.4737 75.2185 13.7237L85.8852 24.3903C86.1352 24.6403 86.2759 24.979 86.2759 25.333V82.6663C86.2759 84.8723 84.4815 86.6663 82.2759 86.6663ZM34.2759 15.9997C33.5402 15.9997 32.9425 16.5973 32.9425 17.333V82.6663C32.9425 83.402 33.5402 83.9997 34.2759 83.9997H82.2759C83.0115 83.9997 83.6092 83.402 83.6092 82.6663V25.8853L73.7235 15.9997H34.2759Z" fill="black"/>
<path d="M74.2759 25.3332H84.9425L74.2759 14.6665V25.3332Z" fill="white"/>
<path d="M84.9426 26.6665H74.276C73.539 26.6665 72.9426 26.0702 72.9426 25.3332V14.6665C72.9426 14.1275 73.267 13.6405 73.7656 13.4348C74.2656 13.2278 74.8386 13.3425 75.2186 13.7238L85.8853 24.3905C86.267 24.7722 86.3813 25.3448 86.1743 25.8435C85.9686 26.3425 85.4816 26.6665 84.9426 26.6665ZM75.6093 23.9998H81.724L75.6093 17.8852V23.9998Z" fill="black"/>
<path d="M78.276 54.6667H38.276C37.539 54.6667 36.9426 54.0703 36.9426 53.3333C36.9426 52.5963 37.539 52 38.276 52H78.276C79.013 52 79.6093 52.5963 79.6093 53.3333C79.6093 54.0703 79.013 54.6667 78.276 54.6667Z" fill="black"/>
<path d="M75.6092 68C74.8722 68 74.2759 67.4037 74.2759 66.6667V57.3333C74.2759 56.5963 74.8722 56 75.6092 56C76.3462 56 76.9425 56.5963 76.9425 57.3333V66.6667C76.9425 67.4037 76.3462 68 75.6092 68Z" fill="black"/>
<path d="M75.6093 69.3335C75.2683 69.3335 74.927 69.2032 74.6666 68.9428L70.6666 64.9428C70.146 64.4222 70.146 63.5782 70.6666 63.0575C71.1873 62.5368 72.0313 62.5368 72.552 63.0575L75.6093 66.1148L78.6666 63.0575C79.1873 62.5368 80.0313 62.5368 80.552 63.0575C81.0726 63.5782 81.0726 64.4222 80.552 64.9428L76.552 68.9428C76.2916 69.2035 75.9503 69.3335 75.6093 69.3335Z" fill="black"/>
<path d="M75.6092 50.6665C74.8722 50.6665 74.2759 50.0702 74.2759 49.3332V39.9998C74.2759 39.2628 74.8722 38.6665 75.6092 38.6665C76.3462 38.6665 76.9425 39.2628 76.9425 39.9998V49.3332C76.9425 50.0702 76.3462 50.6665 75.6092 50.6665Z" fill="black"/>
<path d="M79.6093 44C79.2683 44 78.927 43.8697 78.6666 43.6093L75.6093 40.552L72.552 43.6093C72.0313 44.13 71.1873 44.13 70.6666 43.6093C70.146 43.0887 70.146 42.2447 70.6666 41.724L74.6666 37.724C75.1873 37.2033 76.0313 37.2033 76.552 37.724L80.552 41.724C81.0726 42.2447 81.0726 43.0887 80.552 43.6093C80.2916 43.87 79.9503 44 79.6093 44Z" fill="black"/>
<path d="M46.2759 41.3335H51.6092V53.3335H46.2759V41.3335Z" fill="white"/>
<path d="M51.6093 54.6667H46.276C45.539 54.6667 44.9426 54.0703 44.9426 53.3333V41.3333C44.9426 40.5963 45.539 40 46.276 40H51.6093C52.3463 40 52.9426 40.5963 52.9426 41.3333V53.3333C52.9426 54.0703 52.3463 54.6667 51.6093 54.6667ZM47.6093 52H50.276V42.6667H47.6093V52Z" fill="black"/>
<path d="M56.9424 53.3335H62.2757V65.3335H56.9424V53.3335Z" fill="white"/>
<path d="M62.2758 66.6667H56.9425C56.2055 66.6667 55.6091 66.0703 55.6091 65.3333V53.3333C55.6091 52.5963 56.2055 52 56.9425 52H62.2758C63.0128 52 63.6091 52.5963 63.6091 53.3333V65.3333C63.6091 66.0703 63.0128 66.6667 62.2758 66.6667ZM58.2758 64H60.9425V54.6667H58.2758V64Z" fill="black"/>
<path d="M46.2759 53.3335H51.6092V73.3335H46.2759V53.3335Z" fill="white"/>
<path d="M51.6093 74.6667H46.276C45.539 74.6667 44.9426 74.0703 44.9426 73.3333V53.3333C44.9426 52.5963 45.539 52 46.276 52H51.6093C52.3463 52 52.9426 52.5963 52.9426 53.3333V73.3333C52.9426 74.0703 52.3463 74.6667 51.6093 74.6667ZM47.6093 72H50.276V54.6667H47.6093V72Z" fill="black"/>
<path d="M56.9424 33.3335H62.2757V53.3335H56.9424V33.3335Z" fill="white"/>
<path d="M62.2758 54.6667H56.9425C56.2055 54.6667 55.6091 54.0703 55.6091 53.3333V33.3333C55.6091 32.5963 56.2055 32 56.9425 32H62.2758C63.0128 32 63.6091 32.5963 63.6091 33.3333V53.3333C63.6091 54.0703 63.0128 54.6667 62.2758 54.6667ZM58.2758 52H60.9425V34.6667H58.2758V52Z" fill="black"/>
<path d="M51.6093 38.6667H46.276C45.539 38.6667 44.9426 38.0703 44.9426 37.3333C44.9426 36.5963 45.539 36 46.276 36H51.6093C52.3463 36 52.9426 36.5963 52.9426 37.3333C52.9426 38.0703 52.3463 38.6667 51.6093 38.6667Z" fill="black"/>
<path d="M51.6093 34.6667H46.276C45.539 34.6667 44.9426 34.0703 44.9426 33.3333C44.9426 32.5963 45.539 32 46.276 32H51.6093C52.3463 32 52.9426 32.5963 52.9426 33.3333C52.9426 34.0703 52.3463 34.6667 51.6093 34.6667Z" fill="black"/>
<path d="M51.6093 30.6667H46.276C45.539 30.6667 44.9426 30.0703 44.9426 29.3333C44.9426 28.5963 45.539 28 46.276 28H51.6093C52.3463 28 52.9426 28.5963 52.9426 29.3333C52.9426 30.0703 52.3463 30.6667 51.6093 30.6667Z" fill="black"/>
<path d="M62.276 30.6667H56.9427C56.2057 30.6667 55.6094 30.0703 55.6094 29.3333C55.6094 28.5963 56.2057 28 56.9427 28H62.276C63.013 28 63.6094 28.5963 63.6094 29.3333C63.6094 30.0703 63.013 30.6667 62.276 30.6667Z" fill="black"/>
<path d="M62.276 70.6667H56.9427C56.2057 70.6667 55.6094 70.0703 55.6094 69.3333C55.6094 68.5963 56.2057 68 56.9427 68H62.276C63.013 68 63.6094 68.5963 63.6094 69.3333C63.6094 70.0703 63.013 70.6667 62.276 70.6667Z" fill="black"/>
<path d="M62.276 74.6667H56.9427C56.2057 74.6667 55.6094 74.0703 55.6094 73.3333C55.6094 72.5963 56.2057 72 56.9427 72H62.276C63.013 72 63.6094 72.5963 63.6094 73.3333C63.6094 74.0703 63.013 74.6667 62.276 74.6667Z" fill="black"/>
</svg>
