<svg width="90" height="90" viewBox="0 0 90 90" fill="none" xmlns="http://www.w3.org/2000/svg">
<path d="M40.0076 80.468H29.5922C21.2156 80.468 14.3999 73.6529 14.3999 65.2757V43.268C14.3999 42.6053 14.9366 42.068 15.5999 42.068H53.9999C54.6632 42.068 55.1999 42.6053 55.1999 43.268V65.2757C55.1999 73.6529 48.3842 80.468 40.0076 80.468ZM16.7999 44.468V65.2757C16.7999 72.3293 22.5386 78.068 29.5922 78.068H40.0079C47.0612 78.068 52.7999 72.3293 52.7999 65.2757V44.468H16.7999Z" fill="#00467F"/>
<path d="M48 44.468H21.6C19.6149 44.468 18 42.8531 18 40.868V32.468C18 23.8658 24.9984 16.868 33.6 16.868H36C44.6016 16.868 51.6 23.8658 51.6 32.468V40.868C51.6 42.8531 49.9851 44.468 48 44.468ZM33.6 19.268C26.3214 19.268 20.4 25.1894 20.4 32.468V40.868C20.4 41.5295 20.9379 42.068 21.6 42.068H48C48.6621 42.068 49.2 41.5295 49.2 40.868V32.468C49.2 25.1894 43.2786 19.268 36 19.268H33.6ZM45.6 39.668H24C23.3367 39.668 22.8 39.1307 22.8 38.468V32.468C22.8 26.513 27.6444 21.668 33.6 21.668H36C41.9556 21.668 46.8 26.513 46.8 32.468V38.468C46.8 39.1307 46.2633 39.668 45.6 39.668ZM25.2 37.268H44.4V32.468C44.4 27.8363 40.6314 24.068 36 24.068H33.6C28.9686 24.068 25.2 27.8363 25.2 32.468V37.268Z" fill="#00467F"/>
<path d="M34.7999 43.2679C34.1366 43.2679 33.5999 42.7306 33.5999 42.0679V38.4679C33.5999 37.8052 34.1366 37.2679 34.7999 37.2679C35.4632 37.2679 35.9999 37.8052 35.9999 38.4679V42.0679C35.9999 42.7306 35.4632 43.2679 34.7999 43.2679Z" fill="#00467F"/>
<path d="M38.3998 69.668H31.1998C30.8587 69.668 30.5329 69.5228 30.3058 69.2684C30.0787 69.014 29.9695 68.6747 30.007 68.3357L30.826 60.9605C29.5462 59.8277 28.7998 58.1972 28.7998 56.468C28.7998 53.1599 31.4917 50.468 34.7998 50.468C38.1079 50.468 40.7998 53.1599 40.7998 56.468C40.7998 58.1972 40.0534 59.8277 38.7736 60.9605L39.5926 68.3357C39.6301 68.675 39.5212 69.0143 39.2938 69.2684C39.0664 69.5225 38.7409 69.668 38.3998 69.668ZM32.5405 67.268H37.0591L36.3139 60.5615C36.2647 60.1208 36.4627 59.6897 36.8284 59.4389C37.8127 58.7657 38.3998 57.6548 38.3998 56.4683C38.3998 54.4832 36.7849 52.8683 34.7998 52.8683C32.8147 52.8683 31.1998 54.4832 31.1998 56.4683C31.1998 57.6548 31.7869 58.7657 32.7712 59.4389C33.1369 59.6897 33.3349 60.1208 33.2857 60.5615L32.5405 67.268Z" fill="#00467F"/>
<path d="M65.9999 50.4679C60.7064 50.4679 56.3999 46.1614 56.3999 40.8679C56.3999 35.5744 60.7064 31.2679 65.9999 31.2679C71.2934 31.2679 75.5999 35.5744 75.5999 40.8679C75.5999 46.1614 71.2934 50.4679 65.9999 50.4679ZM65.9999 33.6679C62.0297 33.6679 58.7999 36.8977 58.7999 40.8679C58.7999 44.8381 62.0297 48.0679 65.9999 48.0679C69.9701 48.0679 73.1999 44.8381 73.1999 40.8679C73.1999 36.8977 69.9701 33.6679 65.9999 33.6679ZM65.9999 45.6679C63.3527 45.6679 61.1999 43.5145 61.1999 40.8679C61.1999 38.2213 63.3527 36.0679 65.9999 36.0679C68.6471 36.0679 70.7999 38.2213 70.7999 40.8679C70.7999 43.5145 68.6471 45.6679 65.9999 45.6679ZM65.9999 38.4679C64.6769 38.4679 63.5999 39.5443 63.5999 40.8679C63.5999 42.1915 64.6769 43.2679 65.9999 43.2679C67.3229 43.2679 68.3999 42.1915 68.3999 40.8679C68.3999 39.5443 67.3229 38.4679 65.9999 38.4679Z" fill="#00467F"/>
<path d="M68.3999 33.668H63.5999C62.9366 33.668 62.3999 33.1307 62.3999 32.468V13.268C62.3999 11.2829 64.0148 9.66797 65.9999 9.66797C67.985 9.66797 69.5999 11.2829 69.5999 13.268V32.468C69.5999 33.1307 69.0632 33.668 68.3999 33.668ZM64.7999 31.268H67.1999V13.268C67.1999 12.6065 66.662 12.068 65.9999 12.068C65.3378 12.068 64.7999 12.6065 64.7999 13.268V31.268Z" fill="#00467F"/>
<path d="M73.2 21.668H68.4C67.7367 21.668 67.2 21.1307 67.2 20.468V15.668C67.2 15.0053 67.7367 14.468 68.4 14.468H73.2C73.8633 14.468 74.4 15.0053 74.4 15.668V20.468C74.4 21.1307 73.8633 21.668 73.2 21.668ZM69.6 19.268H72V16.868H69.6V19.268Z" fill="#00467F"/>
</svg>
