<svg width="90" height="90" viewBox="0 0 90 90" fill="none" xmlns="http://www.w3.org/2000/svg">
<path d="M58.8445 16.7836H50.9119C50.3212 16.0576 49.432 15.5836 48.4255 15.5836H47.839C47.344 14.1868 46.009 13.1836 44.4448 13.1836H32.4448C30.8803 13.1836 29.5456 14.1868 29.0506 15.5836H28.4635C27.457 15.5836 26.5678 16.0576 25.9771 16.7836H18.0445C16.7209 16.7836 15.6445 17.86 15.6445 19.1836V74.3836C15.6445 75.7072 16.7209 76.7836 18.0445 76.7836H58.8445C60.1681 76.7836 61.2445 75.7072 61.2445 74.3836V19.1836C61.2445 17.86 60.1681 16.7836 58.8445 16.7836ZM21.6445 19.1836H25.2445V21.9646C25.2445 23.7394 26.6887 25.1836 28.4635 25.1836H48.4252C50.2 25.1836 51.6442 23.7394 51.6442 21.9646V19.1836H55.2442V70.7836H21.6445V19.1836ZM27.6445 18.8026C27.6445 18.3508 28.012 17.9836 28.4635 17.9836H30.0445C30.7072 17.9836 31.2445 17.4463 31.2445 16.7836C31.2445 16.1221 31.783 15.5836 32.4445 15.5836H44.4445C45.106 15.5836 45.6445 16.1221 45.6445 16.7836C45.6445 17.4463 46.1818 17.9836 46.8445 17.9836H48.4255C48.8773 17.9836 49.2445 18.3511 49.2445 18.8026V21.9643C49.2445 22.4161 48.877 22.7833 48.4255 22.7833H28.4635C28.0117 22.7833 27.6445 22.4158 27.6445 21.9643V18.8026ZM58.8445 74.3836H18.0445V19.1836H19.2445V71.9836C19.2445 72.6463 19.7818 73.1836 20.4445 73.1836H56.4445C57.1072 73.1836 57.6445 72.6463 57.6445 71.9836V19.1836H58.8445V74.3836Z" fill="#00467F"/>
<path d="M32.4445 37.1835H34.8445V39.5835C34.8445 40.2462 35.3818 40.7835 36.0445 40.7835H40.8445C41.5072 40.7835 42.0445 40.2462 42.0445 39.5835V37.1835H44.4445C45.1072 37.1835 45.6445 36.6462 45.6445 35.9835V31.1835C45.6445 30.5208 45.1072 29.9835 44.4445 29.9835H42.0445V27.5835C42.0445 26.9208 41.5072 26.3835 40.8445 26.3835H36.0445C35.3818 26.3835 34.8445 26.9208 34.8445 27.5835V29.9835H32.4445C31.7818 29.9835 31.2445 30.5208 31.2445 31.1835V35.9835C31.2445 36.6462 31.7818 37.1835 32.4445 37.1835ZM33.6445 32.3835H36.0445C36.7072 32.3835 37.2445 31.8462 37.2445 31.1835V28.7835H39.6445V31.1835C39.6445 31.8462 40.1818 32.3835 40.8445 32.3835H43.2445V34.7835H40.8445C40.1818 34.7835 39.6445 35.3208 39.6445 35.9835V38.3835H37.2445V35.9835C37.2445 35.3208 36.7072 34.7835 36.0445 34.7835H33.6445V32.3835Z" fill="#00467F"/>
<path d="M26.4445 47.9835H44.4445C45.1072 47.9835 45.6445 47.4462 45.6445 46.7835C45.6445 46.1208 45.1072 45.5835 44.4445 45.5835H26.4445C25.7818 45.5835 25.2445 46.1208 25.2445 46.7835C25.2445 47.4462 25.7818 47.9835 26.4445 47.9835Z" fill="#00467F"/>
<path d="M26.4445 51.5836H34.8445C35.5072 51.5836 36.0445 51.0463 36.0445 50.3836C36.0445 49.7209 35.5072 49.1836 34.8445 49.1836H26.4445C25.7818 49.1836 25.2445 49.7209 25.2445 50.3836C25.2445 51.0463 25.7818 51.5836 26.4445 51.5836Z" fill="#00467F"/>
<path d="M38.4445 58.7837H26.4445C25.7818 58.7837 25.2445 59.321 25.2445 59.9837C25.2445 60.6464 25.7818 61.1837 26.4445 61.1837H38.4445C39.1072 61.1837 39.6445 60.6464 39.6445 59.9837C39.6445 59.321 39.1072 58.7837 38.4445 58.7837Z" fill="#00467F"/>
<path d="M74.2354 61.6282L72.1666 56.4574C72.1249 56.353 72.1174 56.2405 72.145 56.1316L73.0783 52.3969C73.2223 51.8185 73.1884 51.2173 73.0108 50.755L70.8001 42.8602C70.6549 42.3415 70.1824 41.9836 69.6445 41.9836H67.2445C66.7066 41.9836 66.2344 42.3415 66.0889 42.8602L63.9097 50.6584C63.7006 51.2173 63.6664 51.8185 63.8107 52.3981L64.744 56.1316C64.7716 56.2405 64.7638 56.353 64.7218 56.4574L62.653 61.63C62.5147 61.978 62.4445 62.3437 62.4445 62.7169V74.2657C62.4445 75.6538 63.5743 76.7836 64.9624 76.7836H71.9269C73.315 76.7836 74.4448 75.6538 74.4448 74.2657V62.7169C74.4448 62.3437 74.3746 61.978 74.2363 61.63C74.2354 61.6294 74.2354 61.6288 74.2354 61.6282ZM67.0729 55.5493L66.1396 51.817C66.1132 51.7114 66.1198 51.6013 66.1894 51.4021L68.1547 44.3836H68.7355L70.7317 51.4987C70.7698 51.6013 70.7761 51.7114 70.75 51.8158L69.8167 55.5493C69.6661 56.1511 69.7084 56.7733 69.9385 57.3493L71.9527 62.3836H64.9375L66.9508 57.3493C67.1812 56.7733 67.2235 56.1508 67.0729 55.5493ZM71.9266 74.3836H64.9621C64.897 74.3836 64.8442 74.3308 64.8442 74.2657V64.7836H72.0442V74.2657C72.0445 74.3308 71.9917 74.3836 71.9266 74.3836Z" fill="#00467F"/>
<path d="M51.0622 54.1546C50.4937 53.8129 49.756 53.9971 49.4158 54.5659L46.6063 59.248L45.2932 57.9349C44.8246 57.4663 44.065 57.4663 43.5964 57.9349C43.1278 58.4035 43.1278 59.1631 43.5964 59.6317L45.9964 62.0317C46.2226 62.2585 46.5283 62.3833 46.8448 62.3833C46.8934 62.3833 46.9426 62.3803 46.9912 62.3746C47.3581 62.3296 47.6839 62.1175 47.8735 61.801L51.4735 55.801C51.8143 55.2328 51.6304 54.4957 51.0622 54.1546Z" fill="#00467F"/>
</svg>
