<svg width="80" height="80" viewBox="0 0 80 80" fill="none" xmlns="http://www.w3.org/2000/svg">
<path d="M66.7437 63.0001H64.6104V21.4001C64.6104 20.9553 64.3349 20.5574 63.9187 20.4011C63.5024 20.2449 63.0333 20.3625 62.7411 20.6979L57.2573 26.9651C56.8912 26.819 56.4947 26.7334 56.0771 26.7334C54.3125 26.7334 52.8771 28.1689 52.8771 29.9334C52.8771 30.651 53.1229 31.307 53.5235 31.8414L48.3232 39.6406C48.0723 39.5771 47.8141 39.5334 47.5437 39.5334C45.7792 39.5334 44.3437 40.9689 44.3437 42.7334C44.3437 42.9806 44.3779 43.2185 44.4312 43.4497L37.7696 47.6886C37.2264 47.2638 36.552 47.0001 35.8104 47.0001C34.0925 47.0001 32.6973 48.3635 32.6243 50.0641L24.5016 52.5635C23.9174 51.7811 22.9928 51.2667 21.9437 51.2667C20.1792 51.2667 18.7437 52.7022 18.7437 54.4667C18.7437 55.0257 18.9006 55.5435 19.1534 56.0011L14.4771 61.2614V20.3334C14.4771 19.7438 13.9995 19.2667 13.4104 19.2667C12.8213 19.2667 12.3438 19.7438 12.3438 20.3334V64.0667C12.3438 64.6563 12.8213 65.1334 13.4104 65.1334H66.7437C67.3328 65.1334 67.8104 64.6563 67.8104 64.0667C67.8104 63.4771 67.3328 63.0001 66.7437 63.0001ZM62.4771 63.0001H15.7859L20.7397 57.4275C21.112 57.5793 21.5173 57.6667 21.9437 57.6667C23.6619 57.6667 25.0571 56.303 25.1299 54.6025L33.2525 52.103C33.8365 52.8857 34.7611 53.3998 35.8104 53.3998C37.5749 53.3998 39.0104 51.9643 39.0104 50.1998C39.0104 49.9526 38.976 49.7145 38.9227 49.483L45.584 45.2441C46.1272 45.6694 46.8021 45.9334 47.5437 45.9334C49.3083 45.9334 50.7437 44.4979 50.7437 42.7334C50.7437 42.0158 50.4979 41.3595 50.0973 40.8254L55.2973 33.0262C55.5483 33.0897 55.8067 33.1334 56.0771 33.1334C57.8416 33.1334 59.2771 31.6979 59.2771 29.9334C59.2771 29.3657 59.116 28.8398 58.8557 28.3771L62.4771 24.2387V63.0001ZM56.0771 28.8667C56.6651 28.8667 57.1437 29.3449 57.1437 29.9334C57.1437 30.5219 56.6651 31.0001 56.0771 31.0001C55.4891 31.0001 55.0104 30.5219 55.0104 29.9334C55.0104 29.3449 55.4891 28.8667 56.0771 28.8667ZM47.5437 41.6667C48.1317 41.6667 48.6104 42.1449 48.6104 42.7334C48.6104 43.3219 48.1317 43.8001 47.5437 43.8001C46.9557 43.8001 46.4771 43.3219 46.4771 42.7334C46.4771 42.1449 46.9557 41.6667 47.5437 41.6667ZM35.8104 49.1334C36.3984 49.1334 36.8771 49.6115 36.8771 50.2001C36.8771 50.7886 36.3984 51.2667 35.8104 51.2667C35.2224 51.2667 34.7437 50.7886 34.7437 50.2001C34.7437 49.6115 35.2224 49.1334 35.8104 49.1334ZM21.9437 53.4001C22.5317 53.4001 23.0104 53.8782 23.0104 54.4667C23.0104 55.0553 22.5317 55.5334 21.9437 55.5334C21.3557 55.5334 20.8771 55.0553 20.8771 54.4667C20.8771 53.8782 21.3557 53.4001 21.9437 53.4001Z" fill="#00467F"/>
<path d="M19.8104 32.0667H34.7438C35.3328 32.0667 35.8104 31.5896 35.8104 31V16.0667C35.8104 15.4771 35.3328 15 34.7438 15H19.8104C19.2214 15 18.7438 15.4771 18.7438 16.0667V31C18.7438 31.5896 19.2214 32.0667 19.8104 32.0667ZM20.8771 17.1333H33.6771V29.9333H20.8771V17.1333Z" fill="#00467F"/>
<path d="M28.0312 18.5125C27.6146 18.0959 26.9394 18.0959 26.5229 18.5125L23.3229 21.7125C22.9064 22.129 22.9064 22.8042 23.3229 23.2207C23.7394 23.6373 24.4146 23.6373 24.8312 23.2207L26.2104 21.8415V27.7999C26.2104 28.3895 26.688 28.8666 27.277 28.8666C27.8661 28.8666 28.3437 28.3895 28.3437 27.7999V21.8415L29.7229 23.2207C29.9312 23.429 30.2042 23.5333 30.477 23.5333C30.7498 23.5333 31.0229 23.429 31.2312 23.2207C31.6477 22.8042 31.6477 22.129 31.2312 21.7125L28.0312 18.5125Z" fill="#00467F"/>
</svg>
