<svg width="90" height="90" viewBox="0 0 90 90" fill="none" xmlns="http://www.w3.org/2000/svg">
<path d="M49.8 25.6021H47.4V23.2021C47.4 22.5394 46.8627 22.0021 46.2 22.0021H41.4C40.7373 22.0021 40.2 22.5394 40.2 23.2021V25.6021H37.8C37.1373 25.6021 36.6 26.1394 36.6 26.8021V31.6021C36.6 32.2648 37.1373 32.8021 37.8 32.8021H40.2V35.2021C40.2 35.8648 40.7373 36.4021 41.4 36.4021H46.2C46.8627 36.4021 47.4 35.8648 47.4 35.2021V32.8021H49.8C50.4627 32.8021 51 32.2648 51 31.6021V26.8021C51 26.1394 50.4627 25.6021 49.8 25.6021ZM48.6 30.4021H46.2C45.5373 30.4021 45 30.9394 45 31.6021V34.0021H42.6V31.6021C42.6 30.9394 42.0627 30.4021 41.4 30.4021H39V28.0021H41.4C42.0627 28.0021 42.6 27.4648 42.6 26.8021V24.4021H45V26.8021C45 27.4648 45.5373 28.0021 46.2 28.0021H48.6V30.4021Z" fill="#00467F"/>
<path d="M79.8 74.802H77.9322C78.3456 74.0931 78.6 73.2801 78.6 72.402C78.6 69.7554 76.4466 67.602 73.8 67.602H72.6V44.802H73.8C74.4627 44.802 75 44.2647 75 43.602V40.002C75 39.3393 74.4627 38.802 73.8 38.802H59.4V18.402C59.4 17.7393 58.8627 17.202 58.2 17.202H29.4C28.7373 17.202 28.2 17.7393 28.2 18.402V38.802H13.8C13.1373 38.802 12.6 39.3393 12.6 40.002V43.602C12.6 44.2647 13.1373 44.802 13.8 44.802H15V74.802H10.2C9.5373 74.802 9 75.3393 9 76.002C9 76.6647 9.5373 77.202 10.2 77.202H79.8C80.4627 77.202 81 76.6647 81 76.002C81 75.3393 80.4627 74.802 79.8 74.802ZM69 67.602C66.7677 67.602 64.8861 69.1341 64.3518 71.202H63V59.202H70.2V67.602H69ZM58.2 74.6514V74.802H53.4V59.202H60.6V71.3826C59.2131 71.8296 58.2 73.1175 58.2 74.6514ZM17.4 52.002H24.6V56.802H17.4V52.002ZM27 52.002H60.6V56.802H27V52.002ZM60.6 44.802V49.602H27V44.802H60.6ZM70.2 56.802H63V52.002H70.2V56.802ZM34.2 59.202V74.802H27V59.202H34.2ZM36.6 59.202H42.6V74.802H36.6V59.202ZM45 59.202H51V74.802H45V59.202ZM70.2 49.602H63V44.802H70.2V49.602ZM30.6 19.602H57V38.802H30.6V19.602ZM15 41.202H72.6V42.402H15V41.202ZM24.6 44.802V49.602H17.4V44.802H24.6ZM17.4 59.202H24.6V74.802H17.4V59.202ZM60.6 74.802V74.6514C60.6 74.0724 61.0704 73.602 61.6494 73.602H65.4C66.0627 73.602 66.6 73.0647 66.6 72.402C66.6 71.0784 67.6764 70.002 69 70.002H73.8C75.1236 70.002 76.2 71.0784 76.2 72.402C76.2 73.7256 75.1236 74.802 73.8 74.802H60.6Z" fill="#00467F"/>
</svg>
