<svg width="100" height="100" viewBox="0 0 100 100" fill="none" xmlns="http://www.w3.org/2000/svg">
<path d="M32.6666 24.0002H24.6666C23.9296 24.0002 23.3333 23.4032 23.3333 22.6668C23.3333 21.9305 23.9296 21.3335 24.6666 21.3335H32.6666C33.4036 21.3335 33.9999 21.9305 33.9999 22.6668C33.9999 23.4032 33.4036 24.0002 32.6666 24.0002Z" fill="black"/>
<path d="M39.3333 20.0002H24.6666C23.9296 20.0002 23.3333 19.4032 23.3333 18.6668C23.3333 17.9305 23.9296 17.3335 24.6666 17.3335H39.3333C40.0703 17.3335 40.6666 17.9305 40.6666 18.6668C40.6666 19.4032 40.0703 20.0002 39.3333 20.0002Z" fill="black"/>
<path d="M44.6666 16.0002H24.6666C23.9296 16.0002 23.3333 15.4032 23.3333 14.6668C23.3333 13.9305 23.9296 13.3335 24.6666 13.3335H44.6666C45.4036 13.3335 45.9999 13.9305 45.9999 14.6668C45.9999 15.4032 45.4036 16.0002 44.6666 16.0002Z" fill="black"/>
<path d="M88.6665 86.6667H69.9998C69.2628 86.6667 68.6665 86.0697 68.6665 85.3333C68.6665 84.597 69.2628 84 69.9998 84H88.6665C89.4035 84 89.9998 84.597 89.9998 85.3333C89.9998 86.0697 89.4035 86.6667 88.6665 86.6667Z" fill="black"/>
<path d="M81.9998 82.6667H69.9998C69.2628 82.6667 68.6665 82.0697 68.6665 81.3333C68.6665 80.597 69.2628 80 69.9998 80H81.9998C82.7368 80 83.3332 80.597 83.3332 81.3333C83.3332 82.0697 82.7368 82.6667 81.9998 82.6667Z" fill="black"/>
<path d="M77.9998 78.6667H69.9998C69.2628 78.6667 68.6665 78.0697 68.6665 77.3333C68.6665 76.597 69.2628 76 69.9998 76H77.9998C78.7368 76 79.3332 76.597 79.3332 77.3333C79.3332 78.0697 78.7368 78.6667 77.9998 78.6667Z" fill="black"/>
<path d="M15.3333 22.667C17.5424 22.667 19.3333 20.8761 19.3333 18.667C19.3333 16.4579 17.5424 14.667 15.3333 14.667C13.1241 14.667 11.3333 16.4579 11.3333 18.667C11.3333 20.8761 13.1241 22.667 15.3333 22.667Z" fill="white"/>
<path d="M15.3333 24.0002C12.392 24.0002 10 21.6075 10 18.6668C10 15.7262 12.392 13.3335 15.3333 13.3335C18.2747 13.3335 20.6667 15.7262 20.6667 18.6668C20.6667 21.6075 18.2747 24.0002 15.3333 24.0002ZM15.3333 16.0002C13.8633 16.0002 12.6667 17.1962 12.6667 18.6668C12.6667 20.1375 13.8633 21.3335 15.3333 21.3335C16.8033 21.3335 18 20.1375 18 18.6668C18 17.1962 16.8033 16.0002 15.3333 16.0002Z" fill="black"/>
<path d="M60.6665 85.3335C62.8756 85.3335 64.6665 83.5426 64.6665 81.3335C64.6665 79.1244 62.8756 77.3335 60.6665 77.3335C58.4574 77.3335 56.6665 79.1244 56.6665 81.3335C56.6665 83.5426 58.4574 85.3335 60.6665 85.3335Z" fill="white"/>
<path d="M60.6666 86.6667C57.7253 86.6667 55.3333 84.274 55.3333 81.3333C55.3333 78.3927 57.7253 76 60.6666 76C63.6079 76 65.9999 78.3927 65.9999 81.3333C65.9999 84.274 63.6079 86.6667 60.6666 86.6667ZM60.6666 78.6667C59.1966 78.6667 57.9999 79.8627 57.9999 81.3333C57.9999 82.804 59.1966 84 60.6666 84C62.1366 84 63.3333 82.804 63.3333 81.3333C63.3333 79.8627 62.1366 78.6667 60.6666 78.6667Z" fill="black"/>
<path d="M44.5292 44.7729L35.3335 64.0003H56.6668C56.6668 55.516 51.7015 48.2103 44.5292 44.7729Z" fill="white"/>
<path d="M56.6668 65.3334H35.3334C34.8751 65.3334 34.4494 65.0984 34.2058 64.711C33.9611 64.3237 33.9324 63.838 34.1301 63.4247L43.3254 44.1974C43.4778 43.8784 43.7511 43.633 44.0858 43.515C44.4191 43.3984 44.7851 43.4167 45.1054 43.5704C52.9388 47.3244 58.0001 55.343 58.0001 64C58.0001 64.7364 57.4038 65.3334 56.6668 65.3334ZM37.4494 62.6667H55.2881C54.8324 55.9897 50.9848 49.8964 45.1371 46.5924L37.4494 62.6667Z" fill="black"/>
<path d="M44.3396 44.6837C41.5389 43.375 38.4212 42.6357 35.1236 42.668C23.3422 42.7837 13.8849 52.4283 14.0006 64.2097C14.1162 75.991 23.7609 85.4483 35.5422 85.3327C47.3236 85.217 56.7809 75.5723 56.6652 63.791L35.3332 64.0003L44.3396 44.6837Z" fill="white"/>
<path d="M35.3292 86.667C22.9346 86.667 12.7902 76.6457 12.6679 64.223C12.6079 58.169 14.9102 52.4534 19.1482 48.1307C23.3879 43.8077 29.0559 41.3944 35.1106 41.335C38.4909 41.3024 41.7916 42.022 44.9036 43.4764C45.5716 43.7877 45.8592 44.5804 45.5482 45.2471L37.4362 62.646L56.6522 62.4574H56.6652C57.3956 62.4574 57.9909 63.046 57.9986 63.7777C58.0586 69.8317 55.7562 75.5474 51.5182 79.87C47.2786 84.193 41.6106 86.6064 35.5559 86.6657C35.4802 86.6664 35.4049 86.667 35.3292 86.667ZM35.3346 44.0004C35.2696 44.0004 35.2029 44.001 35.1366 44.0017C29.7942 44.0537 24.7929 46.1834 21.0532 49.9977C17.3122 53.8121 15.2826 58.8544 15.3346 64.197C15.3866 69.5387 17.5169 74.5407 21.3306 78.2804C25.1442 82.02 30.1299 84.0524 35.5299 83.9991C40.8722 83.9471 45.8736 81.8174 49.6132 78.003C53.0402 74.5077 55.0326 69.9811 55.3019 65.1377L35.3462 65.3337C34.9089 65.3604 34.4609 65.107 34.2122 64.7224C33.9649 64.3377 33.9309 63.8521 34.1249 63.4374L42.5506 45.3664C40.2316 44.4594 37.8099 44.0004 35.3346 44.0004Z" fill="black"/>
<path d="M87.3332 21.3335H49.9998C49.2635 21.3335 48.6665 21.9305 48.6665 22.6668V50.6668C48.6665 51.4032 49.2635 52.0002 49.9998 52.0002H52.6665V57.3335L57.9998 52.0002H87.3332C88.0695 52.0002 88.6665 51.4032 88.6665 50.6668V22.6668C88.6665 21.9305 88.0695 21.3335 87.3332 21.3335Z" fill="white"/>
<path d="M52.6666 58.6667C52.4946 58.6667 52.3216 58.6333 52.1562 58.565C51.6576 58.3587 51.3333 57.8723 51.3333 57.3333V53.3333H49.9999C48.5299 53.3333 47.3333 52.1373 47.3333 50.6667V22.6667C47.3333 21.196 48.5299 20 49.9999 20H87.3333C88.8033 20 89.9999 21.196 89.9999 22.6667V50.6667C89.9999 52.1373 88.8033 53.3333 87.3333 53.3333H58.5519L53.6093 58.276C53.3539 58.5313 53.0129 58.6667 52.6666 58.6667ZM49.9999 22.6667V50.6667H52.6666C53.4036 50.6667 53.9999 51.2637 53.9999 52V54.1147L57.0573 51.0573C57.3073 50.8073 57.6459 50.6667 57.9999 50.6667H87.3333V22.6667H49.9999Z" fill="black"/>
<path d="M64.1767 36.6667C64.1767 37.5007 63.5007 38.1767 62.6667 38.1767C61.8327 38.1767 61.1567 37.5007 61.1567 36.6667C61.1567 35.8327 61.8327 35.1567 62.6667 35.1567C63.5007 35.1567 64.1767 35.8327 64.1767 36.6667Z" fill="black"/>
<path d="M70.8432 36.6667C70.8432 37.5007 70.1672 38.1767 69.3332 38.1767C68.4992 38.1767 67.8232 37.5007 67.8232 36.6667C67.8232 35.8327 68.4992 35.1567 69.3332 35.1567C70.1672 35.1567 70.8432 35.8327 70.8432 36.6667Z" fill="black"/>
<path d="M77.51 36.6667C77.51 37.5007 76.834 38.1767 76 38.1767C75.166 38.1767 74.49 37.5007 74.49 36.6667C74.49 35.8327 75.166 35.1567 76 35.1567C76.834 35.1567 77.51 35.8327 77.51 36.6667Z" fill="black"/>
</svg>
