<svg width="100" height="100" viewBox="0 0 100 100" fill="none" xmlns="http://www.w3.org/2000/svg">
<path d="M85.3333 81.3332H14.6666C13.9296 81.3332 13.3333 80.7368 13.3333 79.9998C13.3333 79.2628 13.9296 78.6665 14.6666 78.6665H85.3333C86.0703 78.6665 86.6666 79.2628 86.6666 79.9998C86.6666 80.7368 86.0703 81.3332 85.3333 81.3332Z" fill="#00467F"/>
<path d="M17.3333 84C16.5963 84 16 83.4037 16 82.6667V17.3333C16 16.5963 16.5963 16 17.3333 16C18.0703 16 18.6667 16.5963 18.6667 17.3333V82.6667C18.6667 83.4037 18.0703 84 17.3333 84Z" fill="#00467F"/>
<path d="M25.3333 83.9998C24.5963 83.9998 24 83.4035 24 82.6665V79.9998C24 79.2628 24.5963 78.6665 25.3333 78.6665C26.0703 78.6665 26.6667 79.2628 26.6667 79.9998V82.6665C26.6667 83.4035 26.0703 83.9998 25.3333 83.9998Z" fill="#00467F"/>
<path d="M33.3333 83.9998C32.5963 83.9998 32 83.4035 32 82.6665V79.9998C32 79.2628 32.5963 78.6665 33.3333 78.6665C34.0703 78.6665 34.6667 79.2628 34.6667 79.9998V82.6665C34.6667 83.4035 34.0703 83.9998 33.3333 83.9998Z" fill="#00467F"/>
<path d="M41.3333 83.9998C40.5963 83.9998 40 83.4035 40 82.6665V79.9998C40 79.2628 40.5963 78.6665 41.3333 78.6665C42.0703 78.6665 42.6667 79.2628 42.6667 79.9998V82.6665C42.6667 83.4035 42.0703 83.9998 41.3333 83.9998Z" fill="#00467F"/>
<path d="M49.3333 83.9998C48.5963 83.9998 48 83.4035 48 82.6665V79.9998C48 79.2628 48.5963 78.6665 49.3333 78.6665C50.0703 78.6665 50.6667 79.2628 50.6667 79.9998V82.6665C50.6667 83.4035 50.0703 83.9998 49.3333 83.9998Z" fill="#00467F"/>
<path d="M57.3333 83.9998C56.5963 83.9998 56 83.4035 56 82.6665V79.9998C56 79.2628 56.5963 78.6665 57.3333 78.6665C58.0703 78.6665 58.6667 79.2628 58.6667 79.9998V82.6665C58.6667 83.4035 58.0703 83.9998 57.3333 83.9998Z" fill="#00467F"/>
<path d="M65.3333 83.9998C64.5963 83.9998 64 83.4035 64 82.6665V79.9998C64 79.2628 64.5963 78.6665 65.3333 78.6665C66.0703 78.6665 66.6667 79.2628 66.6667 79.9998V82.6665C66.6667 83.4035 66.0703 83.9998 65.3333 83.9998Z" fill="#00467F"/>
<path d="M73.3333 83.9998C72.5963 83.9998 72 83.4035 72 82.6665V79.9998C72 79.2628 72.5963 78.6665 73.3333 78.6665C74.0703 78.6665 74.6667 79.2628 74.6667 79.9998V82.6665C74.6667 83.4035 74.0703 83.9998 73.3333 83.9998Z" fill="#00467F"/>
<path d="M17.3333 73.3332H14.6666C13.9296 73.3332 13.3333 72.7368 13.3333 71.9998C13.3333 71.2628 13.9296 70.6665 14.6666 70.6665H17.3333C18.0703 70.6665 18.6666 71.2628 18.6666 71.9998C18.6666 72.7368 18.0703 73.3332 17.3333 73.3332Z" fill="#00467F"/>
<path d="M17.3333 65.3332H14.6666C13.9296 65.3332 13.3333 64.7368 13.3333 63.9998C13.3333 63.2628 13.9296 62.6665 14.6666 62.6665H17.3333C18.0703 62.6665 18.6666 63.2628 18.6666 63.9998C18.6666 64.7368 18.0703 65.3332 17.3333 65.3332Z" fill="#00467F"/>
<path d="M17.3333 57.3332H14.6666C13.9296 57.3332 13.3333 56.7368 13.3333 55.9998C13.3333 55.2628 13.9296 54.6665 14.6666 54.6665H17.3333C18.0703 54.6665 18.6666 55.2628 18.6666 55.9998C18.6666 56.7368 18.0703 57.3332 17.3333 57.3332Z" fill="#00467F"/>
<path d="M17.3333 49.3332H14.6666C13.9296 49.3332 13.3333 48.7368 13.3333 47.9998C13.3333 47.2628 13.9296 46.6665 14.6666 46.6665H17.3333C18.0703 46.6665 18.6666 47.2628 18.6666 47.9998C18.6666 48.7368 18.0703 49.3332 17.3333 49.3332Z" fill="#00467F"/>
<path d="M17.3333 41.3332H14.6666C13.9296 41.3332 13.3333 40.7368 13.3333 39.9998C13.3333 39.2628 13.9296 38.6665 14.6666 38.6665H17.3333C18.0703 38.6665 18.6666 39.2628 18.6666 39.9998C18.6666 40.7368 18.0703 41.3332 17.3333 41.3332Z" fill="#00467F"/>
<path d="M17.3333 33.3332H14.6666C13.9296 33.3332 13.3333 32.7368 13.3333 31.9998C13.3333 31.2628 13.9296 30.6665 14.6666 30.6665H17.3333C18.0703 30.6665 18.6666 31.2628 18.6666 31.9998C18.6666 32.7368 18.0703 33.3332 17.3333 33.3332Z" fill="#00467F"/>
<path d="M17.3333 25.3332H14.6666C13.9296 25.3332 13.3333 24.7368 13.3333 23.9998C13.3333 23.2628 13.9296 22.6665 14.6666 22.6665H17.3333C18.0703 22.6665 18.6666 23.2628 18.6666 23.9998C18.6666 24.7368 18.0703 25.3332 17.3333 25.3332Z" fill="#00467F"/>
<path d="M25.3333 24H45.3333V28H25.3333V24Z" fill="white"/>
<path d="M45.3333 29.3332H25.3333C24.5963 29.3332 24 28.7368 24 27.9998V23.9998C24 23.2628 24.5963 22.6665 25.3333 22.6665H45.3333C46.0703 22.6665 46.6667 23.2628 46.6667 23.9998V27.9998C46.6667 28.7368 46.0703 29.3332 45.3333 29.3332ZM26.6667 26.6665H44V25.3332H26.6667V26.6665Z" fill="#00467F"/>
<path d="M46.6665 32H59.9998V36H46.6665V32Z" fill="white"/>
<path d="M59.9999 37.3332H46.6666C45.9296 37.3332 45.3333 36.7368 45.3333 35.9998V31.9998C45.3333 31.2628 45.9296 30.6665 46.6666 30.6665H59.9999C60.7369 30.6665 61.3333 31.2628 61.3333 31.9998V35.9998C61.3333 36.7368 60.7369 37.3332 59.9999 37.3332ZM47.9999 34.6665H58.6666V33.3332H47.9999V34.6665Z" fill="#00467F"/>
<path d="M54.6665 72H67.9998V76H54.6665V72Z" fill="white"/>
<path d="M67.9999 77.3332H54.6666C53.9296 77.3332 53.3333 76.7368 53.3333 75.9998V71.9998C53.3333 71.2628 53.9296 70.6665 54.6666 70.6665H67.9999C68.7369 70.6665 69.3333 71.2628 69.3333 71.9998V75.9998C69.3333 76.7368 68.7369 77.3332 67.9999 77.3332ZM55.9999 74.6665H66.6666V73.3332H55.9999V74.6665Z" fill="#00467F"/>
<path d="M39.9998 40H73.3331V44H39.9998V40Z" fill="white"/>
<path d="M73.3332 45.3332H39.9998C39.2628 45.3332 38.6665 44.7368 38.6665 43.9998V39.9998C38.6665 39.2628 39.2628 38.6665 39.9998 38.6665H73.3332C74.0702 38.6665 74.6665 39.2628 74.6665 39.9998V43.9998C74.6665 44.7368 74.0702 45.3332 73.3332 45.3332ZM41.3332 42.6665H71.9998V41.3332H41.3332V42.6665Z" fill="#00467F"/>
<path d="M27.9998 64H47.9998V68H27.9998V64Z" fill="white"/>
<path d="M47.9998 69.3332H27.9998C27.2628 69.3332 26.6665 68.7368 26.6665 67.9998V63.9998C26.6665 63.2628 27.2628 62.6665 27.9998 62.6665H47.9998C48.7368 62.6665 49.3332 63.2628 49.3332 63.9998V67.9998C49.3332 68.7368 48.7368 69.3332 47.9998 69.3332ZM29.3332 66.6665H46.6665V65.3332H29.3332V66.6665Z" fill="#00467F"/>
<path d="M47.9998 56H65.3331V60H47.9998V56Z" fill="white"/>
<path d="M65.3332 61.3332H47.9998C47.2628 61.3332 46.6665 60.7368 46.6665 59.9998V55.9998C46.6665 55.2628 47.2628 54.6665 47.9998 54.6665H65.3332C66.0702 54.6665 66.6665 55.2628 66.6665 55.9998V59.9998C66.6665 60.7368 66.0702 61.3332 65.3332 61.3332ZM49.3332 58.6665H63.9998V57.3332H49.3332V58.6665Z" fill="#00467F"/>
<path d="M31.9998 48H49.3331V52H31.9998V48Z" fill="white"/>
<path d="M49.3332 53.3332H31.9998C31.2628 53.3332 30.6665 52.7368 30.6665 51.9998V47.9998C30.6665 47.2628 31.2628 46.6665 31.9998 46.6665H49.3332C50.0702 46.6665 50.6665 47.2628 50.6665 47.9998V51.9998C50.6665 52.7368 50.0702 53.3332 49.3332 53.3332ZM33.3332 50.6665H47.9998V49.3332H33.3332V50.6665Z" fill="#00467F"/>
</svg>
