<svg width="90" height="90" viewBox="0 0 90 90" fill="none" xmlns="http://www.w3.org/2000/svg">
<path d="M75.0867 70.875H72.6867V24.075C72.6867 23.5746 72.3768 23.127 71.9085 22.9512C71.4402 22.7754 70.9125 22.9077 70.5837 23.2851L64.4145 30.3357C64.0026 30.1713 63.5565 30.075 63.0867 30.075C61.1016 30.075 59.4867 31.6899 59.4867 33.675C59.4867 34.4823 59.7633 35.2203 60.2139 35.8215L54.3636 44.5956C54.0813 44.5242 53.7909 44.475 53.4867 44.475C51.5016 44.475 49.8867 46.0899 49.8867 48.075C49.8867 48.3531 49.9251 48.6207 49.9851 48.8808L42.4908 53.6496C41.8797 53.1717 41.121 52.875 40.2867 52.875C38.3541 52.875 36.7845 54.4089 36.7023 56.322L27.5643 59.1339C26.907 58.2537 25.8669 57.675 24.6867 57.675C22.7016 57.675 21.0867 59.2899 21.0867 61.275C21.0867 61.9038 21.2631 62.4864 21.5475 63.0012L16.2867 68.919V22.875C16.2867 22.2117 15.7494 21.675 15.0867 21.675C14.424 21.675 13.8867 22.2117 13.8867 22.875V72.075C13.8867 72.7383 14.424 73.275 15.0867 73.275H75.0867C75.7494 73.275 76.2867 72.7383 76.2867 72.075C76.2867 71.4117 75.7494 70.875 75.0867 70.875ZM70.2867 70.875H17.7591L23.3322 64.6059C23.751 64.7766 24.207 64.875 24.6867 64.875C26.6196 64.875 28.1892 63.3408 28.2711 61.4277L37.4091 58.6158C38.0661 59.4963 39.1062 60.0747 40.2867 60.0747C42.2718 60.0747 43.8867 58.4598 43.8867 56.4747C43.8867 56.1966 43.848 55.9287 43.788 55.6683L51.282 50.8995C51.8931 51.378 52.6524 51.675 53.4867 51.675C55.4718 51.675 57.0867 50.0601 57.0867 48.075C57.0867 47.2677 56.8101 46.5294 56.3595 45.9285L62.2095 37.1544C62.4918 37.2258 62.7825 37.275 63.0867 37.275C65.0718 37.275 66.6867 35.6601 66.6867 33.675C66.6867 33.0363 66.5055 32.4447 66.2127 31.9242L70.2867 27.2685V70.875ZM63.0867 32.475C63.7482 32.475 64.2867 33.0129 64.2867 33.675C64.2867 34.3371 63.7482 34.875 63.0867 34.875C62.4252 34.875 61.8867 34.3371 61.8867 33.675C61.8867 33.0129 62.4252 32.475 63.0867 32.475ZM53.4867 46.875C54.1482 46.875 54.6867 47.4129 54.6867 48.075C54.6867 48.7371 54.1482 49.275 53.4867 49.275C52.8252 49.275 52.2867 48.7371 52.2867 48.075C52.2867 47.4129 52.8252 46.875 53.4867 46.875ZM40.2867 55.275C40.9482 55.275 41.4867 55.8129 41.4867 56.475C41.4867 57.1371 40.9482 57.675 40.2867 57.675C39.6252 57.675 39.0867 57.1371 39.0867 56.475C39.0867 55.8129 39.6252 55.275 40.2867 55.275ZM24.6867 60.075C25.3482 60.075 25.8867 60.6129 25.8867 61.275C25.8867 61.9371 25.3482 62.475 24.6867 62.475C24.0252 62.475 23.4867 61.9371 23.4867 61.275C23.4867 60.6129 24.0252 60.075 24.6867 60.075Z" fill="black"/>
<path d="M22.2867 36.075H39.0867C39.7494 36.075 40.2867 35.5383 40.2867 34.875V18.075C40.2867 17.4117 39.7494 16.875 39.0867 16.875H22.2867C21.624 16.875 21.0867 17.4117 21.0867 18.075V34.875C21.0867 35.5383 21.624 36.075 22.2867 36.075ZM23.4867 19.275H37.8867V33.675H23.4867V19.275Z" fill="black"/>
<path d="M31.5351 20.8265C31.0665 20.3579 30.3069 20.3579 29.8383 20.8265L26.2383 24.4265C25.7697 24.8951 25.7697 25.6547 26.2383 26.1233C26.7069 26.5919 27.4665 26.5919 27.9351 26.1233L29.4867 24.5717V31.2749C29.4867 31.9382 30.024 32.4749 30.6867 32.4749C31.3494 32.4749 31.8867 31.9382 31.8867 31.2749V24.5717L33.4383 26.1233C33.6726 26.3576 33.9798 26.4749 34.2867 26.4749C34.5936 26.4749 34.9008 26.3576 35.1351 26.1233C35.6037 25.6547 35.6037 24.8951 35.1351 24.4265L31.5351 20.8265Z" fill="black"/>
</svg>
