<svg width="90" height="90" viewBox="0 0 90 90" fill="none" xmlns="http://www.w3.org/2000/svg">
<path d="M73.2445 65.9836H69.6445V21.1774C69.6445 16.7695 66.0586 13.1836 61.651 13.1836H22.5118C18.7255 13.1836 15.6445 16.2646 15.6445 20.0509V23.9836C15.6445 24.6463 16.1812 25.1836 16.8445 25.1836H26.4445V67.5487C26.4445 72.9001 29.9776 76.7836 34.8445 76.7836H67.5106C71.3344 76.7836 74.4445 73.6735 74.4445 69.8503V67.1836C74.4445 66.5209 73.9078 65.9836 73.2445 65.9836ZM18.0445 22.7836V20.0509C18.0445 17.6251 19.9906 15.6547 22.4818 15.5947C24.8896 15.7084 26.4445 17.578 26.4445 20.3836V22.7836H18.0445ZM39.6445 68.9836C39.6445 71.8522 37.4026 74.2207 34.5421 74.3755C34.5373 74.3755 34.534 74.3761 34.5304 74.3761C31.1659 74.2144 28.8445 71.4523 28.8445 67.5487V20.3836C28.8445 18.4726 28.2619 16.828 27.2824 15.5836H61.651C64.7353 15.5836 67.2445 18.0931 67.2445 21.1774V65.9836H40.8445C40.1812 65.9836 39.6445 66.5209 39.6445 67.1836V68.9836ZM72.0445 69.8503C72.0445 72.3499 70.0102 74.3836 67.5106 74.3836H39.8743C41.2207 72.979 42.0445 71.0731 42.0445 68.9836V68.3836H72.0445V69.8503Z" fill="#00467F"/>
<path d="M33.6445 56.3836H48.0445C48.7078 56.3836 49.2445 55.8463 49.2445 55.1836C49.2445 54.5209 48.7078 53.9836 48.0445 53.9836H33.6445C32.9812 53.9836 32.4445 54.5209 32.4445 55.1836C32.4445 55.8463 32.9812 56.3836 33.6445 56.3836Z" fill="#00467F"/>
<path d="M56.4445 58.7835C56.4445 58.1208 55.9078 57.5835 55.2445 57.5835H33.6445C32.9812 57.5835 32.4445 58.1208 32.4445 58.7835C32.4445 59.4462 32.9812 59.9835 33.6445 59.9835H55.2445C55.9078 59.9835 56.4445 59.4462 56.4445 58.7835Z" fill="#00467F"/>
<path d="M33.6445 45.5836H56.4445C57.1078 45.5836 57.6445 45.0463 57.6445 44.3836C57.6445 43.7209 57.1078 43.1836 56.4445 43.1836H33.6445C32.9812 43.1836 32.4445 43.7209 32.4445 44.3836C32.4445 45.0463 32.9812 45.5836 33.6445 45.5836Z" fill="#00467F"/>
<path d="M33.6445 41.9835H62.4445C63.1078 41.9835 63.6445 41.4462 63.6445 40.7835C63.6445 40.1208 63.1078 39.5835 62.4445 39.5835H33.6445C32.9812 39.5835 32.4445 40.1208 32.4445 40.7835C32.4445 41.4462 32.9812 41.9835 33.6445 41.9835Z" fill="#00467F"/>
<path d="M33.6445 38.3836H46.8445C47.5078 38.3836 48.0445 37.8463 48.0445 37.1836C48.0445 36.5209 47.5078 35.9836 46.8445 35.9836H33.6445C32.9812 35.9836 32.4445 36.5209 32.4445 37.1836C32.4445 37.8463 32.9812 38.3836 33.6445 38.3836Z" fill="#00467F"/>
<path d="M33.6445 26.3836H46.8445C47.5078 26.3836 48.0445 25.8463 48.0445 25.1836C48.0445 24.5209 47.5078 23.9836 46.8445 23.9836H33.6445C32.9812 23.9836 32.4445 24.5209 32.4445 25.1836C32.4445 25.8463 32.9812 26.3836 33.6445 26.3836Z" fill="#00467F"/>
<path d="M49.2445 37.1836C49.2445 37.8463 49.7812 38.3836 50.4445 38.3836H62.4445C63.1078 38.3836 63.6445 37.8463 63.6445 37.1836C63.6445 36.5209 63.1078 35.9836 62.4445 35.9836H50.4445C49.7812 35.9836 49.2445 36.5209 49.2445 37.1836Z" fill="#00467F"/>
<path d="M33.6445 29.9835H58.8445C59.5078 29.9835 60.0445 29.4462 60.0445 28.7835C60.0445 28.1208 59.5078 27.5835 58.8445 27.5835H33.6445C32.9812 27.5835 32.4445 28.1208 32.4445 28.7835C32.4445 29.4462 32.9812 29.9835 33.6445 29.9835Z" fill="#00467F"/>
</svg>
