<svg width="90" height="90" viewBox="0 0 90 90" fill="none" xmlns="http://www.w3.org/2000/svg">
<path d="M42.384 66.6258H34.4475C32.2068 66.6258 30.384 64.803 30.384 62.5623V60.6411C30.384 57.4032 28.9773 54.3078 26.4225 51.9246C21.2163 47.0679 18.5283 40.197 19.0479 33.0744C19.8537 22.0311 28.7415 12.7875 39.7221 11.5728C40.605 11.4756 41.5011 11.4258 42.384 11.4258C43.0467 11.4258 43.584 11.9631 43.584 12.6258C43.584 13.2885 43.0467 13.8258 42.384 13.8258C41.589 13.8258 40.782 13.8702 39.9858 13.9587C30.1368 15.048 22.1646 23.3406 21.4422 33.249C20.9751 39.6432 23.3874 45.8109 28.0599 50.169C31.1067 53.0115 32.7843 56.7303 32.7843 60.6408V62.562C32.7843 63.4791 33.5307 64.2255 34.4478 64.2255H42.3843C43.047 64.2255 43.5843 64.7628 43.5843 65.4255C43.5843 66.0882 43.0467 66.6258 42.384 66.6258Z" fill="#00467F"/>
<path d="M48.984 70.2258H35.784C34.1298 70.2258 32.784 68.88 32.784 67.2258C32.784 65.5716 34.1298 64.2258 35.784 64.2258H48.984C50.6382 64.2258 51.984 65.5716 51.984 67.2258C51.984 68.88 50.6382 70.2258 48.984 70.2258ZM35.784 66.6258C35.4528 66.6258 35.184 66.8946 35.184 67.2258C35.184 67.557 35.4528 67.8258 35.784 67.8258H48.984C49.3152 67.8258 49.584 67.557 49.584 67.2258C49.584 66.8946 49.3152 66.6258 48.984 66.6258H35.784Z" fill="#00467F"/>
<path d="M48.984 73.8258H35.784C34.1298 73.8258 32.784 72.48 32.784 70.8258C32.784 69.1716 34.1298 67.8258 35.784 67.8258H48.984C50.6382 67.8258 51.984 69.1716 51.984 70.8258C51.984 72.48 50.6382 73.8258 48.984 73.8258ZM35.784 70.2258C35.4528 70.2258 35.184 70.4946 35.184 70.8258C35.184 71.157 35.4528 71.4258 35.784 71.4258H48.984C49.3152 71.4258 49.584 71.157 49.584 70.8258C49.584 70.4946 49.3152 70.2258 48.984 70.2258H35.784Z" fill="#00467F"/>
<path d="M46.035 78.6258H38.733C36.7761 78.6258 35.184 77.0337 35.184 75.0768V72.6258C35.184 71.9631 35.7213 71.4258 36.384 71.4258H48.384C49.0467 71.4258 49.584 71.9631 49.584 72.6258V75.0768C49.584 77.0337 47.9922 78.6258 46.035 78.6258ZM37.584 73.8258V75.0768C37.584 75.7101 38.0997 76.2258 38.733 76.2258H46.035C46.6683 76.2258 47.184 75.7101 47.184 75.0768V73.8258H37.584Z" fill="#00467F"/>
<path d="M25.7313 29.7798C25.5789 29.7798 25.4244 29.7504 25.275 29.6889C24.6621 29.4363 24.3702 28.7349 24.6222 28.122C25.4526 26.1057 26.6139 24.2564 28.074 22.6247C28.5141 22.1312 29.274 22.0881 29.7684 22.5312C30.2622 22.9731 30.3039 23.7318 29.862 24.2256C28.584 25.6536 27.5682 27.2718 26.8416 29.0361C26.6505 29.4996 26.2029 29.7798 25.7313 29.7798Z" fill="#00467F"/>
<path d="M32.3025 21.7125C31.9176 21.7125 31.5396 21.528 31.3077 21.1851C30.9363 20.6361 31.0797 19.8903 31.6287 19.5186C32.9118 18.6501 34.296 17.9394 35.7426 17.4057C36.3636 17.1765 37.0533 17.4954 37.2837 18.117C37.5129 18.7386 37.1946 19.4283 36.5724 19.6581C35.3073 20.124 34.0968 20.7462 32.9742 21.5061C32.7678 21.6459 32.5338 21.7125 32.3025 21.7125Z" fill="#00467F"/>
<path d="M42.384 66.6258C41.7213 66.6258 41.184 66.0885 41.184 65.4258V43.0599L36.0201 36.8637L30.8298 38.9403C30.2133 39.1851 29.5161 38.8863 29.2695 38.2716C29.0235 37.6557 29.3229 36.9579 29.9382 36.7113L35.9382 34.3113C36.4215 34.1184 36.9735 34.2579 37.3059 34.6575L43.3059 41.8575C43.4859 42.0732 43.5843 42.345 43.5843 42.6258V65.4258C43.584 66.0885 43.0467 66.6258 42.384 66.6258Z" fill="#00467F"/>
<path d="M50.1243 60.1308C48.8997 60.1308 47.6604 59.8167 46.638 59.2947C46.2366 59.0895 45.984 58.6764 45.984 58.2261V15.0261C45.984 14.7078 46.1106 14.4027 46.3356 14.1777C48.6993 11.8122 53.0013 11.6454 55.1874 13.8315C56.1981 14.8422 56.7537 16.197 56.7906 17.6196C58.8249 17.3595 60.8583 18.0105 62.3172 19.4694C63.6882 20.8398 64.3485 22.7742 64.1694 24.738C65.7777 25.0953 67.2507 25.8945 68.4111 27.0549C71.8962 30.5394 71.7555 36.3507 68.0976 40.0095C67.5738 40.5327 66.9942 40.9926 66.3663 41.3841C67.2915 43.9611 66.6258 46.9533 64.5657 49.0131C64.4217 49.1571 64.2711 49.2954 64.1115 49.4292C64.8129 51.825 64.1301 54.5082 62.274 56.3637C60.1893 58.449 57.1353 59.0361 54.6063 57.954C54.4182 58.2129 54.2103 58.4562 53.9841 58.6824C52.9626 59.7036 51.5535 60.1308 50.1243 60.1308ZM48.384 57.4338C49.74 57.9021 51.4017 57.8721 52.2876 56.9844C52.6086 56.6634 52.8693 56.283 53.0628 55.8531C53.2086 55.5285 53.4906 55.2852 53.8326 55.1892C54.1737 55.0926 54.5427 55.1541 54.8358 55.3551C56.5731 56.5452 58.9866 56.2569 60.5769 54.6666C61.968 53.2755 62.3727 51.2031 61.584 49.5093C61.332 48.9684 61.5159 48.3246 62.0157 47.9982C62.3457 47.7831 62.6244 47.5599 62.8683 47.3163C64.4667 45.7173 64.8369 43.3125 63.7689 41.4681C63.6003 41.1762 63.5616 40.8276 63.6624 40.5066C63.7638 40.1856 63.9945 39.9213 64.2999 39.7788C65.088 39.4107 65.7951 38.9175 66.4005 38.3121C69.1221 35.5899 69.2628 31.3014 66.714 28.752C65.6358 27.6738 64.2414 27.048 62.6811 26.9415C62.3184 26.9169 61.9869 26.7294 61.7787 26.4312C61.5708 26.1336 61.5087 25.7574 61.6104 25.4088C62.0703 23.832 61.7001 22.2465 60.6201 21.1665C59.3997 19.9461 57.5199 19.6236 55.8324 20.3469C55.4007 20.532 54.9012 20.4483 54.552 20.1324C54.2046 19.8159 54.0732 19.326 54.2163 18.8784C54.609 17.6526 54.3306 16.3689 53.4903 15.5286C52.3197 14.3592 49.8822 14.4195 48.384 15.5673V57.4338Z" fill="#00467F"/>
<path d="M64.788 42.0897C64.4787 42.0897 64.1694 41.9709 63.9342 41.733C62.3064 40.086 59.6421 40.0689 57.9945 41.6967C57.5235 42.1626 56.7639 42.1584 56.2977 41.6862C55.8318 41.2152 55.8366 40.455 56.3082 39.9894C57.5628 38.7501 59.2221 38.1009 60.987 38.085C62.7495 38.0955 64.4031 38.7921 65.6418 40.0467C66.1077 40.5177 66.1029 41.2779 65.6313 41.7435C65.3973 41.9742 65.0928 42.0897 64.788 42.0897Z" fill="#00467F"/>
<path d="M54.5136 28.0751C54.2043 28.0751 53.895 27.9563 53.6598 27.7187C52.5336 26.5784 51.9183 25.0679 51.9285 23.4653C51.9387 21.8627 52.572 20.3591 53.712 19.2332C56.0646 16.9076 59.8701 16.931 62.1969 19.2848C62.6628 19.7564 62.658 20.5163 62.187 20.9822C61.7148 21.4475 60.9558 21.4427 60.4896 20.9723C59.0946 19.5596 56.8098 19.5455 55.3983 20.9408C54.7146 21.617 54.3342 22.5188 54.3285 23.4803C54.3228 24.4418 54.6912 25.3478 55.3674 26.0315C55.8333 26.5031 55.8285 27.263 55.3575 27.7289C55.1229 27.9596 54.8184 28.0751 54.5136 28.0751Z" fill="#00467F"/>
<path d="M54.3366 56.925C54.3342 56.925 54.3318 56.925 54.3297 56.925C53.667 56.9208 53.1327 56.3808 53.1366 55.7181L53.1459 54.1479C53.154 52.8675 52.1193 51.8205 50.8392 51.8124C50.1765 51.8082 49.6428 51.2676 49.6467 50.6049C49.6509 49.9446 50.1876 49.4124 50.8467 49.4124H50.8542C53.4576 49.4289 55.5621 51.5598 55.5459 54.1626L55.5366 55.7322C55.5324 56.3925 54.9963 56.925 54.3366 56.925Z" fill="#00467F"/>
</svg>
