<svg width="91" height="90" viewBox="0 0 91 90" fill="none" xmlns="http://www.w3.org/2000/svg">
<path d="M80.2648 77.3953H71.9206L72.5875 62.7286C72.8707 62.5093 73.0648 62.1814 73.0648 61.7953V57.9895C73.4404 58.1224 73.8442 58.1953 74.2648 58.1953C76.2499 58.1953 77.8648 56.5804 77.8648 54.5953V37.2028C77.8648 32.1808 74.3119 28.0123 69.4648 27.1576V26.7895C70.8616 26.2945 71.8648 24.9595 71.8648 23.3953V14.1832C71.8648 11.9842 70.0759 10.1953 67.8769 10.1953H58.6648C58.0021 10.1953 57.4648 10.7326 57.4648 11.3953C57.4648 13.3501 58.4185 15.0727 59.8702 16.1689C59.8699 16.1782 59.8648 16.186 59.8648 16.1953V23.3953C59.8648 24.9598 60.868 26.2945 62.2648 26.7895V27.1576C57.7303 27.9778 54.2044 31.8517 53.8963 36.5464L53.8648 38.9953H49.0648C47.0797 38.9953 45.4648 40.6102 45.4648 42.5953C45.4648 44.5804 47.0797 46.1953 49.0648 46.1953H58.6648V61.7953C58.6648 62.1814 58.8589 62.5093 59.1424 62.7286L59.809 77.3953H35.9236L36.9076 56.8312C37.2286 56.9377 37.5727 56.9953 37.9294 56.9953H38.5996C40.3996 56.9953 41.8645 55.5304 41.8645 53.7304V37.858C41.8645 33.2218 38.1043 29.4487 33.4645 29.3998V27.9895C34.8613 27.4945 35.8645 26.1595 35.8645 24.5953V17.2435C35.8648 14.0185 33.2416 11.3953 30.0166 11.3953H22.6648C22.0021 11.3953 21.4648 11.9326 21.4648 12.5953V14.3515C21.4648 16.0282 22.45 17.4673 23.8648 18.1561V24.5953C23.8648 26.1598 24.868 27.4945 26.2648 27.9895V29.3998C21.625 29.4487 17.8648 33.2218 17.8648 37.858V53.7304C17.8648 55.5304 19.3297 56.9953 21.1297 56.9953H21.7999C22.1566 56.9953 22.5007 56.938 22.8217 56.8312L23.8057 77.3953H10.6648C10.0021 77.3953 9.46484 77.9326 9.46484 78.5953C9.46484 79.258 10.0021 79.7953 10.6648 79.7953H80.2648C80.9275 79.7953 81.4648 79.258 81.4648 78.5953C81.4648 77.9326 80.9275 77.3953 80.2648 77.3953ZM70.1725 62.9953L69.5176 77.3953H67.0648V62.9953H70.1725ZM74.2648 55.7953C73.6033 55.7953 73.0648 55.2568 73.0648 54.5953V53.3953H75.4648V54.5953C75.4648 55.2568 74.9263 55.7953 74.2648 55.7953ZM67.8769 12.5953C68.7523 12.5953 69.4648 13.3078 69.4648 14.1832V14.9953H63.4648C61.9003 14.9953 60.5656 13.9921 60.0706 12.5953H67.8769ZM69.4648 17.3953V23.3953C69.4648 24.0568 68.9263 24.5953 68.2648 24.5953C67.6021 24.5953 67.0648 25.1326 67.0648 25.7953V29.3953C67.0648 30.0568 66.5263 30.5953 65.8648 30.5953C65.2033 30.5953 64.6648 30.0568 64.6648 29.3953V25.7953C64.6648 25.1326 64.1275 24.5953 63.4648 24.5953C62.8033 24.5953 62.2648 24.0568 62.2648 23.3953V17.3953H69.4648ZM47.8648 42.5953C47.8648 41.9338 48.4033 41.3953 49.0648 41.3953H50.2648V43.7953H49.0648C48.4033 43.7953 47.8648 43.2568 47.8648 42.5953ZM52.6648 43.7953V41.3953H55.0648C55.7275 41.3953 56.2648 40.858 56.2648 40.1953L56.263 37.2616L56.2924 36.6856C56.5177 33.2497 59.0194 30.3991 62.2879 29.6224C62.3809 31.084 63.3406 32.302 64.6651 32.7742V41.3953C64.6651 42.058 65.2024 42.5953 65.8651 42.5953C66.5278 42.5953 67.0651 42.058 67.0651 41.3953V32.7742C68.3932 32.3008 69.3544 31.0774 69.4432 29.611C72.8938 30.4288 75.4648 33.568 75.4648 37.2028V50.9953H73.0648V37.7953C73.0648 37.1326 72.5275 36.5953 71.8648 36.5953C71.2021 36.5953 70.6648 37.1326 70.6648 37.7953V60.5953H61.0648V46.1953V44.9953V37.7953C61.0648 37.1326 60.5275 36.5953 59.8648 36.5953C59.2021 36.5953 58.6648 37.1326 58.6648 37.7953V43.7953H52.6648ZM61.5571 62.9953H64.6648V77.3953H62.2117L61.5571 62.9953ZM38.5999 54.5953H37.9297C37.4527 54.5953 37.0648 54.2074 37.0648 53.7304V53.5153C37.0648 53.4727 37.0453 53.4367 37.0408 53.3953H39.4648V53.7304C39.4648 54.2074 39.0769 54.5953 38.5999 54.5953ZM33.4648 24.5953C33.4648 25.2568 32.9263 25.7953 32.2648 25.7953C31.6021 25.7953 31.0648 26.3326 31.0648 26.9953V31.7953C31.0648 32.4568 30.5263 32.9953 29.8648 32.9953C29.2033 32.9953 28.6648 32.4568 28.6648 31.7953V26.9953C28.6648 26.3326 28.1275 25.7953 27.4648 25.7953C26.8033 25.7953 26.2648 25.2568 26.2648 24.5953V18.5953H33.4648V24.5953ZM23.8648 13.7953H30.0166C31.5529 13.7953 32.8573 14.8048 33.3019 16.1953H25.7086C24.6922 16.1953 23.8648 15.3679 23.8648 14.3515V13.7953ZM26.2657 31.8043C26.2708 33.7852 27.8827 35.3953 29.8648 35.3953C31.8469 35.3953 33.4588 33.7852 33.4639 31.8043C36.7798 31.8532 39.4648 34.5457 39.4648 37.858V50.9953H37.0648V38.9953C37.0648 38.3326 36.5275 37.7953 35.8648 37.7953C35.2021 37.7953 34.6648 38.3326 34.6648 38.9953V50.9953H25.0648V38.9953C25.0648 38.3326 24.5275 37.7953 23.8648 37.7953C23.2021 37.7953 22.6648 38.3326 22.6648 38.9953V50.9953H20.2648V37.858C20.2648 34.5457 22.9498 31.8532 26.2657 31.8043ZM22.6648 53.7304C22.6648 54.2074 22.2769 54.5953 21.7999 54.5953H21.1297C20.6527 54.5953 20.2648 54.2074 20.2648 53.7304V53.3953H22.6888C22.6846 53.4367 22.6648 53.473 22.6648 53.5153V53.7304ZM31.0648 77.3953V58.1953C31.0648 57.5326 30.5275 56.9953 29.8648 56.9953C29.2021 56.9953 28.6648 57.5326 28.6648 58.1953V77.3953H26.2084L25.0636 53.458C25.0624 53.4355 25.0507 53.4175 25.0483 53.3953H34.6816C34.6792 53.4172 34.6672 53.4358 34.666 53.458L33.5212 77.3953H31.0648Z" fill="black"/>
</svg>
