<svg width="80" height="80" viewBox="0 0 80 80" fill="none" xmlns="http://www.w3.org/2000/svg">
<path d="M72.5333 62.9333H70.4V53.3333H71.4667C71.7952 53.3333 72.1053 53.1819 72.3072 52.9229C72.5091 52.664 72.5811 52.3267 72.5016 52.0077L70.3683 43.4744C70.2496 43 69.8229 42.6667 69.3333 42.6667H56.5333V40.5333C56.5333 39.9443 56.0557 39.4667 55.4667 39.4667H51.2C50.6109 39.4667 50.1333 39.9443 50.1333 40.5333V42.6667H45.8667C45.3771 42.6667 44.9504 43 44.8317 43.4744L44.6424 44.2323C44.0307 43.9136 43.3651 43.7333 42.6667 43.7333C39.7261 43.7333 37.3333 46.8437 37.3333 50.6667C37.3333 54.0147 39.1688 56.816 41.6 57.4603V62.9333H34.1333V53.3333H35.2C35.5285 53.3333 35.8387 53.1819 36.0405 52.9229C36.2424 52.664 36.3144 52.3267 36.2349 52.0077L34.1016 43.4744C33.9829 43 33.5563 42.6667 33.0667 42.6667H20.2667V40.5333C20.2667 39.9443 19.7891 39.4667 19.2 39.4667H14.9333C14.3443 39.4667 13.8667 39.9443 13.8667 40.5333V42.6667H9.6C9.1104 42.6667 8.68373 43 8.56506 43.4744L6.43173 52.0077C6.352 52.3264 6.424 52.664 6.62613 52.9229C6.82826 53.1819 7.13813 53.3333 7.46666 53.3333H8.53333V62.9333H7.46666C6.8776 62.9333 6.4 63.4109 6.4 64C6.4 64.5891 6.8776 65.0667 7.46666 65.0667H72.5333C73.1224 65.0667 73.6 64.5891 73.6 64C73.6 63.4109 73.1224 62.9333 72.5333 62.9333ZM68.2667 62.9333H57.6V56.5333C57.6 55.9443 57.1224 55.4667 56.5333 55.4667H51.2C50.6109 55.4667 50.1333 55.9443 50.1333 56.5333V62.9333H46.9333V54.8088C47.1947 54.3552 47.4181 53.8629 47.5885 53.3333H68.2667V62.9333ZM55.4667 62.9333H52.2667V57.6H55.4667V62.9333ZM50.1333 44.8V45.8667C50.1333 46.4557 50.6109 46.9333 51.2 46.9333C51.7891 46.9333 52.2667 46.4557 52.2667 45.8667V41.6H54.4V45.8667C54.4 46.4557 54.8776 46.9333 55.4667 46.9333C56.0557 46.9333 56.5333 46.4557 56.5333 45.8667V44.8H68.5005L70.1005 51.2H47.9792C47.9896 51.0235 48 50.8467 48 50.6667C48 48.7664 47.408 47.0432 46.4523 45.7893L46.6995 44.8H50.1333ZM39.4667 50.6667C39.4667 48.0645 40.9323 45.8667 42.6667 45.8667C44.4011 45.8667 45.8667 48.0645 45.8667 50.6667C45.8667 52.7083 44.9597 54.4837 43.7333 55.1613V53.3333C43.7333 52.7443 43.2557 52.2667 42.6667 52.2667C42.0776 52.2667 41.6 52.7443 41.6 53.3333V55.1613C40.3736 54.4837 39.4667 52.7083 39.4667 50.6667ZM43.7333 57.4603C44.1048 57.3619 44.4608 57.2104 44.8 57.0171V62.9333H43.7333V57.4603ZM10.4328 44.8H13.8667V45.8667C13.8667 46.4557 14.3443 46.9333 14.9333 46.9333C15.5224 46.9333 16 46.4557 16 45.8667V41.6H18.1333V45.8667C18.1333 46.4557 18.6109 46.9333 19.2 46.9333C19.7891 46.9333 20.2667 46.4557 20.2667 45.8667V44.8H32.2339L33.8339 51.2H8.8328L10.4328 44.8ZM10.6667 53.3333H32V62.9333H21.3333V56.5333C21.3333 55.9443 20.8557 55.4667 20.2667 55.4667H14.9333C14.3443 55.4667 13.8667 55.9443 13.8667 56.5333V62.9333H10.6667V53.3333ZM19.2 62.9333H16V57.6H19.2V62.9333Z" fill="black"/>
<path d="M60.8001 60.8H65.0667C65.6558 60.8 66.1334 60.3224 66.1334 59.7333V56.5333C66.1334 55.9443 65.6558 55.4667 65.0667 55.4667H60.8001C60.211 55.4667 59.7334 55.9443 59.7334 56.5333V59.7333C59.7334 60.3224 60.211 60.8 60.8001 60.8ZM61.8667 57.6H64.0001V58.6667H61.8667V57.6Z" fill="black"/>
<path d="M24.5332 60.8H28.7999C29.389 60.8 29.8666 60.3224 29.8666 59.7333V56.5333C29.8666 55.9443 29.389 55.4667 28.7999 55.4667H24.5332C23.9442 55.4667 23.4666 55.9443 23.4666 56.5333V59.7333C23.4666 60.3224 23.9442 60.8 24.5332 60.8ZM25.5999 57.6H27.7332V58.6667H25.5999V57.6Z" fill="black"/>
<path d="M15.6001 32H26.0001C27.9054 32 29.4833 30.6126 29.7998 28.7966C29.8222 28.7968 29.8443 28.8 29.8667 28.8C32.8073 28.8 35.2001 26.4072 35.2001 23.4667C35.2001 20.5262 32.8073 18.1334 29.8667 18.1334C27.491 18.1334 25.4969 19.7056 24.8091 21.856C23.7569 20.8675 22.3486 20.2667 20.8001 20.2667C18.223 20.2667 16.0147 21.9078 15.235 24.2838C13.2734 24.4683 11.7334 26.1246 11.7334 28.1334C11.7334 30.2656 13.4678 32 15.6001 32ZM29.8667 20.2667C31.6313 20.2667 33.0667 21.7022 33.0667 23.4667C33.0667 25.2312 31.6313 26.6667 29.8667 26.6667C29.7625 26.6667 29.6603 26.6432 29.5563 26.6334C29.0718 25.4891 28.0521 24.6368 26.8121 24.3691C26.7262 24.0771 26.6667 23.7779 26.6667 23.4667C26.6667 21.7022 28.1022 20.2667 29.8667 20.2667ZM15.6001 26.4C15.699 26.4 15.7939 26.4163 15.8875 26.4323C16.1673 26.4803 16.4563 26.412 16.6875 26.2464C16.9187 26.0798 17.0734 25.8283 17.1182 25.547C17.4067 23.7235 18.9553 22.4 20.8001 22.4C22.6454 22.4 24.1934 23.7235 24.4814 25.5464C24.5257 25.8278 24.6809 26.0798 24.9115 26.2459C25.1433 26.4131 25.4307 26.4814 25.7115 26.4323C25.8059 26.4163 25.9011 26.4 26.0001 26.4C26.9558 26.4 27.7334 27.1776 27.7334 28.1334C27.7334 29.0891 26.9558 29.8667 26.0001 29.8667H15.6001C14.6443 29.8667 13.8667 29.0891 13.8667 28.1334C13.8667 27.1776 14.6443 26.4 15.6001 26.4Z" fill="black"/>
</svg>
