<svg width="90" height="90" viewBox="0 0 90 90" fill="none" xmlns="http://www.w3.org/2000/svg">
<path d="M81.6001 70.8H79.2001V60H80.4001C80.7697 60 81.1186 59.8296 81.3457 59.5383C81.5728 59.247 81.6538 58.8675 81.5644 58.5087L79.1644 48.9087C79.0309 48.375 78.5509 48 78.0001 48H63.6001V45.6C63.6001 44.9373 63.0628 44.4 62.4001 44.4H57.6001C56.9374 44.4 56.4001 44.9373 56.4001 45.6V48H51.6001C51.0493 48 50.5693 48.375 50.4358 48.9087L50.2228 49.7613C49.5346 49.4028 48.7858 49.2 48.0001 49.2C44.692 49.2 42.0001 52.6992 42.0001 57C42.0001 60.7665 44.065 63.918 46.8001 64.6428V70.8H38.4001V60H39.6001C39.9697 60 40.3186 59.8296 40.5457 59.5383C40.7728 59.247 40.8538 58.8675 40.7644 58.5087L38.3644 48.9087C38.2309 48.375 37.7509 48 37.2001 48H22.8001V45.6C22.8001 44.9373 22.2628 44.4 21.6001 44.4H16.8001C16.1374 44.4 15.6001 44.9373 15.6001 45.6V48H10.8001C10.2493 48 9.76926 48.375 9.63576 48.9087L7.23576 58.5087C7.14606 58.8672 7.22706 59.247 7.45446 59.5383C7.68186 59.8296 8.03046 60 8.40006 60H9.60006V70.8H8.40006C7.73736 70.8 7.20006 71.3373 7.20006 72C7.20006 72.6627 7.73736 73.2 8.40006 73.2H81.6001C82.2628 73.2 82.8001 72.6627 82.8001 72C82.8001 71.3373 82.2628 70.8 81.6001 70.8ZM76.8001 70.8H64.8001V63.6C64.8001 62.9373 64.2628 62.4 63.6001 62.4H57.6001C56.9374 62.4 56.4001 62.9373 56.4001 63.6V70.8H52.8001V61.6599C53.0941 61.1496 53.3455 60.5958 53.5372 60H76.8001V70.8ZM62.4001 70.8H58.8001V64.8H62.4001V70.8ZM56.4001 50.4V51.6C56.4001 52.2627 56.9374 52.8 57.6001 52.8C58.2628 52.8 58.8001 52.2627 58.8001 51.6V46.8H61.2001V51.6C61.2001 52.2627 61.7374 52.8 62.4001 52.8C63.0628 52.8 63.6001 52.2627 63.6001 51.6V50.4H77.0632L78.8632 57.6H53.9767C53.9884 57.4014 54.0001 57.2025 54.0001 57C54.0001 54.8622 53.3341 52.9236 52.2589 51.513L52.537 50.4H56.4001ZM44.4001 57C44.4001 54.0726 46.0489 51.6 48.0001 51.6C49.9513 51.6 51.6001 54.0726 51.6001 57C51.6001 59.2968 50.5798 61.2942 49.2001 62.0565V60C49.2001 59.3373 48.6628 58.8 48.0001 58.8C47.3374 58.8 46.8001 59.3373 46.8001 60V62.0565C45.4204 61.2942 44.4001 59.2968 44.4001 57ZM49.2001 64.6428C49.618 64.5321 50.0185 64.3617 50.4001 64.1442V70.8H49.2001V64.6428ZM11.737 50.4H15.6001V51.6C15.6001 52.2627 16.1374 52.8 16.8001 52.8C17.4628 52.8 18.0001 52.2627 18.0001 51.6V46.8H20.4001V51.6C20.4001 52.2627 20.9374 52.8 21.6001 52.8C22.2628 52.8 22.8001 52.2627 22.8001 51.6V50.4H36.2632L38.0632 57.6H9.93696L11.737 50.4ZM12.0001 60H36.0001V70.8H24.0001V63.6C24.0001 62.9373 23.4628 62.4 22.8001 62.4H16.8001C16.1374 62.4 15.6001 62.9373 15.6001 63.6V70.8H12.0001V60ZM21.6001 70.8H18.0001V64.8H21.6001V70.8Z" fill="#00467F"/>
<path d="M68.4001 68.4H73.2001C73.8628 68.4 74.4001 67.8627 74.4001 67.2V63.6C74.4001 62.9373 73.8628 62.4 73.2001 62.4H68.4001C67.7374 62.4 67.2001 62.9373 67.2001 63.6V67.2C67.2001 67.8627 67.7374 68.4 68.4001 68.4ZM69.6001 64.8H72.0001V66H69.6001V64.8Z" fill="#00467F"/>
<path d="M27.6 68.4H32.4C33.0627 68.4 33.6 67.8627 33.6 67.2V63.6C33.6 62.9373 33.0627 62.4 32.4 62.4H27.6C26.9373 62.4 26.4 62.9373 26.4 63.6V67.2C26.4 67.8627 26.9373 68.4 27.6 68.4ZM28.8 64.8H31.2V66H28.8V64.8Z" fill="#00467F"/>
<path d="M17.5501 36H29.2501C31.3936 36 33.1687 34.4391 33.5248 32.3961C33.55 32.3964 33.5749 32.4 33.6001 32.4C36.9082 32.4 39.6001 29.7081 39.6001 26.4C39.6001 23.0919 36.9082 20.4 33.6001 20.4C30.9274 20.4 28.684 22.1688 27.9103 24.588C26.7265 23.4759 25.1422 22.8 23.4001 22.8C20.5009 22.8 18.0166 24.6462 17.1394 27.3192C14.9326 27.5268 13.2001 29.3901 13.2001 31.65C13.2001 34.0488 15.1513 36 17.5501 36ZM33.6001 22.8C35.5852 22.8 37.2001 24.4149 37.2001 26.4C37.2001 28.3851 35.5852 30 33.6001 30C33.4828 30 33.3679 29.9736 33.2509 29.9625C32.7058 28.6752 31.5586 27.7164 30.1636 27.4152C30.067 27.0867 30.0001 26.7501 30.0001 26.4C30.0001 24.4149 31.615 22.8 33.6001 22.8ZM17.5501 29.7C17.6614 29.7 17.7682 29.7183 17.8735 29.7363C18.1882 29.7903 18.5134 29.7135 18.7735 29.5272C19.0336 29.3397 19.2076 29.0568 19.258 28.7403C19.5826 26.6889 21.3247 25.2 23.4001 25.2C25.4761 25.2 27.2176 26.6889 27.5416 28.7397C27.5914 29.0562 27.766 29.3397 28.0255 29.5266C28.2862 29.7147 28.6096 29.7915 28.9255 29.7363C29.0317 29.7183 29.1388 29.7 29.2501 29.7C30.3253 29.7 31.2001 30.5748 31.2001 31.65C31.2001 32.7252 30.3253 33.6 29.2501 33.6H17.5501C16.4749 33.6 15.6001 32.7252 15.6001 31.65C15.6001 30.5748 16.4749 29.7 17.5501 29.7Z" fill="#00467F"/>
</svg>
