<svg width="90" height="91" viewBox="0 0 90 91" fill="none" xmlns="http://www.w3.org/2000/svg">
<path d="M65.3949 79.1C65.3538 79.1 65.3118 79.0976 65.2695 79.0937C64.6098 79.025 64.1316 78.4352 64.2009 77.7758L65.7573 62.8325C63.0714 61.8107 61.2162 59.198 61.2162 56.2577V49.3652C61.2162 48.7424 61.692 48.2231 62.313 48.17L66.0231 47.849V34.25C66.0231 33.7403 66.3453 33.2867 66.8259 33.1181C67.3053 32.9489 67.8408 33.1016 68.1594 33.5L72.4554 38.8661C74.8659 41.576 76.2159 45.1256 76.2159 48.8135V57.8198C76.2159 59.8799 76.7607 77.6837 76.7668 77.8631C76.7866 78.5258 76.2663 79.079 75.603 79.0994C75.5916 79.1 75.5787 79.1 75.5658 79.1C74.9202 79.1 74.3868 78.5867 74.367 77.9369C74.3448 77.2022 73.8162 59.9165 73.8162 57.8198V48.8135C73.8162 45.7139 72.6819 42.7304 70.6227 40.4135L68.4231 37.6679V48.95C68.4231 49.5728 67.9473 50.0921 67.3263 50.1452L63.6162 50.4662V56.2577C63.6162 58.4381 65.1654 60.3446 67.3005 60.7904C67.9017 60.9164 68.3118 61.4777 68.2473 62.0894L66.5868 78.0239C66.5235 78.6413 66.0021 79.1 65.3949 79.1Z" fill="black"/>
<path d="M67.167 49.1H21.567C20.9037 49.1 20.367 48.5627 20.367 47.9V13.1C20.367 12.4373 20.9037 11.9 21.567 11.9H67.167C67.8303 11.9 68.367 12.4373 68.367 13.1V47.9C68.367 48.5627 67.8303 49.1 67.167 49.1ZM22.767 46.7H65.967V14.3H22.767V46.7Z" fill="black"/>
<path d="M68.9934 51.3038L64.8354 42.9878C64.4406 42.1979 63.525 41.819 62.6874 42.098C61.8549 42.3755 61.3503 43.22 61.5003 44.0843L62.4165 49.3652V54.7601" fill="white"/>
<path d="M62.4162 55.9601C61.7529 55.9601 61.2162 55.4228 61.2162 54.7601V49.4684L60.3174 44.2892C60.0654 42.8279 60.9021 41.4281 62.3073 40.9592C63.7017 40.4921 65.2509 41.1368 65.9085 42.4511L70.0674 50.7668C70.3638 51.3599 70.1238 52.0805 69.5307 52.3769C68.9388 52.6733 68.2182 52.4333 67.9206 51.8402L63.7617 43.5245C63.6351 43.2701 63.3375 43.1471 63.0657 43.2362C62.7963 43.3265 62.6343 43.5977 62.6826 43.88L63.5991 49.16C63.6108 49.2275 63.6168 49.2965 63.6168 49.3652V54.7598C63.6162 55.4228 63.0795 55.9601 62.4162 55.9601Z" fill="black"/>
<path d="M23.4066 79.1C22.7997 79.1 22.278 78.6413 22.2147 78.0242L20.553 62.0897C20.4885 61.478 20.8974 60.9167 21.4998 60.7907C23.6349 60.3449 25.1841 58.4381 25.1841 56.258V50.4665L21.474 50.1455C20.853 50.0921 20.3772 49.5731 20.3772 48.9503V37.6691L18.2175 40.3661C16.1187 42.7304 14.9844 45.7139 14.9844 48.8135V57.8198C14.9844 59.9162 14.4558 77.2019 14.4336 77.9369C14.4138 78.5867 13.8804 79.1 13.2348 79.1C13.2219 79.1 13.209 79.1 13.1973 79.0994C12.534 79.079 12.0138 78.5258 12.0336 77.8631C12.0396 77.6837 12.5844 59.8802 12.5844 57.8198V48.8135C12.5844 45.1256 13.9344 41.576 16.3848 38.8187L20.6412 33.5C20.9598 33.1016 21.4968 32.951 21.9747 33.1181C22.4553 33.2867 22.7775 33.7403 22.7775 34.25V47.849L26.4876 48.17C27.1086 48.2234 27.5844 48.7424 27.5844 49.3652V56.2577C27.5844 59.198 25.7292 61.8107 23.0433 62.8319L24.6006 77.7755C24.6696 78.4346 24.1917 79.0247 23.532 79.0934C23.49 79.0976 23.4477 79.1 23.4066 79.1Z" fill="black"/>
<path d="M19.8076 51.3038L23.9656 42.9878C24.3604 42.1979 25.276 41.819 26.1136 42.098C26.9461 42.3755 27.4507 43.22 27.3007 44.0843L26.3845 49.3652V54.7601" fill="white"/>
<path d="M26.3844 55.9601C25.7211 55.9601 25.1844 55.4228 25.1844 54.7601V49.3655C25.1844 49.2968 25.1904 49.2278 25.2021 49.1603L26.1186 43.8791C26.1666 43.6019 26.0013 43.3253 25.7343 43.2362C25.467 43.1447 25.167 43.2701 25.0395 43.5245L20.8818 51.8402C20.5842 52.4333 19.8645 52.6733 19.2717 52.3769C18.6789 52.0805 18.4386 51.3596 18.735 50.7668L22.8927 42.4511C23.55 41.1344 25.0992 40.4942 26.4927 40.9592C27.9 41.4284 28.7367 42.8288 28.4838 44.2892L27.585 49.4684V54.7601C27.5844 55.4228 27.0477 55.9601 26.3844 55.9601Z" fill="black"/>
<path d="M47.967 41.9H40.767C40.1037 41.9 39.567 41.3627 39.567 40.7V34.7H33.567C32.9037 34.7 32.367 34.1627 32.367 33.5V26.3C32.367 25.6373 32.9037 25.1 33.567 25.1H39.567V19.1C39.567 18.4373 40.1037 17.9 40.767 17.9H47.967C48.6303 17.9 49.167 18.4373 49.167 19.1V25.1H55.167C55.8303 25.1 56.367 25.6373 56.367 26.3V33.5C56.367 34.1627 55.8303 34.7 55.167 34.7H49.167V40.7C49.167 41.3627 48.6303 41.9 47.967 41.9ZM41.967 39.5H46.767V33.5C46.767 32.8373 47.3037 32.3 47.967 32.3H53.967V27.5H47.967C47.3037 27.5 46.767 26.9627 46.767 26.3V20.3H41.967V26.3C41.967 26.9627 41.4303 27.5 40.767 27.5H34.767V32.3H40.767C41.4303 32.3 41.967 32.8373 41.967 33.5V39.5Z" fill="black"/>
</svg>
