<svg width="90" height="90" viewBox="0 0 90 90" fill="none" xmlns="http://www.w3.org/2000/svg">
<path d="M74.6625 70.8H67.4625V20.4C67.4625 19.7373 66.9258 19.2 66.2625 19.2H37.8207C36.7056 13.7292 31.8573 9.59998 26.0625 9.59998C19.446 9.59998 14.0625 14.9829 14.0625 21.6C14.0625 27.6036 18.4992 32.577 24.2625 33.45V72.9942C24.2625 77.0775 27.5847 80.4 31.6689 80.4H68.4165C72.5229 80.4 75.8625 77.0595 75.8625 72.954V72C75.8625 71.3373 75.3258 70.8 74.6625 70.8ZM16.4625 21.6C16.4625 16.3065 20.769 12 26.0625 12C31.356 12 35.6625 16.3065 35.6625 21.6C35.6625 26.8935 31.356 31.2 26.0625 31.2C20.769 31.2 16.4625 26.8935 16.4625 21.6ZM26.6625 72.9942V33.5697C32.9994 33.2541 38.0625 28.0146 38.0625 21.6H65.0625V70.8H38.6625C37.9992 70.8 37.4625 71.3373 37.4625 72V72.954C37.4625 75.6732 35.3376 77.8872 32.6229 78H31.6686C28.9077 78 26.6625 75.7548 26.6625 72.9942ZM68.4165 78H37.9056C39.0729 76.7292 39.7992 75.0504 39.8592 73.2H73.4568C73.3278 75.8685 71.1165 78 68.4165 78Z" fill="black"/>
<path d="M29.5089 28.6194C29.7024 28.7394 29.9214 28.8 30.1416 28.8C30.3396 28.8 30.5388 28.7508 30.7182 28.6524C31.098 28.4445 31.3359 28.0476 31.3416 27.6147L31.392 23.4822L33.6585 20.112C33.8988 19.7547 33.9291 19.2957 33.7383 18.9102C33.5472 18.5241 33.1641 18.2703 32.7339 18.2445L29.3613 18.0417L27.1218 13.8357C26.7045 13.053 25.4202 13.053 25.0032 13.8357L22.7637 18.0417L19.3911 18.2442C18.9609 18.27 18.5778 18.5238 18.3867 18.9099C18.1956 19.2954 18.2262 19.7541 18.4665 20.1117L20.733 23.4819L20.7834 27.6144C20.7894 28.0473 21.027 28.4442 21.4068 28.6521C21.7842 28.8588 22.2483 28.8471 22.6161 28.6194L26.0625 26.4801L29.5089 28.6194ZM23.1576 25.4589L23.1282 23.0946C23.1246 22.8609 23.0544 22.6335 22.9242 22.4394L21.6294 20.5134L23.5782 20.3961C23.9955 20.3715 24.3693 20.1312 24.5661 19.7628L26.0625 16.9527L27.5589 19.7628C27.7557 20.1315 28.1295 20.3715 28.5468 20.3961L30.4956 20.5134L29.2008 22.4394C29.0706 22.6332 29.0004 22.8606 28.9968 23.0946L28.9674 25.4589L26.6952 24.0486C26.5017 23.9286 26.2815 23.868 26.0625 23.868C25.8435 23.868 25.623 23.9283 25.4298 24.0486L23.1576 25.4589Z" fill="black"/>
<path d="M49.4625 62.4C49.4625 66.3702 52.6923 69.6 56.6625 69.6C60.6327 69.6 63.8625 66.3702 63.8625 62.4C63.8625 58.4298 60.6327 55.2 56.6625 55.2C52.6923 55.2 49.4625 58.4298 49.4625 62.4ZM61.4625 62.4C61.4625 65.0466 59.3097 67.2 56.6625 67.2C54.0153 67.2 51.8625 65.0466 51.8625 62.4C51.8625 59.7534 54.0153 57.6 56.6625 57.6C59.3097 57.6 61.4625 59.7534 61.4625 62.4Z" fill="black"/>
<path d="M53.0625 62.4C53.0625 64.3851 54.6774 66 56.6625 66C58.6476 66 60.2625 64.3851 60.2625 62.4C60.2625 60.4149 58.6476 58.8 56.6625 58.8C54.6774 58.8 53.0625 60.4149 53.0625 62.4ZM57.8625 62.4C57.8625 63.0615 57.3246 63.6 56.6625 63.6C56.0004 63.6 55.4625 63.0615 55.4625 62.4C55.4625 61.7385 56.0004 61.2 56.6625 61.2C57.3246 61.2 57.8625 61.7385 57.8625 62.4Z" fill="black"/>
<path d="M35.5218 69.5073C35.5662 69.5073 35.6109 69.5061 35.6553 69.5037C37.3323 69.417 38.6601 67.4904 39.6372 65.2851L39.6465 65.3766C39.7146 65.9829 40.2255 66.4425 40.836 66.4443H40.8396C41.4477 66.4443 41.9598 65.9889 42.0315 65.3844C42.273 63.3279 42.696 61.23 43.0839 60.006C43.4589 60.7461 44.1879 61.8072 45.3783 61.6614C47.0412 61.4733 47.8545 58.8858 48.2424 56.7477C48.3618 56.0961 47.9295 55.4721 47.2779 55.3533C46.6299 55.2321 46.0017 55.6668 45.8823 56.3184C45.7158 57.2232 45.4299 58.191 45.1686 58.8021C45.1323 58.7277 45.0948 58.644 45.0537 58.5495C44.496 57.2481 43.7682 56.6568 42.8247 56.787C42.4251 56.8449 41.7057 56.9487 40.9896 58.7265C40.7985 58.566 40.5573 58.464 40.2924 58.4469C39.7206 58.4229 39.1872 58.7973 39.0501 59.3646C38.0376 63.5763 36.2973 67.0446 35.5356 67.1079C35.5287 67.1067 34.8207 66.8787 33.8832 64.2228C33.855 64.1448 33.828 64.068 33.8022 63.9909C35.7288 62.6115 37.9107 60.4008 38.2974 57.3048C38.5014 55.6713 37.9176 54.3159 36.7341 53.6796C35.5317 53.0322 33.9627 53.2881 32.7414 54.333C31.9539 55.0074 29.7297 57.4725 30.9999 62.9217C30.312 63.3042 29.8305 63.5025 29.814 63.5094C29.1999 63.7572 28.9023 64.4556 29.1495 65.0697C29.3955 65.6832 30.0918 65.982 30.7068 65.7372C30.7701 65.712 31.1487 65.5572 31.7076 65.2695C32.4012 67.1679 33.5343 69.5073 35.5218 69.5073ZM34.3032 56.1552C34.6629 55.8465 35.0205 55.725 35.2923 55.725C35.4141 55.725 35.5185 55.7496 35.5983 55.7925C35.8737 55.9413 35.9931 56.3949 35.9169 57.0066C35.6826 58.8834 34.452 60.3756 33.1572 61.455C32.7153 58.7085 33.3726 56.9526 34.3032 56.1552Z" fill="black"/>
<path d="M48.2625 27.6H60.2625C60.9258 27.6 61.4625 27.0627 61.4625 26.4C61.4625 25.7373 60.9258 25.2 60.2625 25.2H48.2625C47.5992 25.2 47.0625 25.7373 47.0625 26.4C47.0625 27.0627 47.5992 27.6 48.2625 27.6Z" fill="black"/>
<path d="M32.6625 37.2H57.8625C58.5258 37.2 59.0625 36.6627 59.0625 36C59.0625 35.3373 58.5258 34.8 57.8625 34.8H32.6625C31.9992 34.8 31.4625 35.3373 31.4625 36C31.4625 36.6627 31.9992 37.2 32.6625 37.2Z" fill="black"/>
<path d="M32.6625 42H42.2625C42.9258 42 43.4625 41.4627 43.4625 40.8C43.4625 40.1373 42.9258 39.6 42.2625 39.6H32.6625C31.9992 39.6 31.4625 40.1373 31.4625 40.8C31.4625 41.4627 31.9992 42 32.6625 42Z" fill="black"/>
<path d="M60.2625 40.8C60.2625 40.1373 59.7258 39.6 59.0625 39.6H47.0625C46.3992 39.6 45.8625 40.1373 45.8625 40.8C45.8625 41.4627 46.3992 42 47.0625 42H59.0625C59.7258 42 60.2625 41.4627 60.2625 40.8Z" fill="black"/>
<path d="M32.6625 46.8H50.6625C51.3258 46.8 51.8625 46.2627 51.8625 45.6C51.8625 44.9373 51.3258 44.4 50.6625 44.4H32.6625C31.9992 44.4 31.4625 44.9373 31.4625 45.6C31.4625 46.2627 31.9992 46.8 32.6625 46.8Z" fill="black"/>
<path d="M55.4625 46.8H59.0625C59.7258 46.8 60.2625 46.2627 60.2625 45.6C60.2625 44.9373 59.7258 44.4 59.0625 44.4H55.4625C54.7992 44.4 54.2625 44.9373 54.2625 45.6C54.2625 46.2627 54.7992 46.8 55.4625 46.8Z" fill="black"/>
</svg>
