<svg width="90" height="90" viewBox="0 0 90 90" fill="none" xmlns="http://www.w3.org/2000/svg">
<path d="M65.9099 74.9414H23.9729C18.9926 74.9414 14.9414 70.8896 14.9414 65.9099V23.9729C14.9414 18.9932 18.9926 14.9414 23.9729 14.9414H65.9096C70.8902 14.9414 74.9414 18.9932 74.9414 23.9729V65.9096C74.9414 70.8896 70.8902 74.9414 65.9099 74.9414ZM23.9729 17.3414C20.3168 17.3414 17.3414 20.3162 17.3414 23.9729V65.9096C17.3414 69.5666 20.3168 72.5414 23.9729 72.5414H65.9096C69.566 72.5414 72.5411 69.5666 72.5411 65.9099V23.9729C72.5414 20.3162 69.566 17.3414 65.9099 17.3414H23.9729Z" fill="#00467F"/>
<path d="M60.5414 34.1414H29.3414C28.6781 34.1414 28.1414 33.6041 28.1414 32.9414V29.4029C28.1414 26.0606 30.8612 23.3414 34.2035 23.3414H55.6793C59.0216 23.3414 61.7414 26.0606 61.7414 29.4029V32.9414C61.7414 33.6041 61.2047 34.1414 60.5414 34.1414ZM30.5414 31.7414H59.3414V29.4029C59.3414 27.3839 57.6983 25.7414 55.6793 25.7414H34.2035C32.1845 25.7414 30.5414 27.3839 30.5414 29.4029V31.7414Z" fill="#00467F"/>
<path d="M34.2031 65.3414H55.6798C58.3648 65.3414 60.5416 63.1646 60.5416 60.4796V32.9414H29.3413V60.4796C29.3413 63.1646 31.5181 65.3414 34.2031 65.3414Z" fill="white"/>
<path d="M55.6793 66.5415H34.2035C30.8612 66.5415 28.1414 63.8223 28.1414 60.48V32.9415C28.1414 32.2788 28.6781 31.7415 29.3414 31.7415H60.5414C61.2047 31.7415 61.7414 32.2788 61.7414 32.9415V60.48C61.7414 63.8223 59.0216 66.5415 55.6793 66.5415ZM30.5414 34.1415V60.48C30.5414 62.499 32.1845 64.1415 34.2035 64.1415H55.6793C57.6983 64.1415 59.3414 62.499 59.3414 60.48V34.1415H30.5414Z" fill="#00467F"/>
<path d="M48.5414 40.1415H34.1414C33.4781 40.1415 32.9414 39.6042 32.9414 38.9415C32.9414 38.2788 33.4781 37.7415 34.1414 37.7415H48.5414C49.2047 37.7415 49.7414 38.2788 49.7414 38.9415C49.7414 39.6042 49.2047 40.1415 48.5414 40.1415Z" fill="#00467F"/>
<path d="M42.5414 43.7414H34.1414C33.4781 43.7414 32.9414 43.2041 32.9414 42.5414C32.9414 41.8787 33.4781 41.3414 34.1414 41.3414H42.5414C43.2047 41.3414 43.7414 41.8787 43.7414 42.5414C43.7414 43.2041 43.2047 43.7414 42.5414 43.7414Z" fill="#00467F"/>
<path d="M48.5414 47.3414H34.1414C33.4781 47.3414 32.9414 46.8041 32.9414 46.1414C32.9414 45.4787 33.4781 44.9414 34.1414 44.9414H48.5414C49.2047 44.9414 49.7414 45.4787 49.7414 46.1414C49.7414 46.8041 49.2047 47.3414 48.5414 47.3414Z" fill="#00467F"/>
<path d="M38.9414 55.7414H34.1414C33.4781 55.7414 32.9414 55.2041 32.9414 54.5414C32.9414 53.8787 33.4781 53.3414 34.1414 53.3414H38.9414C39.6047 53.3414 40.1414 53.8787 40.1414 54.5414C40.1414 55.2041 39.6047 55.7414 38.9414 55.7414Z" fill="#00467F"/>
<path d="M44.9414 59.3414H34.1414C33.4781 59.3414 32.9414 58.8041 32.9414 58.1414C32.9414 57.4787 33.4781 56.9414 34.1414 56.9414H44.9414C45.6047 56.9414 46.1414 57.4787 46.1414 58.1414C46.1414 58.8041 45.6047 59.3414 44.9414 59.3414Z" fill="#00467F"/>
<path d="M58.1414 34.1414H62.9414V53.3414H58.1414V34.1414Z" fill="white"/>
<path d="M62.9414 54.5414H58.1414C57.4781 54.5414 56.9414 54.0041 56.9414 53.3414V34.1414C56.9414 33.4787 57.4781 32.9414 58.1414 32.9414H62.9414C63.6047 32.9414 64.1414 33.4787 64.1414 34.1414V53.3414C64.1414 54.0041 63.6047 54.5414 62.9414 54.5414ZM59.3414 52.1414H61.7414V35.3414H59.3414V52.1414Z" fill="#00467F"/>
<path d="M62.9414 53.3413H58.1414L60.7013 58.1413L62.9414 53.3413Z" fill="white"/>
<path d="M60.702 59.3414C60.2601 59.3414 59.8524 59.0978 59.6439 58.7063L57.0834 53.9063C56.8842 53.5343 56.8959 53.0855 57.1128 52.724C57.3297 52.3625 57.7197 52.1414 58.1415 52.1414H62.9415C63.3516 52.1414 63.7338 52.3505 63.954 52.697C64.1742 53.0426 64.2024 53.4776 64.029 53.849L61.7895 58.649C61.5972 59.0609 61.1883 59.3294 60.7335 59.3411C60.723 59.3414 60.7125 59.3414 60.702 59.3414ZM60.1419 54.5414L60.6306 55.4573L61.0572 54.5414H60.1419Z" fill="#00467F"/>
<path d="M58.1414 30.5414H62.9414V34.1414H58.1414V30.5414Z" fill="white"/>
<path d="M62.9414 35.3414H58.1414C57.4781 35.3414 56.9414 34.8041 56.9414 34.1414V30.5414C56.9414 29.8787 57.4781 29.3414 58.1414 29.3414H62.9414C63.6047 29.3414 64.1414 29.8787 64.1414 30.5414V34.1414C64.1414 34.8041 63.6047 35.3414 62.9414 35.3414ZM59.3414 32.9414H61.7414V31.7414H59.3414V32.9414Z" fill="#00467F"/>
<path d="M67.7415 66.5414C68.4042 66.5414 68.9415 66.0041 68.9415 65.3414C68.9415 64.6786 68.4042 64.1414 67.7415 64.1414C67.0788 64.1414 66.5415 64.6786 66.5415 65.3414C66.5415 66.0041 67.0788 66.5414 67.7415 66.5414Z" fill="#00467F"/>
<path d="M25.0383 26.8382C24.7314 26.8382 24.4242 26.7209 24.1899 26.4866L20.7963 23.093C20.3277 22.6244 20.3277 21.8648 20.7963 21.3962C21.2649 20.9276 22.0245 20.9276 22.4931 21.3962L25.8867 24.7899C26.3553 25.2585 26.3553 26.018 25.8867 26.4866C25.6524 26.7212 25.3455 26.8382 25.0383 26.8382Z" fill="#00467F"/>
<path d="M21.6447 26.8382C21.3378 26.8382 21.0306 26.7209 20.7963 26.4866C20.3277 26.018 20.3277 25.2585 20.7963 24.7899L24.1899 21.3962C24.6585 20.9276 25.4181 20.9276 25.8867 21.3962C26.3553 21.8648 26.3553 22.6244 25.8867 23.093L22.4931 26.4866C22.2588 26.7212 21.9516 26.8382 21.6447 26.8382Z" fill="#00467F"/>
</svg>
