<svg width="90" height="90" viewBox="0 0 90 90" fill="none" xmlns="http://www.w3.org/2000/svg">
<path d="M82.6701 48.9797C82.3011 48.4277 81.5544 48.2807 81.0048 48.6509L67.8681 57.4553L56.319 50.9411C58.0134 50.6522 59.2641 50.168 59.3496 50.1341C59.9649 49.8881 60.2637 49.1912 60.0186 48.5762C59.7726 47.9603 59.0742 47.6621 58.4601 47.9048C58.4319 47.9165 55.4988 49.0631 52.8879 48.6923L51.8721 48.4697C49.8792 47.8604 48.7656 46.2692 48.4698 43.6025C48.3972 42.9527 47.8323 42.4862 47.1678 42.5396L38.4573 43.3313C37.8537 43.4105 36.5517 42.3422 35.7234 41.3408C34.8327 39.7013 35.0226 39.2345 35.025 39.2297C35.1105 39.038 35.994 38.8349 36.4194 38.7368C36.7791 38.6543 37.14 38.5697 37.4787 38.4626L50.1243 34.4693C52.1787 33.8201 54.4557 34.1804 56.211 35.4344L56.6658 35.759C59.2827 37.6277 62.6964 37.8971 65.571 36.458C65.6154 36.4352 65.6589 36.41 65.7012 36.3824L72.8274 31.6193C73.3782 31.2506 73.527 30.5054 73.158 29.9546C72.7899 29.4038 72.0471 29.2568 71.4939 29.6234L64.4334 34.343C62.3661 35.3462 59.9322 35.1416 58.0608 33.8051L57.606 33.4805C55.2399 31.7906 52.1685 31.3055 49.4028 32.1803L45.2454 33.4928C41.7345 31.5029 37.473 31.2764 33.7746 32.9189C32.1153 33.6566 30.2835 33.926 28.4859 33.7016L23.6601 33.098L18.6246 29.5019C18.0867 29.1182 17.3367 29.243 16.9512 29.7815C16.5657 30.3206 16.6911 31.07 17.2302 31.4555L22.5129 35.2283C22.6746 35.3438 22.8633 35.4176 23.0613 35.4422L28.1883 36.0833C28.6992 36.1472 29.2113 36.1787 29.7234 36.1787C31.4484 36.1787 33.1617 35.8178 34.7496 35.1122C36.9645 34.1279 39.429 33.9764 41.715 34.6076L36.7557 36.1733C36.4767 36.2618 36.1779 36.3293 35.8815 36.3971C34.7787 36.6509 33.4065 36.9665 32.8335 38.2511C32.3508 39.3311 32.6097 40.6703 33.6738 42.5936C33.7065 42.6527 33.744 42.7097 33.7863 42.7622C34.2093 43.2926 36.4419 45.9356 38.6754 45.7211L46.2681 45.0308C47.0286 48.6629 49.2237 50.1407 51.0645 50.7326L66.7794 59.5961C67.2306 59.8667 67.5504 60.2969 67.6782 60.8072C67.806 61.3181 67.7274 61.8479 67.4568 62.3003C67.1862 62.7515 66.756 63.0707 66.2451 63.1985C65.7306 63.3287 65.2032 63.2483 64.752 62.9777L62.9394 61.8914H62.9391L57.4995 58.6319C56.9301 58.2914 56.1951 58.4759 55.8543 59.0444C55.5132 59.6132 55.6983 60.35 56.2668 60.6908L61.707 63.9506C62.1825 64.236 62.5188 64.7129 62.6265 65.2583C62.7366 65.8115 62.6088 66.3686 62.2692 66.8265C61.6752 67.6256 60.4704 67.805 59.5248 67.2389L57.8685 66.2468C57.8679 66.2465 57.8673 66.2456 57.8664 66.2453L54.2394 64.0728C54.0972 63.9875 53.9448 63.9353 53.7903 63.9137C53.3268 63.8489 52.848 64.0595 52.5942 64.4852C52.509 64.6274 52.4565 64.7804 52.4349 64.9349C52.3914 65.2436 52.4706 65.5592 52.6545 65.8109C52.7466 65.9369 52.8645 66.0467 53.0067 66.1319L56.6358 68.306C57.567 68.8649 57.8697 70.0766 57.3123 71.0081C56.7522 71.9403 55.5417 72.2463 54.5631 71.6603L49.6998 69.0242C49.1175 68.7089 48.3885 68.9253 48.0732 69.5075C47.7567 70.0899 47.9736 70.8182 48.5559 71.1348L51.9408 72.9689C52.5672 73.6004 52.6989 74.5931 52.2366 75.3623C51.9672 75.8141 51.537 76.1333 51.0261 76.2611C50.5176 76.3901 49.9866 76.3116 49.5975 76.0806L43.6089 71.955L45.7878 69.3458C47.3088 67.523 47.0652 64.8023 45.2442 63.2813C44.7015 62.8274 44.0652 62.5403 43.3932 62.3951C44.3976 60.6359 44.0391 58.3547 42.4317 57.011C41.4534 56.195 40.2168 55.9091 39.0468 56.0891C38.9274 54.986 38.4012 53.9879 37.5474 53.2748C36.672 52.544 35.5635 52.196 34.4313 52.2998C34.0845 52.331 33.753 52.4159 33.4317 52.5257C33.2151 51.6539 32.7432 50.8709 32.0406 50.2841C31.1652 49.5539 30.06 49.2077 28.9245 49.3097C27.7902 49.4117 26.7636 49.949 26.0322 50.8232L22.3167 55.2716L17.9625 49.829C17.8569 49.6976 17.7258 49.5899 17.5758 49.5125L8.87817 45.0131C8.28987 44.7071 7.56687 44.9393 7.26087 45.5276C6.95727 46.1165 7.18707 46.8401 7.77657 47.1449L16.2468 51.527L20.7465 57.1514L19.6278 58.4909C18.1209 60.2957 18.3633 62.9909 20.1681 64.4984C20.8788 65.0918 21.744 65.4173 22.6515 65.4692C22.6068 65.7896 22.5876 66.1151 22.6173 66.4454C22.7193 67.5797 23.2572 68.6069 24.1314 69.3371C24.906 69.9839 25.8612 70.3293 26.8584 70.3293C26.9874 70.3293 27.1173 70.3232 27.2475 70.3115C27.8142 70.2605 28.3539 70.1009 28.8435 69.8451C29.0931 70.5746 29.5248 71.2304 30.1314 71.7371C30.906 72.3839 31.8612 72.7292 32.8584 72.7292C32.9874 72.7292 33.1173 72.7232 33.2475 72.7115C33.8163 72.6605 34.3572 72.4995 34.848 72.2423C35.0991 72.9837 35.5368 73.6494 36.1536 74.1642C36.9564 74.8349 37.935 75.1632 38.9088 75.1626C40.0638 75.1626 41.2008 74.6844 42.0408 73.7892L48.3 78.0977C48.9879 78.5096 49.7565 78.7211 50.5383 78.7211C50.8956 78.7211 51.2544 78.6773 51.6093 78.5882C52.7412 78.3047 53.6964 77.5961 54.2952 76.5947C54.7206 75.8855 54.9102 75.089 54.9 74.2988C55.137 74.3382 55.3749 74.3648 55.6125 74.3648C57.0984 74.3648 58.5504 73.6067 59.3694 72.2408C59.8086 71.5082 59.9961 70.6973 59.9775 69.9006C60.2148 69.9371 60.4527 69.9608 60.69 69.9608C62.0493 69.9608 63.369 69.3669 64.194 68.2587C64.7709 67.4823 65.0616 66.5426 65.0523 65.5925C65.2872 65.6312 65.5227 65.657 65.7585 65.657C67.2456 65.657 68.6964 64.8995 69.5145 63.5336C70.1157 62.5322 70.2903 61.3568 70.0056 60.2243C69.9135 59.8571 69.762 59.5181 69.5844 59.1938L82.3407 50.6444C82.8915 50.2757 83.0379 49.5299 82.6701 48.9797ZM21.4608 60.0203L27.8652 52.3532C28.2354 51.9092 28.77 51.6794 29.3079 51.6794C29.7333 51.6794 30.1599 51.8225 30.5103 52.1153C30.8958 52.4369 31.1325 52.8893 31.1772 53.3891C31.2228 53.888 31.071 54.374 30.7497 54.7586L24.3432 62.4293C24.0222 62.8139 23.5701 63.0509 23.0715 63.0953C22.5747 63.1409 22.0848 62.9888 21.6993 62.6663C20.9028 62.0021 20.7963 60.815 21.4608 60.0203ZM25.662 67.5053C24.8664 66.8409 24.7596 65.6543 25.4241 64.8599L33.3717 55.3436C33.6927 54.9587 34.1451 54.722 34.6443 54.6773C34.7016 54.6719 34.7592 54.6692 34.8153 54.6692C35.2548 54.6692 35.6754 54.8216 36.0165 55.1063C36.402 55.4279 36.6387 55.8803 36.6834 56.3801C36.7287 56.8778 36.5772 57.3626 36.258 57.7469L28.3068 67.2674C27.6435 68.063 26.454 68.1686 25.662 67.5053ZM31.662 69.9053C31.2765 69.5838 31.0398 69.1314 30.9951 68.6315C30.9495 68.1324 31.1013 67.6463 31.4229 67.2617L38.2548 59.0807C38.625 58.6367 39.1596 58.4075 39.6975 58.4075C40.1229 58.4075 40.5507 58.55 40.9011 58.8428C41.2866 59.1644 41.5233 59.6168 41.568 60.1166C41.6124 60.6158 41.4603 61.1033 41.1378 61.4882L34.3068 69.6674C33.6435 70.4619 32.454 70.5675 31.662 69.9053ZM37.6911 72.3216C37.3008 71.9952 37.0605 71.5364 37.0149 71.0294C36.9693 70.5224 37.1238 70.028 37.4508 69.6371L41.0202 65.3628C41.346 64.9718 41.8053 64.7315 42.3129 64.6859C42.3702 64.6805 42.429 64.6784 42.4863 64.6784C42.9315 64.6784 43.3581 64.8326 43.7049 65.1222C44.5113 65.7953 44.619 67.0001 43.9452 67.8062L40.3758 72.08C39.7032 72.8871 38.4987 72.9942 37.6911 72.3216Z" fill="#00467F"/>
</svg>
