<svg width="100" height="100" viewBox="0 0 100 100" fill="none" xmlns="http://www.w3.org/2000/svg">
<path d="M66.2758 14.6665H26.2758C24.8031 14.6665 23.6091 15.8605 23.6091 17.3332V82.6665C23.6091 84.1392 24.8031 85.3332 26.2758 85.3332H74.2758C75.7485 85.3332 76.9425 84.1392 76.9425 82.6665V25.3332L66.2758 14.6665Z" fill="white"/>
<path d="M74.2759 86.6663H26.2759C24.0702 86.6663 22.2759 84.872 22.2759 82.6663V17.333C22.2759 15.1273 24.0702 13.333 26.2759 13.333H66.2759C66.6299 13.333 66.9685 13.4737 67.2185 13.7237L77.8852 24.3903C78.1352 24.6403 78.2759 24.979 78.2759 25.333V82.6663C78.2759 84.8723 76.4815 86.6663 74.2759 86.6663ZM26.2759 15.9997C25.5402 15.9997 24.9425 16.5973 24.9425 17.333V82.6663C24.9425 83.402 25.5402 83.9997 26.2759 83.9997H74.2759C75.0115 83.9997 75.6092 83.402 75.6092 82.6663V25.8853L65.7235 15.9997H26.2759Z" fill="#00467F"/>
<path d="M66.2759 25.3332H76.9425L66.2759 14.6665V25.3332Z" fill="white"/>
<path d="M76.9426 26.6665H66.276C65.539 26.6665 64.9426 26.0702 64.9426 25.3332V14.6665C64.9426 14.1275 65.267 13.6405 65.7656 13.4348C66.2656 13.2278 66.8386 13.3425 67.2186 13.7238L77.8853 24.3905C78.267 24.7722 78.3813 25.3448 78.1743 25.8435C77.9686 26.3425 77.4816 26.6665 76.9426 26.6665ZM67.6093 23.9998H73.724L67.6093 17.8852V23.9998Z" fill="#00467F"/>
<path d="M70.276 54.6667H30.276C29.539 54.6667 28.9426 54.0703 28.9426 53.3333C28.9426 52.5963 29.539 52 30.276 52H70.276C71.013 52 71.6093 52.5963 71.6093 53.3333C71.6093 54.0703 71.013 54.6667 70.276 54.6667Z" fill="#00467F"/>
<path d="M67.6092 68C66.8722 68 66.2759 67.4037 66.2759 66.6667V57.3333C66.2759 56.5963 66.8722 56 67.6092 56C68.3462 56 68.9425 56.5963 68.9425 57.3333V66.6667C68.9425 67.4037 68.3462 68 67.6092 68Z" fill="#00467F"/>
<path d="M67.6093 69.3335C67.2683 69.3335 66.927 69.2032 66.6666 68.9428L62.6666 64.9428C62.146 64.4222 62.146 63.5782 62.6666 63.0575C63.1873 62.5368 64.0313 62.5368 64.552 63.0575L67.6093 66.1148L70.6666 63.0575C71.1873 62.5368 72.0313 62.5368 72.552 63.0575C73.0726 63.5782 73.0726 64.4222 72.552 64.9428L68.552 68.9428C68.2916 69.2035 67.9503 69.3335 67.6093 69.3335Z" fill="#00467F"/>
<path d="M67.6092 50.6665C66.8722 50.6665 66.2759 50.0702 66.2759 49.3332V39.9998C66.2759 39.2628 66.8722 38.6665 67.6092 38.6665C68.3462 38.6665 68.9425 39.2628 68.9425 39.9998V49.3332C68.9425 50.0702 68.3462 50.6665 67.6092 50.6665Z" fill="#00467F"/>
<path d="M71.6093 44C71.2683 44 70.927 43.8697 70.6666 43.6093L67.6093 40.552L64.552 43.6093C64.0313 44.13 63.1873 44.13 62.6666 43.6093C62.146 43.0887 62.146 42.2447 62.6666 41.724L66.6666 37.724C67.1873 37.2033 68.0313 37.2033 68.552 37.724L72.552 41.724C73.0726 42.2447 73.0726 43.0887 72.552 43.6093C72.2916 43.87 71.9503 44 71.6093 44Z" fill="#00467F"/>
<path d="M38.2759 41.3335H43.6092V53.3335H38.2759V41.3335Z" fill="white"/>
<path d="M43.6093 54.6667H38.276C37.539 54.6667 36.9426 54.0703 36.9426 53.3333V41.3333C36.9426 40.5963 37.539 40 38.276 40H43.6093C44.3463 40 44.9426 40.5963 44.9426 41.3333V53.3333C44.9426 54.0703 44.3463 54.6667 43.6093 54.6667ZM39.6093 52H42.276V42.6667H39.6093V52Z" fill="#00467F"/>
<path d="M48.9424 53.3335H54.2757V65.3335H48.9424V53.3335Z" fill="white"/>
<path d="M54.2758 66.6667H48.9425C48.2055 66.6667 47.6091 66.0703 47.6091 65.3333V53.3333C47.6091 52.5963 48.2055 52 48.9425 52H54.2758C55.0128 52 55.6091 52.5963 55.6091 53.3333V65.3333C55.6091 66.0703 55.0128 66.6667 54.2758 66.6667ZM50.2758 64H52.9425V54.6667H50.2758V64Z" fill="#00467F"/>
<path d="M38.2759 53.3335H43.6092V73.3335H38.2759V53.3335Z" fill="white"/>
<path d="M43.6093 74.6667H38.276C37.539 74.6667 36.9426 74.0703 36.9426 73.3333V53.3333C36.9426 52.5963 37.539 52 38.276 52H43.6093C44.3463 52 44.9426 52.5963 44.9426 53.3333V73.3333C44.9426 74.0703 44.3463 74.6667 43.6093 74.6667ZM39.6093 72H42.276V54.6667H39.6093V72Z" fill="#00467F"/>
<path d="M48.9424 33.3335H54.2757V53.3335H48.9424V33.3335Z" fill="white"/>
<path d="M54.2758 54.6667H48.9425C48.2055 54.6667 47.6091 54.0703 47.6091 53.3333V33.3333C47.6091 32.5963 48.2055 32 48.9425 32H54.2758C55.0128 32 55.6091 32.5963 55.6091 33.3333V53.3333C55.6091 54.0703 55.0128 54.6667 54.2758 54.6667ZM50.2758 52H52.9425V34.6667H50.2758V52Z" fill="#00467F"/>
<path d="M43.6093 38.6667H38.276C37.539 38.6667 36.9426 38.0703 36.9426 37.3333C36.9426 36.5963 37.539 36 38.276 36H43.6093C44.3463 36 44.9426 36.5963 44.9426 37.3333C44.9426 38.0703 44.3463 38.6667 43.6093 38.6667Z" fill="#00467F"/>
<path d="M43.6093 34.6667H38.276C37.539 34.6667 36.9426 34.0703 36.9426 33.3333C36.9426 32.5963 37.539 32 38.276 32H43.6093C44.3463 32 44.9426 32.5963 44.9426 33.3333C44.9426 34.0703 44.3463 34.6667 43.6093 34.6667Z" fill="#00467F"/>
<path d="M43.6093 30.6667H38.276C37.539 30.6667 36.9426 30.0703 36.9426 29.3333C36.9426 28.5963 37.539 28 38.276 28H43.6093C44.3463 28 44.9426 28.5963 44.9426 29.3333C44.9426 30.0703 44.3463 30.6667 43.6093 30.6667Z" fill="#00467F"/>
<path d="M54.276 30.6667H48.9427C48.2057 30.6667 47.6094 30.0703 47.6094 29.3333C47.6094 28.5963 48.2057 28 48.9427 28H54.276C55.013 28 55.6094 28.5963 55.6094 29.3333C55.6094 30.0703 55.013 30.6667 54.276 30.6667Z" fill="#00467F"/>
<path d="M54.276 70.6667H48.9427C48.2057 70.6667 47.6094 70.0703 47.6094 69.3333C47.6094 68.5963 48.2057 68 48.9427 68H54.276C55.013 68 55.6094 68.5963 55.6094 69.3333C55.6094 70.0703 55.013 70.6667 54.276 70.6667Z" fill="#00467F"/>
<path d="M54.276 74.6667H48.9427C48.2057 74.6667 47.6094 74.0703 47.6094 73.3333C47.6094 72.5963 48.2057 72 48.9427 72H54.276C55.013 72 55.6094 72.5963 55.6094 73.3333C55.6094 74.0703 55.013 74.6667 54.276 74.6667Z" fill="#00467F"/>
</svg>
