<svg width="90" height="90" viewBox="0 0 90 90" fill="none" xmlns="http://www.w3.org/2000/svg">
<path fill-rule="evenodd" clip-rule="evenodd" d="M46.1738 31.3291C46.8048 31.3291 47.3164 30.8176 47.3164 30.1866V27.2016C47.3164 26.5706 46.8048 26.059 46.1738 26.059C45.5428 26.059 45.0312 26.5706 45.0312 27.2016V30.1866C45.0312 30.8176 45.5428 31.3291 46.1738 31.3291Z" fill="#00467F"/>
<path fill-rule="evenodd" clip-rule="evenodd" d="M46.1738 57.6337C46.8048 57.6337 47.3164 57.1221 47.3164 56.4911V53.506C47.3164 52.875 46.8048 52.3634 46.1738 52.3634C45.5428 52.3634 45.0312 52.875 45.0312 53.506V56.4911C45.0312 57.1221 45.5428 57.6337 46.1738 57.6337Z" fill="#00467F"/>
<path fill-rule="evenodd" clip-rule="evenodd" d="M30.3866 41.8463C30.3866 42.4773 30.8981 42.9889 31.5292 42.9889H34.5141C35.1452 42.9889 35.6567 42.4773 35.6567 41.8463C35.6567 41.2153 35.1452 40.7037 34.5141 40.7037H31.5292C30.8981 40.7037 30.3866 41.2153 30.3866 41.8463Z" fill="#00467F"/>
<path fill-rule="evenodd" clip-rule="evenodd" d="M56.6909 41.8463C56.6909 42.4773 57.2025 42.9889 57.8335 42.9889H60.8185C61.4495 42.9889 61.9611 42.4773 61.9611 41.8463C61.9611 41.2153 61.4495 40.7037 60.8185 40.7037H57.8335C57.2025 40.7037 56.6909 41.2153 56.6909 41.8463Z" fill="#00467F"/>
<path fill-rule="evenodd" clip-rule="evenodd" d="M53.6106 34.4096C54.0568 34.8558 54.7802 34.8558 55.2264 34.4096L57.3371 32.2989C57.7834 31.8527 57.7834 31.1293 57.3371 30.683C56.8909 30.2368 56.1675 30.2368 55.7213 30.683L53.6106 32.7938C53.1644 33.24 53.1644 33.9634 53.6106 34.4096Z" fill="#00467F"/>
<path fill-rule="evenodd" clip-rule="evenodd" d="M35.0105 53.0096C35.4567 53.4558 36.1801 53.4558 36.6263 53.0096L38.7371 50.8989C39.1833 50.4527 39.1833 49.7293 38.7371 49.2831C38.2909 48.8369 37.5674 48.8369 37.1212 49.2831L35.0105 51.3938C34.5643 51.84 34.5643 52.5634 35.0105 53.0096Z" fill="#00467F"/>
<path fill-rule="evenodd" clip-rule="evenodd" d="M38.737 34.4096C39.1832 33.9634 39.1832 33.24 38.737 32.7938L36.6263 30.683C36.1801 30.2368 35.4566 30.2368 35.0104 30.683C34.5642 31.1293 34.5642 31.8527 35.0104 32.2989L37.1212 34.4096C37.5674 34.8558 38.2908 34.8558 38.737 34.4096Z" fill="#00467F"/>
<path fill-rule="evenodd" clip-rule="evenodd" d="M57.3371 53.0096C57.7834 52.5634 57.7834 51.84 57.3371 51.3938L55.2264 49.2831C54.7802 48.8369 54.0568 48.8369 53.6106 49.2831C53.1644 49.7293 53.1644 50.4527 53.6106 50.8989L55.7213 53.0096C56.1675 53.4558 56.8909 53.4558 57.3371 53.0096Z" fill="#00467F"/>
<mask id="mask0_547_1280" style="mask-type:luminance" maskUnits="userSpaceOnUse" x="11" y="11" width="68" height="68">
<path d="M11.4258 11.4258H78.5742V78.5742H11.4258V11.4258Z" fill="white"/>
</mask>
<g mask="url(#mask0_547_1280)">
<path fill-rule="evenodd" clip-rule="evenodd" d="M33.3715 41.8463C33.3715 48.9169 39.1033 54.6486 46.1737 54.6486C53.2442 54.6486 58.976 48.9169 58.976 41.8463C58.976 34.7758 53.2442 29.044 46.1737 29.044C39.1033 29.044 33.3715 34.7758 33.3715 41.8463ZM46.1737 52.3634C40.3653 52.3634 35.6566 47.6548 35.6566 41.8463C35.6566 36.0379 40.3653 31.3292 46.1737 31.3292C51.9821 31.3292 56.6909 36.0379 56.6909 41.8463C56.6909 47.6548 51.9821 52.3634 46.1737 52.3634Z" fill="#00467F"/>
<path fill-rule="evenodd" clip-rule="evenodd" d="M49.1481 41.8463C49.1481 42.4773 49.6596 42.9888 50.2906 42.9888H52.911C53.542 42.9888 54.0536 42.4773 54.0536 41.8463C54.0536 41.2152 53.542 40.7037 52.911 40.7037H50.2906C49.6596 40.7037 49.1481 41.2152 49.1481 41.8463Z" fill="#00467F"/>
<path fill-rule="evenodd" clip-rule="evenodd" d="M40.9142 41.8463C40.9142 44.751 43.2689 47.1059 46.1737 47.1059C49.0785 47.1059 51.4332 44.751 51.4332 41.8463C51.4332 38.9417 49.0785 36.5868 46.1737 36.5868C43.2689 36.5868 40.9142 38.9417 40.9142 41.8463ZM46.1737 44.8207C44.531 44.8207 43.1993 43.489 43.1993 41.8463C43.1993 40.2037 44.531 38.8719 46.1737 38.8719C47.8164 38.8719 49.148 40.2037 49.148 41.8463C49.148 43.489 47.8163 44.8207 46.1737 44.8207Z" fill="#00467F"/>
<path fill-rule="evenodd" clip-rule="evenodd" d="M67.3411 35.4592C67.3411 36.0902 67.8526 36.6017 68.4836 36.6017H74.4369C75.0679 36.6017 75.5795 36.0902 75.5795 35.4592C75.5795 34.8281 75.0679 34.3166 74.4369 34.3166H68.4836C67.8526 34.3166 67.3411 34.8281 67.3411 35.4592Z" fill="#00467F"/>
<path fill-rule="evenodd" clip-rule="evenodd" d="M67.3411 48.2335C67.3411 48.8645 67.8526 49.3761 68.4836 49.3761H74.4369C75.0679 49.3761 75.5795 48.8645 75.5795 48.2335C75.5795 47.6025 75.0679 47.0909 74.4369 47.0909H68.4836C67.8526 47.0909 67.3411 47.6025 67.3411 48.2335Z" fill="#00467F"/>
<path fill-rule="evenodd" clip-rule="evenodd" d="M20.3735 76.2791C20.3735 77.6343 21.4722 78.7332 22.8276 78.7332H28.646C30.0015 78.7332 31.1001 77.6343 31.1001 76.2791V71.2833C31.1001 70.6522 30.5886 70.1407 29.9575 70.1407C29.3265 70.1407 28.815 70.6522 28.815 71.2833V76.2791C28.815 76.3724 28.7393 76.4481 28.646 76.4481H22.8276C22.7344 76.4481 22.6587 76.3724 22.6587 76.2791V71.2833C22.6587 70.6522 22.1471 70.1407 21.5161 70.1407C20.8851 70.1407 20.3735 70.6522 20.3735 71.2833V76.2791Z" fill="#00467F"/>
<path fill-rule="evenodd" clip-rule="evenodd" d="M58.8997 76.2791C58.8997 77.6343 59.9983 78.7332 61.3537 78.7332H67.1722C68.5276 78.7332 69.6262 77.6343 69.6262 76.2791V71.2833C69.6262 70.6522 69.1147 70.1407 68.4837 70.1407C67.8526 70.1407 67.3411 70.6522 67.3411 71.2833V76.2791C67.3411 76.3724 67.2654 76.4481 67.1722 76.4481H61.3537C61.2605 76.4481 61.1848 76.3724 61.1848 76.2791V71.2833C61.1848 70.6522 60.6733 70.1407 60.0422 70.1407C59.4112 70.1407 58.8997 70.6522 58.8997 71.2833V76.2791Z" fill="#00467F"/>
<path fill-rule="evenodd" clip-rule="evenodd" d="M14.4204 58.7786C14.4204 59.4096 14.932 59.9211 15.563 59.9211H23.6107C24.9661 59.9211 26.0648 58.8224 26.0648 57.4671V49.545C26.0648 48.1898 24.9661 47.0909 23.6107 47.0909H15.563C14.932 47.0909 14.4204 47.6025 14.4204 48.2335C14.4204 48.8645 14.932 49.3761 15.563 49.3761H23.6107C23.7039 49.3761 23.7796 49.4517 23.7796 49.545V57.4671C23.7796 57.5604 23.704 57.636 23.6107 57.636H15.563C14.932 57.636 14.4204 58.1475 14.4204 58.7786Z" fill="#00467F"/>
<path fill-rule="evenodd" clip-rule="evenodd" d="M14.4204 35.4591C14.4204 36.0901 14.932 36.6017 15.563 36.6017H23.6107C24.9661 36.6017 26.0648 35.503 26.0648 34.1476V26.2255C26.0648 24.8704 24.9661 23.7715 23.6107 23.7715H15.563C14.932 23.7715 14.4204 24.283 14.4204 24.914C14.4204 25.5451 14.932 26.0566 15.563 26.0566H23.6107C23.7039 26.0566 23.7796 26.1323 23.7796 26.2255V34.1476C23.7796 34.2409 23.704 34.3165 23.6107 34.3165H15.563C14.932 34.3165 14.4204 34.8281 14.4204 35.4591Z" fill="#00467F"/>
<path fill-rule="evenodd" clip-rule="evenodd" d="M22.8276 64.1875C22.7344 64.1875 22.6587 64.1118 22.6587 64.0186V59.9212H23.6107C24.9661 59.9212 26.0648 58.8223 26.0648 57.4672V49.5451C26.0648 48.1895 24.966 47.091 23.6107 47.091H22.6587V36.6017H23.6107C24.9661 36.6017 26.0648 35.503 26.0648 34.1476V26.2256C26.0648 24.8704 24.9661 23.7715 23.6107 23.7715H22.6587V19.6741C22.6587 19.5809 22.7344 19.5052 22.8276 19.5052H36.5955C37.2266 19.5052 37.7381 18.9937 37.7381 18.3626C37.7381 17.7316 37.2266 17.2201 36.5955 17.2201H22.8276C21.4724 17.2201 20.3735 18.3187 20.3735 19.6741V24.9141C20.3735 25.5451 20.8851 26.0566 21.5161 26.0566H23.6107C23.7039 26.0566 23.7796 26.1323 23.7796 26.2256V34.1476C23.7796 34.2409 23.704 34.3165 23.6107 34.3165H21.5161C20.8851 34.3165 20.3735 34.8281 20.3735 35.4591V48.2336C20.3735 48.8646 20.8851 49.3762 21.5161 49.3762H23.6107C23.7041 49.3762 23.7796 49.4517 23.7796 49.5451V57.4672C23.7796 57.5604 23.7039 57.6361 23.6107 57.6361H21.5161C20.8851 57.6361 20.3735 58.1476 20.3735 58.7786V64.0186C20.3735 65.374 21.4724 66.4727 22.8276 66.4727H67.1722C68.5276 66.4727 69.6263 65.374 69.6263 64.0186V19.6741C69.6263 18.3188 68.5276 17.2201 67.1722 17.2201H40.8824C40.2514 17.2201 39.7398 17.7316 39.7398 18.3626C39.7398 18.9937 40.2514 19.5052 40.8824 19.5052H67.1722C67.2655 19.5052 67.3411 19.5808 67.3411 19.6741V64.0186C67.3411 64.1119 67.2655 64.1875 67.1722 64.1875H22.8276Z" fill="#00467F"/>
<path fill-rule="evenodd" clip-rule="evenodd" d="M74.4368 57.7777C75.0679 57.7777 75.5794 57.2662 75.5794 56.6351V15.6882C75.5794 13.2462 73.5999 11.2669 71.1581 11.2669H18.8417C16.3999 11.2669 14.4204 13.2462 14.4204 15.6882V39.703C14.4204 40.334 14.932 40.8455 15.563 40.8455C16.194 40.8455 16.7056 40.334 16.7056 39.703V15.6882C16.7056 14.5084 17.6619 13.5521 18.8417 13.5521H71.1581C72.3379 13.5521 73.2942 14.5084 73.2942 15.6882V56.6351C73.2942 57.2662 73.8058 57.7777 74.4368 57.7777Z" fill="#00467F"/>
<path fill-rule="evenodd" clip-rule="evenodd" d="M14.4204 68.0045C14.4204 70.4465 16.3999 72.4258 18.8417 72.4258H71.1581C73.5999 72.4258 75.5794 70.4465 75.5794 68.0045V60.9219C75.5794 60.2909 75.0679 59.7794 74.4368 59.7794C73.8058 59.7794 73.2942 60.2909 73.2942 60.9219V68.0045C73.2942 69.1844 72.3379 70.1407 71.1581 70.1407H18.8417C17.6619 70.1407 16.7056 69.1844 16.7056 68.0045V43.9898C16.7056 43.3588 16.194 42.8472 15.563 42.8472C14.932 42.8472 14.4204 43.3588 14.4204 43.9898V68.0045Z" fill="#00467F"/>
</g>
</svg>
