<svg width="90" height="90" viewBox="0 0 90 90" fill="none" xmlns="http://www.w3.org/2000/svg">
<path d="M81.0591 48.7341C79.4847 47.436 77.2569 47.3979 75.537 48.4845C70.083 47.8962 66.4551 50.3832 62.6256 53.0256C62.1279 53.3685 61.6074 53.7183 61.089 54.0669C60.201 52.8405 58.7808 52.0659 57.1704 52.0659H34.0002C29.6619 52.0659 25.5825 53.7546 22.5159 56.8224C22.4574 56.8809 22.4046 56.9454 22.359 57.0159L18.0255 63.6639L12.6276 66.768C12.0534 67.0986 11.8554 67.8321 12.1857 68.4075C12.5172 68.9817 13.2498 69.1773 13.8252 68.8494L19.4724 65.601C19.6365 65.5062 19.776 65.3748 19.8789 65.2155L24.2991 58.4328C26.9031 55.8735 30.3435 54.4659 33.9999 54.4659H57.1701C58.5471 54.4659 59.3862 55.4865 59.583 56.4357C59.8665 57.8055 58.9701 59.0853 57.1842 59.8587C56.3931 60.201 55.4898 60.3756 54.4971 60.3756H47.5068C45.1266 60.3756 43.1895 62.3115 43.1895 64.6917C43.1895 67.0719 45.1266 69.009 47.5068 69.009H54.03C57.4776 69.009 60.8022 67.5618 63.153 65.0376L76.2849 50.9316C77.1639 49.9905 78.6204 49.8336 79.5321 50.586C80.0184 50.9868 80.3148 51.5505 80.3652 52.1715C80.4168 52.7925 80.22 53.3937 79.8108 53.8638L65.7096 70.0638C63.6963 72.3747 60.7842 73.7013 57.7197 73.7013H37.7358C35.5971 73.7013 33.4431 74.1819 31.5096 75.09C30.0975 75.7521 25.7031 79.965 24.3906 81.24C23.9148 81.7017 23.9031 82.4622 24.3648 82.9368C24.6003 83.1795 24.9132 83.3013 25.2261 83.3013C25.5273 83.3013 25.8285 83.1888 26.0616 82.9626C28.6152 80.4816 31.8144 77.5977 32.5293 77.2626C34.1466 76.5033 35.9478 76.1013 37.7358 76.1013H57.72C61.4793 76.1013 65.0502 74.4747 67.5192 71.6388L81.6204 55.4388C82.4583 54.4767 82.8627 53.2461 82.7571 51.9747C82.653 50.703 82.0506 49.5522 81.0591 48.7341ZM61.3974 63.4014C59.499 65.4393 56.8131 66.6087 54.0297 66.6087H47.5071C46.4502 66.6087 45.5898 65.7486 45.5898 64.6914C45.5898 63.6342 46.4499 62.7753 47.5071 62.7753H54.4974C55.8204 62.7753 57.0462 62.535 58.1397 62.0604C61.3353 60.6753 62.214 58.2834 61.9836 56.3583C62.67 55.9047 63.3399 55.4487 63.9885 55.0011C67.0995 52.8531 69.6858 51.0996 73.0848 50.847L61.3974 63.4014Z" fill="black"/>
<path d="M41.1123 49.1454C42.3216 50.2704 43.8732 50.8329 45.4248 50.8317C46.9752 50.8317 48.5268 50.2692 49.7349 49.1454C56.1405 43.1889 66.8841 32.0232 66.8841 24.1692C66.8841 17.7357 61.2966 12.5007 54.4293 12.5007C50.9841 12.5007 47.7741 13.8168 45.4245 16.1523C43.0749 13.8168 39.8652 12.5007 36.4197 12.5007C29.5512 12.5007 23.9637 17.7354 23.9637 24.1692C23.9643 32.0208 34.7079 43.1877 41.1123 49.1454ZM36.42 14.901C39.6156 14.901 42.5559 16.2837 44.4885 18.6954C44.9433 19.2648 45.9066 19.2648 46.3611 18.6954C48.2934 16.2837 51.2337 14.901 54.4296 14.901C59.9736 14.901 64.4844 19.0587 64.4844 24.1695C64.4844 29.2413 58.5126 37.7046 48.1005 47.388C46.6005 48.7824 44.2485 48.7848 42.7485 47.388H42.7473C32.3364 37.7025 26.3646 29.2404 26.3646 24.1695C26.3643 19.0587 30.8748 14.901 36.42 14.901Z" fill="black"/>
<path d="M54.0264 19.701C57.0042 19.701 59.4264 22.1232 59.4264 25.101C59.4264 25.7643 59.9631 26.301 60.6264 26.301C61.2897 26.301 61.8264 25.7643 61.8264 25.101C61.8264 20.8002 58.3272 17.301 54.0264 17.301C53.3631 17.301 52.8264 17.8377 52.8264 18.501C52.8264 19.1643 53.3631 19.701 54.0264 19.701Z" fill="black"/>
<path d="M39.3861 38.1813L35.7861 33.3813C35.3889 32.8494 34.6353 32.7438 34.1067 33.141C33.5757 33.5382 33.468 34.2906 33.8664 34.8204L37.4664 39.6204C37.7019 39.9357 38.0616 40.101 38.4273 40.101C38.6781 40.101 38.9301 40.0224 39.1458 39.8607C39.6768 39.4635 39.7845 38.7111 39.3861 38.1813Z" fill="black"/>
</svg>
