<svg width="90" height="90" viewBox="0 0 90 90" fill="none" xmlns="http://www.w3.org/2000/svg">
<path d="M76.9332 20.4184C75.5691 19.5319 73.8705 19.3978 72.3852 20.0581L70.9965 20.6752C67.8876 22.0567 65.6979 24.8851 65.139 28.2409L63.6033 37.4524L50.5005 47.5024C48.1725 49.1959 46.782 51.9256 46.782 54.805V72.916C46.782 73.5787 47.3193 74.116 47.982 74.116H59.9094C60.5721 74.116 61.1094 73.5787 61.1094 72.916C61.1094 68.7817 63.0792 64.8265 66.3792 62.3362L69.7161 59.8168C75.5976 55.6666 79.1094 48.8914 79.1094 41.6926V24.4279C79.1094 22.8025 78.2955 21.3037 76.9332 20.4184ZM67.506 28.6348C67.8441 26.6041 68.9748 24.8371 70.6092 23.6638L69.6918 34.6762C68.6202 34.3651 67.4274 34.5304 66.4086 35.2183L67.506 28.6348ZM76.7094 41.6926C76.7094 48.112 73.5777 54.1549 68.3013 57.8785L64.9332 60.4204C61.3566 63.1198 59.103 67.2766 58.7562 71.716H49.182V54.8047C49.182 52.6906 50.2026 50.686 51.9366 49.4245L65.4612 39.0517L67.788 37.1791C68.3862 36.763 69.1596 36.8452 69.6717 37.3801C70.2417 37.9765 70.2969 38.9305 69.8007 39.5989L59.7963 53.0509C59.4009 53.5822 59.511 54.334 60.0429 54.7297C60.5754 55.1257 61.3266 55.015 61.7217 54.4831L71.7267 41.0311C72.7251 39.6877 72.774 37.8625 71.9514 36.4633L73.1268 22.3552L73.3602 22.2514C74.1102 21.9175 74.9364 21.9841 75.6255 22.4308C76.3146 22.8784 76.7094 23.6068 76.7094 24.4282V41.6926Z" fill="url(#paint0_linear_458_7475)"/>
<path d="M39.3441 47.5216L26.208 37.4089L24.6798 28.2406C24.1209 24.8848 21.9312 22.0567 18.8223 20.6755L17.4341 20.0584C15.9494 19.3981 14.2485 19.5328 12.8856 20.4181C11.5226 21.3034 10.7094 22.8028 10.7094 24.4276V41.6923C10.7094 48.8911 14.2208 55.6669 20.0715 59.7943L23.4396 62.3361C26.7396 64.8264 28.7094 68.7814 28.7094 72.916C28.7094 73.5787 29.2467 74.116 29.9094 74.116H41.8368C42.4995 74.116 43.0368 73.5787 43.0368 72.916V54.8047C43.0365 51.9253 41.6463 49.1956 39.3441 47.5216ZM22.3125 28.6354L23.4087 35.2144L23.4039 35.2102C22.4145 34.5202 21.2123 34.3552 20.1263 34.6756L19.2087 23.6638C20.8434 24.8371 21.9744 26.6041 22.3125 28.6354ZM40.6365 71.716H31.0623C30.7155 67.2763 28.4618 63.1198 24.8852 60.4204L21.4863 57.8563C16.2411 54.1549 13.109 48.1126 13.109 41.6926V24.4279C13.109 23.6065 13.5039 22.8787 14.193 22.4311C14.8815 21.9829 15.7088 21.9178 16.4588 22.2511L16.6914 22.3546L17.8671 36.4639C17.0445 37.8628 17.0933 39.688 18.0923 41.0311L28.0968 54.4831C28.491 55.015 29.2422 55.1248 29.7756 54.7297C30.3075 54.3343 30.4178 53.5825 30.0221 53.0509L20.0183 39.5989C19.5215 38.9302 19.5764 37.9765 20.1473 37.3801C20.6594 36.8452 21.4335 36.7624 21.975 37.1374L37.9061 49.4428C39.6158 50.6863 40.6368 52.6906 40.6368 54.8047L40.6365 71.716Z" fill="url(#paint1_linear_458_7475)"/>
<path d="M61.0025 26.5864C61.0025 20.7469 56.6174 15.9961 51.2267 15.9961C49.1636 15.9961 47.1698 16.7026 45.509 18.0058C43.8485 16.7026 41.8544 15.9961 39.7913 15.9961C34.4006 15.9961 30.0155 20.7469 30.0155 26.5864C30.0155 32.6191 40.9655 41.9713 44.801 44.7721C45.0119 44.9263 45.2603 45.0031 45.5087 45.0031C45.7571 45.0031 46.0055 44.9263 46.2164 44.7721C50.0525 41.9716 61.0025 32.6194 61.0025 26.5864ZM45.5093 42.3049C40.5764 38.539 32.4158 30.742 32.4158 26.5864C32.4158 22.0699 35.7245 18.3961 39.7916 18.3961C41.5829 18.3961 43.3148 19.1278 44.6684 20.4574C45.1349 20.9155 45.8837 20.9155 46.3499 20.4574C47.7035 19.1278 49.4354 18.3961 51.2267 18.3961C55.2938 18.3961 58.6025 22.0699 58.6025 26.5864C58.6025 30.742 50.4422 38.539 45.5093 42.3049Z" fill="url(#paint2_linear_458_7475)"/>
<defs>
<linearGradient id="paint0_linear_458_7475" x1="62.9457" y1="19.6434" x2="62.9457" y2="74.116" gradientUnits="userSpaceOnUse">
<stop stop-color="#058FFF"/>
<stop offset="1" stop-color="#00467F"/>
</linearGradient>
<linearGradient id="paint1_linear_458_7475" x1="26.8731" y1="19.6438" x2="26.8731" y2="74.116" gradientUnits="userSpaceOnUse">
<stop stop-color="#058FFF"/>
<stop offset="1" stop-color="#00467F"/>
</linearGradient>
<linearGradient id="paint2_linear_458_7475" x1="45.509" y1="15.9961" x2="45.509" y2="45.0031" gradientUnits="userSpaceOnUse">
<stop stop-color="#058FFF"/>
<stop offset="1" stop-color="#00467F"/>
</linearGradient>
</defs>
</svg>
