<svg width="90" height="90" viewBox="0 0 90 90" fill="none" xmlns="http://www.w3.org/2000/svg">
<path d="M78.6594 45.8331C77.085 44.535 74.8572 44.4969 73.1373 45.5835C67.6857 44.9952 64.0542 47.4822 60.2235 50.1258C59.7282 50.4675 59.2038 50.8161 58.6872 51.1632C57.7989 49.9383 56.3799 49.1649 54.7707 49.1649H31.6005C27.2622 49.1649 23.1828 50.8536 20.1162 53.9214C20.0577 53.9799 20.0049 54.0444 19.9593 54.1149L15.6258 60.7629L10.2282 63.8673C9.65404 64.1979 9.45604 64.9314 9.78634 65.5068C10.1178 66.081 10.8504 66.2766 11.4258 65.9487L17.0727 62.7C17.2368 62.6052 17.3763 62.4738 17.4792 62.3145L21.8994 55.5318C24.5034 52.9725 27.9438 51.5649 31.6002 51.5649H54.7704C56.1474 51.5649 56.9865 52.5855 57.1833 53.5347C57.4668 54.9045 56.5704 56.1843 54.7845 56.9577C53.9934 57.3 53.0901 57.4746 52.0974 57.4746H45.1071C42.7269 57.4746 40.7898 59.4105 40.7898 61.7907C40.7898 64.1709 42.7269 66.108 45.1071 66.108H51.6297C55.0773 66.108 58.4019 64.6608 60.7527 62.1366L73.8846 48.0306C74.7648 47.0895 76.2201 46.9326 77.1318 47.685C77.6181 48.0858 77.9145 48.6495 77.9649 49.2705C78.0165 49.8915 77.8197 50.4927 77.4105 50.9628L63.3093 67.1628C61.2969 69.4734 58.3848 70.8 55.3203 70.8H35.3364C33.1977 70.8 31.0437 71.2806 29.1102 72.1887C27.6981 72.8508 23.3037 77.0637 21.9912 78.3387C21.5154 78.8004 21.5037 79.5609 21.9654 80.0355C22.2009 80.2782 22.5138 80.4 22.8267 80.4C23.1279 80.4 23.4291 80.2875 23.6622 80.0613C26.2158 77.5803 29.415 74.6964 30.1299 74.3613C31.7472 73.602 33.5484 73.2 35.3364 73.2H55.3203C59.0796 73.2 62.6505 71.5734 65.1195 68.7375L79.2207 52.5375C80.0586 51.5754 80.463 50.3448 80.3574 49.0734C80.2533 47.802 79.6509 46.6512 78.6594 45.8331ZM58.9977 60.5004C57.0993 62.5383 54.4134 63.7077 51.63 63.7077H45.1074C44.0505 63.7077 43.1901 62.8476 43.1901 61.7904C43.1901 60.7332 44.0502 59.8743 45.1074 59.8743H52.0977C53.4207 59.8743 54.6465 59.634 55.74 59.1594C58.9374 57.7734 59.8152 55.3797 59.5836 53.4543C60.267 53.0022 60.9405 52.5468 61.5864 52.1013C64.6989 49.9539 67.2837 48.1989 70.6851 47.946L58.9977 60.5004Z" fill="#00467F"/>
<path d="M25.3098 29.2383C25.4904 29.6976 25.9332 30 26.4267 30H30.0267V45.6C30.0267 46.2633 30.5634 46.8 31.2267 46.8H55.2267C55.89 46.8 56.4267 46.2633 56.4267 45.6V30H60.0267C60.5202 30 60.963 29.6976 61.1436 29.2383C61.3242 28.779 61.2045 28.2564 60.8436 27.921L44.0436 12.321C43.5819 11.892 42.8718 11.892 42.4101 12.321L25.6101 27.921C25.2489 28.2564 25.1295 28.779 25.3098 29.2383ZM45.6267 44.4H40.8267V36H45.6267V44.4ZM43.2267 14.8371L56.9703 27.6H55.2267C54.5634 27.6 54.0267 28.1367 54.0267 28.8V44.4H48.0267V34.8C48.0267 34.1367 47.49 33.6 46.8267 33.6H39.6267C38.9634 33.6 38.4267 34.1367 38.4267 34.8V44.4H32.4267V28.8C32.4267 28.1367 31.89 27.6 31.2267 27.6H29.4831L43.2267 14.8371Z" fill="#00467F"/>
<path d="M43.2267 28.8C45.2118 28.8 46.8267 27.1851 46.8267 25.2C46.8267 23.2149 45.2118 21.6 43.2267 21.6C41.2416 21.6 39.6267 23.2149 39.6267 25.2C39.6267 27.1851 41.2416 28.8 43.2267 28.8ZM43.2267 24C43.8888 24 44.4267 24.5379 44.4267 25.2C44.4267 25.8621 43.8888 26.4 43.2267 26.4C42.5646 26.4 42.0267 25.8621 42.0267 25.2C42.0267 24.5379 42.5646 24 43.2267 24Z" fill="#00467F"/>
</svg>
