<svg width="80" height="80" viewBox="0 0 80 80" fill="none" xmlns="http://www.w3.org/2000/svg">
<path d="M55.9238 43.2803C55.5894 43.0907 55.179 43.0955 54.8489 43.2939L43.1467 50.3147C42.9041 50.4601 42.7291 50.6961 42.6614 50.9705C42.5926 51.2449 42.6353 51.5355 42.7811 51.7782L44.9769 55.4366C45.2801 55.9409 45.9352 56.1059 46.4403 55.8022L48.6905 54.4523C46.4499 59.4534 41.6904 63.0742 36.1976 63.8206V58.0747L37.9038 56.795C38.1726 56.5939 38.331 56.2779 38.331 55.9419V46.3419C38.331 46.0059 38.1726 45.6899 37.9038 45.4889L36.1976 44.2091V37.8083H39.3976C39.9872 37.8083 40.4643 37.3307 40.4643 36.7417V32.475C40.4643 31.8859 39.9872 31.4083 39.3976 31.4083H36.8278C38.7467 30.2585 40.0585 28.295 40.3819 26.075H40.4643C42.447 26.075 44.1027 24.7099 44.5795 22.875H49.6299C51.4854 22.875 53.0027 21.4726 53.2203 19.675H58.1632C60.0187 19.675 61.5361 18.2726 61.7537 16.475H66.6966C68.7009 16.475 70.331 14.8449 70.331 12.8406V10.5094C70.331 8.50513 68.7009 6.875 66.6966 6.875H60.0987C58.2433 6.875 56.7259 8.2774 56.5083 10.075H51.5654C49.7099 10.075 48.1926 11.4774 47.975 13.275H43.0321C41.1766 13.275 39.6593 14.6774 39.4417 16.475H35.131C34.0385 16.475 33.051 16.8995 32.2955 17.5771C28.507 17.9326 25.531 21.1281 25.531 25.0083C25.531 27.6569 26.9457 30.0771 29.1675 31.4083H26.5977C26.0081 31.4083 25.531 31.8859 25.531 32.475V36.7417C25.531 37.3307 26.0081 37.8083 26.5977 37.8083H29.7977V44.2089L28.0915 45.4886C27.8227 45.6897 27.6643 46.0057 27.6643 46.3417V55.9417C27.6643 56.2777 27.8227 56.5937 28.0915 56.7947L29.7977 58.0745V63.8203C24.3049 63.0739 19.5457 59.4531 17.3049 54.4521L19.5547 55.8019C20.0601 56.1057 20.7153 55.9406 21.0182 55.4363L23.2139 51.7779C23.3598 51.5353 23.4025 51.2446 23.3337 50.9702C23.2659 50.6958 23.091 50.4598 22.8483 50.3145L11.1467 43.2937C10.8166 43.0953 10.4062 43.0905 10.0718 43.2801C9.73738 43.4691 9.53125 43.8238 9.53125 44.2081V47.9758C9.53125 59.571 18.3542 69.1649 29.7979 70.2473V70.875C29.7979 71.2793 30.0259 71.6483 30.3875 71.8291L32.5209 72.8958C32.6707 72.9707 32.8345 73.0083 32.9979 73.0083C33.1614 73.0083 33.3251 72.9707 33.475 72.8958L35.6083 71.8291C35.9697 71.6483 36.1979 71.2793 36.1979 70.875V70.2473C47.6417 69.1649 56.4646 59.5713 56.4646 47.9758V44.2083C56.4643 43.8241 56.2579 43.4694 55.9238 43.2803ZM40.4643 23.9417H40.3792C40.0528 21.6758 38.7091 19.7401 36.8238 18.6083H39.3979V19.2406C39.3979 21.0075 40.6659 22.4801 42.3393 22.8049C41.9798 23.4777 41.2787 23.9417 40.4643 23.9417ZM42.5902 20.6678C41.979 20.4779 41.531 19.9137 41.531 19.2406V18.9051C42.1451 19.2633 42.5638 19.9131 42.5902 20.6678ZM50.0643 15.4801C50.6795 15.6675 51.131 16.2339 51.131 16.9094V17.4702C50.5158 17.2827 50.0643 16.7163 50.0643 16.0409V15.4801ZM58.5977 12.2801C59.2129 12.4675 59.6643 13.0339 59.6643 13.7094V14.2702C59.0491 14.0827 58.5977 13.5163 58.5977 12.8409V12.2801ZM60.0987 9.00833H66.6966C67.5246 9.00833 68.1977 9.68167 68.1977 10.5094V12.8406C68.1977 13.6683 67.5249 14.3417 66.6966 14.3417H61.7976V13.7094C61.7976 11.8734 60.4246 10.367 58.6539 10.1246C58.8249 9.48407 59.4043 9.00833 60.0987 9.00833ZM51.5654 12.2083H56.4643V12.8406C56.4643 14.6766 57.8374 16.183 59.6081 16.4254C59.4369 17.0659 58.8577 17.5417 58.1632 17.5417H53.2643V16.9094C53.2643 15.0734 51.8913 13.567 50.1206 13.3246C50.2915 12.6841 50.871 12.2083 51.5654 12.2083ZM43.0321 15.4083H47.931V16.0406C47.931 17.8766 49.3041 19.383 51.0747 19.6254C50.9035 20.2659 50.3243 20.7417 49.6299 20.7417H44.731C44.731 18.7697 43.3798 17.1219 41.5587 16.635C41.6883 15.9385 42.2979 15.4083 43.0321 15.4083ZM30.8643 35.675H27.6643V33.5417H30.8643C31.4539 33.5417 31.931 33.0641 31.931 32.475V31.035C31.931 30.5835 31.6467 30.1809 31.2217 30.0297C29.0937 29.2739 27.6643 27.2563 27.6643 25.0083C27.6643 22.8006 29.0134 20.9022 30.9299 20.0929C30.8971 20.3059 30.8643 20.5195 30.8643 20.7417V21.8083C30.8643 22.0713 30.8963 22.3265 30.9419 22.5766C30.2481 23.1641 29.7977 24.0302 29.7977 25.0083C29.7977 26.7729 31.2331 28.2083 32.9977 28.2083C34.7622 28.2083 36.1976 26.7729 36.1976 25.0083C36.1976 23.2438 34.7622 21.8083 32.9977 21.8083V20.7417C32.9977 20.363 33.1051 20.0121 33.279 19.7035C36.0867 19.8534 38.331 22.1641 38.331 25.0083C38.331 27.2563 36.9019 29.2739 34.7737 30.0297C34.3486 30.1806 34.0643 30.5833 34.0643 31.035V32.475C34.0643 33.0641 34.5414 33.5417 35.131 33.5417H38.331V35.675H35.131C34.5414 35.675 34.0643 36.1526 34.0643 36.7417V42.6089L33.6371 42.2886C33.2579 42.0043 32.7371 42.0043 32.3579 42.2886L31.9307 42.6089V36.7417C31.931 36.1526 31.4539 35.675 30.8643 35.675ZM31.9971 24.6809C32.4579 25.1833 33.0334 25.5691 33.6865 25.8059C33.4998 25.9675 33.2635 26.075 32.9977 26.075C32.4091 26.075 31.931 25.5963 31.931 25.0083C31.931 24.8923 31.9627 24.7857 31.9971 24.6809ZM29.7977 46.875L32.9977 44.475L36.1976 46.875V55.4083L32.9977 57.8083L29.7977 55.4083V46.875ZM54.331 47.9761C54.331 58.7734 45.8737 67.6526 35.0779 68.1902C34.5102 68.2182 34.0643 68.687 34.0643 69.2553V70.2158L32.9977 70.7491L31.931 70.2158V69.2553C31.931 68.687 31.4851 68.2182 30.9174 68.1902C20.1216 67.6526 11.6643 58.7737 11.6643 47.9761V46.0923L20.8363 51.595L19.7385 53.4241L15.9019 51.1219C15.5331 50.9017 15.0675 50.923 14.7195 51.1777C14.3737 51.4334 14.2142 51.8721 14.3163 52.2902C16.1819 59.911 22.9601 65.5739 30.7977 66.0617C31.1009 66.0809 31.3801 65.9758 31.5945 65.7742C31.8089 65.5726 31.931 65.2913 31.931 64.9971V59.6747L32.3582 59.995C32.5478 60.1371 32.7729 60.2086 32.9977 60.2086C33.2225 60.2086 33.4478 60.1371 33.6371 59.995L34.0643 59.6747V64.9971C34.0643 65.2915 34.1862 65.5726 34.4009 65.7742C34.6145 65.9758 34.8915 66.0803 35.1976 66.0617C43.0353 65.5742 49.8134 59.9113 51.679 52.2902C51.7811 51.8721 51.6217 51.4334 51.2758 51.1777C50.9288 50.923 50.4643 50.9017 50.0934 51.1219L46.2569 53.4241L45.159 51.595L54.331 46.0923V47.9761Z" fill="black"/>
</svg>
