<svg width="90" height="90" viewBox="0 0 90 90" fill="none" xmlns="http://www.w3.org/2000/svg">
<path d="M64.4396 69.2376C64.1213 69.2376 63.8162 69.111 63.5912 68.886L49.8341 55.1283C49.3655 54.6597 49.3655 53.9001 49.8341 53.4315L53.4341 49.8315C53.8841 49.3815 54.6809 49.3815 55.1309 49.8315L68.888 63.5892C69.3566 64.0578 69.3566 64.8174 68.888 65.286L65.288 68.886C65.063 69.111 64.7576 69.2376 64.4396 69.2376ZM52.3793 54.2799L64.4396 66.3408L66.3428 64.4376L54.2825 52.3767L52.3793 54.2799Z" fill="#00467F"/>
<path d="M77.9383 77.9361C76.2814 79.593 73.5952 79.593 71.9383 77.9361L60.5134 66.5112L66.5134 60.5112L77.9383 71.9361C79.5952 73.593 79.5952 76.2792 77.9383 77.9361Z" fill="white"/>
<path d="M74.9379 80.3799C73.4841 80.3799 72.1173 79.8126 71.0895 78.7851L59.6649 67.3593C59.1963 66.8907 59.1963 66.1311 59.6649 65.6625L65.6649 59.6625C65.8899 59.4375 66.1953 59.3109 66.5133 59.3109C66.8316 59.3109 67.1367 59.4375 67.3617 59.6625L78.7863 71.0883C80.9085 73.2105 80.9085 76.6629 78.7863 78.7851C77.7585 79.8126 76.3923 80.3799 74.9379 80.3799ZM62.2101 66.5106L72.7863 77.088C73.9359 78.2364 75.9399 78.2364 77.0895 77.088C78.276 75.9021 78.276 73.9707 77.0895 72.7848L66.5133 62.2074L62.2101 66.5106Z" fill="#00467F"/>
<path d="M37.2086 63.6066C51.7889 63.6066 63.6086 51.787 63.6086 37.2066C63.6086 22.6263 51.7889 10.8066 37.2086 10.8066C22.6283 10.8066 10.8086 22.6263 10.8086 37.2066C10.8086 51.787 22.6283 63.6066 37.2086 63.6066Z" fill="white"/>
<path d="M37.2087 64.7937C30.141 64.7937 23.0736 62.103 17.6928 56.7231C6.9315 45.9618 6.9315 28.4517 17.6928 17.6904C28.4541 6.93034 45.963 6.93034 56.7243 17.6904C67.4856 28.4517 67.4856 45.9618 56.7243 56.7231C51.3438 62.1033 44.2764 64.7937 37.2087 64.7937ZM37.2087 12.0186C30.7557 12.0186 24.3024 14.475 19.3899 19.3872C9.5643 29.2134 9.5643 45.2001 19.3899 55.0263C29.2143 64.8489 45.2022 64.8489 55.0278 55.0263C64.8534 45.2001 64.8534 29.2134 55.0278 19.3872C50.1153 14.4747 43.6617 12.0186 37.2087 12.0186Z" fill="#00467F"/>
<path d="M37.2086 60.0066C31.1183 60.0066 25.3925 57.6348 21.0866 53.328C18.5096 50.7522 16.5689 47.5659 15.4751 44.1123C15.2747 43.4808 15.6245 42.8067 16.2563 42.6063C16.8884 42.4047 17.5628 42.7551 17.7626 43.3878C18.7553 46.5192 20.4443 49.293 22.7834 51.6309C26.6366 55.4841 31.7594 57.6063 37.2086 57.6063C42.6572 57.6063 47.7806 55.4841 51.6338 51.6309C59.5874 43.6773 59.5874 30.7353 51.6338 22.7817C47.7806 18.9285 42.6572 16.8063 37.2086 16.8063C31.7594 16.8063 26.6366 18.9285 22.7834 22.7817C19.0076 26.5575 16.8866 31.5765 16.811 36.9156C16.8017 37.5789 16.2743 38.0805 15.5939 38.0991C14.9312 38.0898 14.4014 37.5447 14.411 36.8826C14.4953 30.9141 16.8662 25.3044 21.0866 21.0846C25.3928 16.7781 31.1183 14.406 37.2086 14.406C43.2983 14.406 49.0241 16.7778 53.3306 21.0846C62.2205 29.9745 62.2205 44.4378 53.3306 53.3277C49.0241 57.6348 43.2983 60.0066 37.2086 60.0066Z" fill="#00467F"/>
<path d="M64.4396 70.4376C64.1327 70.4376 63.8255 70.3203 63.5912 70.086C63.1226 69.6174 63.1226 68.8578 63.5912 68.3892L65.3912 66.5892C65.8598 66.1206 66.6194 66.1206 67.088 66.5892C67.5566 67.0578 67.5566 67.8174 67.088 68.286L65.288 70.086C65.0537 70.3203 64.7465 70.4376 64.4396 70.4376Z" fill="#00467F"/>
<path d="M66.8397 72.8377C66.5328 72.8377 66.2256 72.7204 65.9913 72.4861C65.5227 72.0175 65.5227 71.2579 65.9913 70.7893L67.7913 68.9893C68.2599 68.5207 69.0195 68.5207 69.4881 68.9893C69.9567 69.4579 69.9567 70.2175 69.4881 70.6861L67.6881 72.4861C67.4538 72.7204 67.1466 72.8377 66.8397 72.8377Z" fill="#00467F"/>
<path d="M69.2396 75.2377C68.9327 75.2377 68.6255 75.1204 68.3912 74.8861C67.9226 74.4175 67.9226 73.6579 68.3912 73.1893L70.1912 71.3893C70.6598 70.9207 71.4194 70.9207 71.888 71.3893C72.3566 71.8579 72.3566 72.6175 71.888 73.0861L70.088 74.8861C69.8537 75.1204 69.5465 75.2377 69.2396 75.2377Z" fill="#00467F"/>
<path d="M71.6398 77.6376C71.3329 77.6376 71.0257 77.5203 70.7914 77.286C70.3228 76.8174 70.3228 76.0578 70.7914 75.5892L72.5914 73.7892C73.06 73.3206 73.8196 73.3206 74.2882 73.7892C74.7568 74.2578 74.7568 75.0174 74.2882 75.486L72.4882 77.286C72.2539 77.5203 71.9467 77.6376 71.6398 77.6376Z" fill="#00467F"/>
<path d="M41.0397 49.4376H33.8397C33.177 49.4376 32.6397 48.9009 32.6397 48.2376V42.2376H26.6397C25.977 42.2376 25.4397 41.7009 25.4397 41.0376V33.8376C25.4397 33.1743 25.977 32.6376 26.6397 32.6376H32.6397V26.6376C32.6397 25.9743 33.177 25.4376 33.8397 25.4376H41.0397C41.7024 25.4376 42.2397 25.9743 42.2397 26.6376V32.6376H48.2397C48.9024 32.6376 49.4397 33.1743 49.4397 33.8376V41.0376C49.4397 41.7009 48.9024 42.2376 48.2397 42.2376H42.2397V48.2376C42.2397 48.9009 41.7024 49.4376 41.0397 49.4376ZM35.0397 47.0376H39.8397V41.0376C39.8397 40.3743 40.377 39.8376 41.0397 39.8376H47.0397V35.0376H41.0397C40.377 35.0376 39.8397 34.5009 39.8397 33.8376V27.8376H35.0397V33.8376C35.0397 34.5009 34.5024 35.0376 33.8397 35.0376H27.8397V39.8376H33.8397C34.5024 39.8376 35.0397 40.3743 35.0397 41.0376V47.0376Z" fill="#00467F"/>
</svg>
