<svg width="100" height="100" viewBox="0 0 100 100" fill="none" xmlns="http://www.w3.org/2000/svg">
<path d="M64.6666 36.667H60.6666V32.667H55.3333V36.667H51.3333V42.0003H55.3333V46.0003H60.6666V42.0003H64.6666V36.667Z" fill="white"/>
<path d="M60.6667 47.3335H55.3333C54.597 47.3335 54 46.7365 54 46.0002V43.3335H51.3333C50.597 43.3335 50 42.7365 50 42.0002V36.6668C50 35.9305 50.597 35.3335 51.3333 35.3335H54V32.6668C54 31.9305 54.597 31.3335 55.3333 31.3335H60.6667C61.403 31.3335 62 31.9305 62 32.6668V35.3335H64.6667C65.403 35.3335 66 35.9305 66 36.6668V42.0002C66 42.7365 65.403 43.3335 64.6667 43.3335H62V46.0002C62 46.7365 61.403 47.3335 60.6667 47.3335ZM56.6667 44.6668H59.3333V42.0002C59.3333 41.2638 59.9303 40.6668 60.6667 40.6668H63.3333V38.0002H60.6667C59.9303 38.0002 59.3333 37.4032 59.3333 36.6668V34.0002H56.6667V36.6668C56.6667 37.4032 56.0697 38.0002 55.3333 38.0002H52.6667V40.6668H55.3333C56.0697 40.6668 56.6667 41.2638 56.6667 42.0002V44.6668Z" fill="#00467F"/>
<path d="M55.3333 51.3335H60.6666V86.0002H55.3333V51.3335Z" fill="white"/>
<path d="M60.6667 87.3333H55.3333C54.597 87.3333 54 86.7363 54 86V51.3333C54 50.597 54.597 50 55.3333 50H60.6667C61.403 50 62 50.597 62 51.3333V86C62 86.7363 61.403 87.3333 60.6667 87.3333ZM56.6667 84.6667H59.3333V52.6667H56.6667V84.6667Z" fill="#00467F"/>
<path d="M79.3333 39.3335H84.6666V86.0002H79.3333V39.3335Z" fill="white"/>
<path d="M84.6667 87.3333H79.3333C78.597 87.3333 78 86.7363 78 86V39.3333C78 38.597 78.597 38 79.3333 38H84.6667C85.403 38 86 38.597 86 39.3333V86C86 86.7363 85.403 87.3333 84.6667 87.3333ZM80.6667 84.6667H83.3333V40.6667H80.6667V84.6667Z" fill="#00467F"/>
<path d="M67.3333 55.3335H72.6666V86.0002H67.3333V55.3335Z" fill="white"/>
<path d="M72.6667 87.3333H67.3333C66.597 87.3333 66 86.7363 66 86V55.3333C66 54.597 66.597 54 67.3333 54H72.6667C73.403 54 74 54.597 74 55.3333V86C74 86.7363 73.403 87.3333 72.6667 87.3333ZM68.6667 84.6667H71.3333V56.6667H68.6667V84.6667Z" fill="#00467F"/>
<path d="M43.3333 59.3335H48.6666V86.0002H43.3333V59.3335Z" fill="white"/>
<path d="M48.6667 87.3333H43.3333C42.597 87.3333 42 86.7363 42 86V59.3333C42 58.597 42.597 58 43.3333 58H48.6667C49.403 58 50 58.597 50 59.3333V86C50 86.7363 49.403 87.3333 48.6667 87.3333ZM44.6667 84.6667H47.3333V60.6667H44.6667V84.6667Z" fill="#00467F"/>
<path d="M20.6665 68.667H25.9998V86.0003H20.6665V68.667Z" fill="white"/>
<path d="M25.9999 87.3335H20.6666C19.9303 87.3335 19.3333 86.7365 19.3333 86.0002V68.6668C19.3333 67.9305 19.9303 67.3335 20.6666 67.3335H25.9999C26.7363 67.3335 27.3333 67.9305 27.3333 68.6668V86.0002C27.3333 86.7365 26.7363 87.3335 25.9999 87.3335ZM21.9999 84.6668H24.6666V70.0002H21.9999V84.6668Z" fill="#00467F"/>
<path d="M31.3333 56.667H36.6666V86.0003H31.3333V56.667Z" fill="white"/>
<path d="M36.6667 87.3335H31.3333C30.597 87.3335 30 86.7365 30 86.0002V56.6668C30 55.9305 30.597 55.3335 31.3333 55.3335H36.6667C37.403 55.3335 38 55.9305 38 56.6668V86.0002C38 86.7365 37.403 87.3335 36.6667 87.3335ZM32.6667 84.6668H35.3333V58.0002H32.6667V84.6668Z" fill="#00467F"/>
</svg>
