<svg width="90" height="90" viewBox="0 0 90 90" fill="none" xmlns="http://www.w3.org/2000/svg">
<path d="M66 32.9999C65.5692 32.9999 65.1468 33.032 64.7295 33.0812C64.1745 28.3073 60.1227 24.5999 55.2 24.5999C51.9693 24.5999 49.1181 26.2007 47.3781 28.6472C45.8436 27.6077 43.9929 26.9999 42 26.9999C38.421 26.9999 35.3055 28.9625 33.6546 31.8662C33.2421 31.8233 32.8239 31.7999 32.4 31.7999C25.7727 31.7999 20.4 37.1723 20.4 43.7999C20.4 49.2323 24.012 53.816 28.9638 55.2944C29.874 61.0193 34.8189 65.3999 40.8 65.3999C45.4074 65.3999 49.4034 62.8001 51.414 58.9901C52.2291 59.2538 53.097 59.3999 54 59.3999C57.6579 59.3999 60.7611 57.0575 61.9137 53.7941C63.1749 54.3104 64.5531 54.5999 66 54.5999C71.9646 54.5999 76.8 49.7645 76.8 43.7999C76.8 37.8353 71.9646 32.9999 66 32.9999Z" fill="white"/>
<path d="M40.8 66.5999C34.527 66.5999 29.2206 62.2745 27.9153 56.2112C22.7484 54.3404 19.2 49.34 19.2 43.7999C19.2 36.5213 25.1214 30.5999 32.4 30.5999C32.6073 30.5999 32.8125 30.6053 33.0165 30.6146C35.0109 27.6269 38.3859 25.7999 42 25.7999C43.7931 25.7999 45.5343 26.2382 47.094 27.0755C49.1343 24.7562 52.0899 23.3999 55.2 23.3999C60.2907 23.3999 64.629 26.9396 65.7282 31.8035C65.8197 31.8011 65.9109 31.7999 66 31.7999C72.6165 31.7999 78 37.1828 78 43.7999C78 50.417 72.6165 55.7999 66 55.7999C64.8327 55.7999 63.6855 55.6316 62.5746 55.2995C60.9645 58.5128 57.654 60.5999 54 60.5999C53.3262 60.5999 52.6548 60.5285 51.9948 60.3872C49.5903 64.2428 45.3843 66.5999 40.8 66.5999ZM32.4 32.9999C26.4444 32.9999 21.6 37.8449 21.6 43.7999C21.6 48.536 24.7698 52.79 29.3073 54.1445C29.7492 54.2762 30.0771 54.6503 30.1488 55.106C30.9867 60.3755 35.4657 64.1999 40.8 64.1999C44.8149 64.1999 48.4746 61.9892 50.352 58.4303C50.625 57.9146 51.2298 57.671 51.783 57.8486C52.5036 58.0814 53.25 58.1999 54 58.1999C57.0423 58.1999 59.7681 56.2685 60.7815 53.3945C60.8916 53.0852 61.1226 52.8338 61.4226 52.6991C61.7214 52.5656 62.0649 52.5596 62.3682 52.6838C63.5298 53.159 64.7508 53.3999 66 53.3999C71.2935 53.3999 75.6 49.0934 75.6 43.7999C75.6 38.5064 71.2935 34.1999 66 34.1999C65.6157 34.1999 65.2407 34.2293 64.869 34.2725C64.5456 34.3052 64.2339 34.2185 63.9855 34.0217C63.7359 33.8243 63.5742 33.5354 63.5379 33.2195C63.0456 28.9898 59.4609 25.7999 55.2 25.7999C52.4919 25.7999 49.9335 27.1247 48.3552 29.3432C47.9778 29.8745 47.2431 30.0077 46.704 29.6408C45.3141 28.6979 43.6875 28.1999 42 28.1999C38.9895 28.1999 36.1911 29.8316 34.6968 32.459C34.4613 32.8727 34.0089 33.107 33.5295 33.0596C33.1581 33.0209 32.7819 32.9999 32.4 32.9999Z" fill="#00467F"/>
<path d="M32.4 37.8C31.7367 37.8 31.2 37.2627 31.2 36.6C31.2 32.6946 33.3186 29.0817 36.7302 27.171C37.3092 26.8464 38.0403 27.0537 38.3625 27.6315C38.6871 28.2099 38.481 28.941 37.902 29.265C35.2488 30.7518 33.6 33.5619 33.6 36.6C33.6 37.2627 33.0633 37.8 32.4 37.8Z" fill="#00467F"/>
<path d="M59.8173 58.2596C59.502 58.2596 59.1879 58.136 58.9524 57.8909C58.4931 57.4127 58.5084 56.6534 58.9863 56.1941C60.4137 54.8225 61.2 52.9781 61.2 50.9999C61.2 49.7231 60.8613 48.4682 60.2202 47.3711C59.8863 46.7993 60.0783 46.064 60.6504 45.7298C61.2258 45.3947 61.9593 45.5885 62.2923 46.1606C63.1476 47.6243 63.6 49.2977 63.6 50.9999C63.6 53.6372 62.5524 56.0969 60.648 57.9251C60.4161 58.1483 60.1161 58.2596 59.8173 58.2596Z" fill="#00467F"/>
<path d="M45.6 45C46.9255 45 48 43.9254 48 42.6C48 41.2745 46.9255 40.2 45.6 40.2C44.2745 40.2 43.2 41.2745 43.2 42.6C43.2 43.9254 44.2745 45 45.6 45Z" fill="#00467F"/>
<path d="M45.6 46.2C43.6149 46.2 42 44.5851 42 42.6C42 40.6149 43.6149 39 45.6 39C47.5851 39 49.2 40.6149 49.2 42.6C49.2 44.5851 47.5851 46.2 45.6 46.2ZM45.6 41.4C44.9379 41.4 44.4 41.9385 44.4 42.6C44.4 43.2615 44.9379 43.8 45.6 43.8C46.2621 43.8 46.8 43.2615 46.8 42.6C46.8 41.9385 46.2621 41.4 45.6 41.4Z" fill="#00467F"/>
<path d="M48 36.5999H43.2V28.1999C43.2 26.8745 44.2746 25.7999 45.6 25.7999C48.2466 25.7999 50.4 23.6465 50.4 20.9999C50.4 18.3533 48.2466 16.1999 45.6 16.1999C42.9534 16.1999 40.8 18.3533 40.8 20.9999H36C36 15.7064 40.3065 11.3999 45.6 11.3999C50.8935 11.3999 55.2 15.7064 55.2 20.9999C55.2 25.4648 52.1361 29.2277 48 30.2963V36.5999Z" fill="#00467F"/>
<path d="M48 37.8H43.2C42.5367 37.8 42 37.2627 42 36.6V28.2C42 26.2149 43.6149 24.6 45.6 24.6C47.5851 24.6 49.2 22.9851 49.2 21C49.2 19.0149 47.5851 17.4 45.6 17.4C43.6149 17.4 42 19.0149 42 21C42 21.6627 41.4633 22.2 40.8 22.2H36C35.3367 22.2 34.8 21.6627 34.8 21C34.8 15.045 39.6444 10.2 45.6 10.2C51.5556 10.2 56.4 15.045 56.4 21C56.4 25.6095 53.4831 29.6718 49.2 31.1835V36.6C49.2 37.2627 48.6633 37.8 48 37.8ZM44.4 35.4H46.8V30.2964C46.8 29.7492 47.1702 29.2716 47.7 29.1345C51.4089 28.1766 54 24.8313 54 21C54 16.3683 50.2314 12.6 45.6 12.6C41.3754 12.6 37.869 15.7347 37.2855 19.8H39.7206C40.2783 17.0649 42.702 15 45.6 15C48.9081 15 51.6 17.6919 51.6 21C51.6 24.3081 48.9081 27 45.6 27C44.9379 27 44.4 27.5385 44.4 28.2V35.4Z" fill="#00467F"/>
<path d="M32.4 70.1999C35.051 70.1999 37.2 68.0508 37.2 65.3999C37.2 62.7489 35.051 60.5999 32.4 60.5999C29.7491 60.5999 27.6 62.7489 27.6 65.3999C27.6 68.0508 29.7491 70.1999 32.4 70.1999Z" fill="white"/>
<path d="M32.4 71.3999C29.0919 71.3999 26.4 68.708 26.4 65.3999C26.4 62.0918 29.0919 59.3999 32.4 59.3999C35.7081 59.3999 38.4 62.0918 38.4 65.3999C38.4 68.708 35.7081 71.3999 32.4 71.3999ZM32.4 61.7999C30.4149 61.7999 28.8 63.4148 28.8 65.3999C28.8 67.385 30.4149 68.9999 32.4 68.9999C34.3851 68.9999 36 67.385 36 65.3999C36 63.4148 34.3851 61.7999 32.4 61.7999Z" fill="#00467F"/>
<path d="M27 78.5999C28.6569 78.5999 30 77.2567 30 75.5999C30 73.943 28.6569 72.5999 27 72.5999C25.3432 72.5999 24 73.943 24 75.5999C24 77.2567 25.3432 78.5999 27 78.5999Z" fill="white"/>
<path d="M27 79.7999C24.6843 79.7999 22.8 77.9156 22.8 75.5999C22.8 73.2842 24.6843 71.3999 27 71.3999C29.3157 71.3999 31.2 73.2842 31.2 75.5999C31.2 77.9156 29.3157 79.7999 27 79.7999ZM27 73.7999C26.0073 73.7999 25.2 74.6072 25.2 75.5999C25.2 76.5926 26.0073 77.3999 27 77.3999C27.9927 77.3999 28.8 76.5926 28.8 75.5999C28.8 74.6072 27.9927 73.7999 27 73.7999Z" fill="#00467F"/>
<path d="M15.6 75C16.9255 75 18 73.9254 18 72.6C18 71.2745 16.9255 70.2 15.6 70.2C14.2745 70.2 13.2 71.2745 13.2 72.6C13.2 73.9254 14.2745 75 15.6 75Z" fill="white"/>
<path d="M29.5593 58.8105C29.073 58.8105 28.6158 58.5129 28.4355 58.0311C27.8814 56.5512 27.6 54.9933 27.6 53.4C27.6 51.6141 27.9516 49.8798 28.644 48.2448C28.9041 47.6331 29.6085 47.3523 30.2178 47.6079C30.8271 47.8668 31.113 48.5712 30.8541 49.1811C30.2871 50.5185 30 51.9375 30 53.4C30 54.705 30.2298 55.9794 30.6831 57.1887C30.915 57.8091 30.6012 58.5012 29.9799 58.7337C29.8419 58.7853 29.7 58.8105 29.5593 58.8105Z" fill="#00467F"/>
</svg>
