<svg width="200" height="200" viewBox="0 0 200 200" fill="none" xmlns="http://www.w3.org/2000/svg">
<g opacity="0.91">
<mask id="mask0_444_1085" style="mask-type:luminance" maskUnits="userSpaceOnUse" x="0" y="0" width="200" height="200">
<path d="M184 0H16C7.16344 0 0 7.16344 0 16V184C0 192.837 7.16344 200 16 200H184C192.837 200 200 192.837 200 184V16C200 7.16344 192.837 0 184 0Z" fill="white"/>
</mask>
<g mask="url(#mask0_444_1085)">
<path d="M210.248 -3.17508H207.799C208.597 -3.00558 209.45 -2.83609 210.248 -2.6666V-3.17508Z" fill="#68C6B8"/>
<path d="M166.357 -3.17508H159.12C174.75 0.892766 191.729 4.79111 210.276 8.74596V6.90978C194.563 3.54816 179.951 0.243041 166.357 -3.17508Z" fill="#68C6B8"/>
<path d="M124.75 -3.17508H118.311C144.618 5.58208 174.778 12.6443 210.276 20.1868V18.1528C177.612 11.2036 149.489 4.67812 124.75 -3.17508Z" fill="#68C6B8"/>
<path d="M92.0589 -3.17508H86.3627C119.714 11.2036 159.753 20.78 210.248 31.6276V29.3959C162.505 19.1698 124.172 9.98891 92.0589 -3.17508Z" fill="#68C6B8"/>
<path d="M65.229 -3.17508H60.2208C98.5256 17.6161 146.214 29.2264 210.221 43.0684V40.6672C148.856 27.3902 102.543 16.1754 65.2015 -3.17508" fill="#68C6B8"/>
<path d="M42.6368 -3.17508H38.0138C79.9786 24.6783 133.721 37.8423 210.248 54.5374V51.9385C136.363 35.8084 83.8036 22.9834 42.6368 -3.20333" fill="#68C6B8"/>
<path d="M23.0441 -3.17508H18.5862C62.6423 31.7123 120.32 46.1475 206.313 65.1873C207.661 65.498 208.955 65.8088 210.276 66.1477V63.3511C209.12 63.0686 207.992 62.7861 206.808 62.5036C123.154 44.0006 66.4673 29.8479 23.0441 -3.17508Z" fill="#68C6B8"/>
<path d="M5.54274 -3.17508H1.22244C46.682 38.9158 107.359 54.5374 201.663 75.6676C204.607 76.3456 207.441 77.0801 210.248 77.8428V74.8484C207.634 74.1422 204.965 73.436 202.213 72.8145C110.193 52.221 50.4244 36.8819 5.54274 -3.17508Z" fill="#68C6B8"/>
<path d="M-10.0599 -3.17508H-14.2151C34.7392 49.2266 99.6539 64.0291 197.067 86.148C201.635 87.1932 206.038 88.4079 210.248 89.7073V86.487C206.203 85.2723 202.02 84.1423 197.645 83.1253C102.296 61.4867 38.2615 46.9385 -10.0599 -3.17508Z" fill="#68C6B8"/>
<path d="M-24.5893 -3.17508H-28.772C20.9803 57.1646 88.4541 72.7298 192.444 96.6283C198.718 98.0973 204.635 99.7922 210.248 101.713V98.295C204.827 96.4588 199.103 94.8486 193.077 93.4362C91.1508 70.0179 24.5576 54.6504 -24.5893 -3.17508Z" fill="#68C6B8"/>
<path d="M-38.1006 -3.17508H-42.2833C7.9368 65.1873 77.6395 81.4587 187.849 107.109C195.856 109.001 203.314 111.29 210.248 113.917V110.301C203.479 107.787 196.269 105.583 188.509 103.747C80.3638 78.5773 11.5416 62.5036 -38.1006 -3.17508Z" fill="#68C6B8"/>
<path d="M-50.9514 -3.17508H-55.1617C-5.05163 73.1817 65.8069 89.9333 180.529 116.939L183.198 117.561C193.022 119.905 201.993 122.872 210.221 126.29V122.42C202.158 119.143 193.435 116.318 183.914 114.03L181.244 113.408C68.5862 86.8824 -1.41928 70.3286 -50.9514 -3.17508Z" fill="#68C6B8"/>
<path d="M-63.0318 -3.17508H-66.8568C-16.0313 81.6282 58.0193 99.3402 173.237 126.798L178.63 128.069C190.325 130.922 200.81 134.567 210.276 138.889V134.764C201.002 130.668 190.738 127.137 179.401 124.397L174.007 123.098C57.1387 95.2441 -13.8298 78.2665 -63.0318 -3.17508Z" fill="#68C6B8"/>
<path d="M-74.094 -3.17508H-78.3867C-28.3317 89.3119 46.2967 107.504 164.513 136.233L174.007 138.55C187.628 141.855 199.626 146.29 210.248 151.572V147.166C199.791 142.137 188.041 137.9 174.805 134.68L165.284 132.363C49.1035 104.114 -24.6444 86.1762 -74.094 -3.17508Z" fill="#68C6B8"/>
<path d="M-84.9635 -3.17508H-89.4214C-40.0819 97.5888 35.5372 116.148 157.386 146.092L169.384 149.03C185.014 152.872 198.526 158.183 210.248 164.539V159.849C198.691 153.804 185.427 148.748 170.237 144.99L158.239 142.053C38.4541 112.617 -36.2019 94.2272 -84.9635 -3.17508Z" fill="#68C6B8"/>
<path d="M-95.3378 -3.17508H-99.6581C-50.291 106.092 29.2081 125.866 150.369 155.923L164.761 159.51C182.483 163.917 197.507 170.188 210.221 177.731V172.731C197.617 165.556 182.868 159.567 165.642 155.273L151.25 151.714C28.1074 121.148 -47.4016 102.335 -95.3378 -3.17508Z" fill="#68C6B8"/>
<path d="M-105.107 -3.17508H-107.748V1.59899C-59.2343 115.018 20.8152 135.075 143.462 165.81L160.166 169.991C179.18 174.793 195.856 181.827 210.248 190.951V185.867C196.654 177.448 180.446 170.471 161.101 165.584L144.398 161.403C22.1085 130.753 -57.3906 110.781 -105.107 -3.17508Z" fill="#68C6B8"/>
<path d="M-107.748 13.6613V24.3959C-59.3169 126.064 19.1366 145.979 136.638 175.669C142.829 177.222 149.131 178.833 155.543 180.471C176.621 185.838 194.866 193.889 210.248 204.567V199.228C195.746 189.482 178.08 181.403 156.533 175.895C150.122 174.256 143.82 172.674 137.628 171.092C18.2835 140.923 -60.3625 120.951 -107.748 13.6613Z" fill="#68C6B8"/>
<path d="M-107.748 35.7802V46.1475C-59.4269 137.279 17.4029 156.883 129.896 185.584C136.775 187.336 143.792 189.115 150.92 190.98C174.172 196.968 193.903 206.234 210.248 218.579V212.844C194.921 201.658 175.823 192.364 151.965 186.206C144.811 184.369 137.794 182.561 130.914 180.81C16.6325 151.657 -60.3625 131.939 -107.748 35.7802Z" fill="#68C6B8"/>
<path d="M-107.748 56.7691V65.8088C-58.4363 148.719 18.8064 168.607 123.209 195.471C130.749 197.42 138.454 199.398 146.297 201.432C171.751 208.07 193.077 218.551 210.221 232.76V226.743C194.178 213.974 173.649 203.353 147.37 196.516C139.527 194.483 131.822 192.477 124.255 190.556C14.8988 162.42 -60.4176 142.985 -107.748 56.7691Z" fill="#68C6B8"/>
<path d="M-107.748 76.6846V85.2723C-58.6014 159.934 16.5774 179.454 116.632 205.387C124.805 207.505 133.171 209.68 141.701 211.912C169.494 219.229 192.362 231.15 210.248 247.421V240.924C193.572 226.46 171.641 214.398 142.857 206.827C134.299 204.567 125.933 202.42 117.761 200.274C13.0551 173.126 -60.5277 154.058 -107.748 76.6846Z" fill="#68C6B8"/>
<path d="M-107.748 94.5661V103.804C-58.8215 171.121 14.2384 190.245 110.083 215.302C118.889 217.59 127.887 219.963 137.078 222.392C167.32 230.443 191.729 243.862 210.248 262.449V255.472C193.049 239.201 169.742 225.5 138.261 217.11C129.07 214.652 120.045 212.308 111.239 210.019C13.9632 184.595 -59.5645 165.386 -107.748 94.5661Z" fill="#68C6B8"/>
<path d="M-107.748 112.561V121.6C-59.1518 182.364 11.8168 201.065 103.616 225.246C113.028 227.732 122.631 230.246 132.483 232.901C165.284 241.715 191.261 256.743 210.248 277.845V270.444C192.637 252.167 168.036 236.658 133.721 227.449C123.87 224.794 114.238 222.279 104.855 219.794C11.6517 195.245 -59.8122 176.431 -107.748 112.561Z" fill="#68C6B8"/>
<path d="M-107.748 129.793V138.663C-59.5645 193.579 9.3127 211.856 97.2048 235.189C107.194 237.845 117.403 240.557 127.86 243.381C163.413 253.043 190.931 270.02 210.248 293.975V285.84C192.389 265.416 166.522 247.901 129.153 237.76C118.696 234.935 108.46 232.195 98.4706 229.568C9.23015 205.867 -60.1424 187.477 -107.748 129.793Z" fill="#68C6B8"/>
<path d="M-107.748 146.346V154.369C-99.1077 163.437 -89.7791 171.686 -79.5975 179.03C-34.5783 211.601 23.5394 227.138 90.8481 245.105C101.387 247.929 112.174 250.811 123.237 253.834C161.734 264.399 190.793 283.467 210.248 310.642V301.659C192.306 278.947 165.201 259.173 124.585 248.042C113.523 245.02 102.708 242.11 92.1415 239.314C6.72601 216.488 -60.5552 198.522 -107.748 146.318" fill="#68C6B8"/>
<path d="M-107.748 162.307V169.906C-59.592 216.262 6.09311 233.946 84.519 255.048C95.6087 258.043 106.974 261.093 118.614 264.314C160.276 275.839 190.876 297.252 210.248 328.1V318.185C192.389 292.93 164.183 270.585 120.017 258.382C108.377 255.161 96.9846 252.11 85.8949 249.116C4.13935 227.138 -61.0505 209.567 -107.748 162.307Z" fill="#68C6B8"/>
<path d="M-107.748 177.759V185.358C-60.3075 227.506 3.14869 244.709 78.2725 265.02C89.885 268.156 101.8 271.376 114.018 274.794C159.12 287.393 191.316 311.49 210.276 346.546V335.36C192.719 307.393 163.523 282.111 115.477 268.692C103.259 265.274 91.3435 262.054 79.7034 258.89C1.49763 237.703 -61.6008 220.613 -107.721 177.759" fill="#68C6B8"/>
<path d="M-107.748 191.771V200.358C-61.078 238.72 0.176745 255.387 72.0534 274.964C84.1888 278.269 96.6269 281.659 109.395 285.246C158.377 299.06 192.169 326.32 210.276 366.377V353.439C193.325 322.45 163.303 293.721 110.909 278.947C98.1404 275.359 85.6748 271.941 73.5394 268.636C0.534495 248.749 -61.3257 231.884 -107.721 191.714" fill="#68C6B8"/>
<path d="M-107.748 206.404V214.991C-61.9311 249.935 -2.87773 266.15 65.8619 284.992C78.4926 288.467 91.481 291.998 104.745 295.783C158.239 311.009 193.6 342.168 210.221 388.44V372.818C194.233 338.524 163.605 305.642 106.313 289.342C93.022 285.557 80.0336 281.998 67.3754 278.523C-2.46495 259.37 -62.1512 243.014 -107.748 206.432" fill="#68C6B8"/>
<path d="M-107.748 220.669V229.257C-62.8667 261.15 -5.95973 276.828 59.7529 294.936C72.879 298.552 86.3627 302.28 100.149 306.235C159.175 323.185 196.159 359.4 210.248 413.807V393.722C195.691 355.784 164.871 317.733 101.773 299.625C87.9587 295.642 74.475 291.941 61.3214 288.297C-5.46441 269.907 -62.9767 254.031 -107.748 220.669Z" fill="#68C6B8"/>
<path d="M-107.748 234.624V242.873C-63.5821 272.421 -8.93164 287.619 53.644 304.964C67.2103 308.721 81.2444 312.62 95.5262 316.744C155.763 334.202 193.105 371.518 206.561 427.677C207.799 432.847 208.762 437.96 209.505 442.96C209.753 444.203 210.001 445.446 210.221 446.689V417.366C197.893 375.304 167.568 330.36 97.1773 309.964C82.868 305.811 68.8063 301.913 55.24 298.156C-8.57392 280.472 -63.9399 265.105 -107.776 234.653" fill="#68C6B8"/>
<path d="M-107.748 248.438V256.319C-63.8848 284.088 -10.3901 298.919 48.6082 315.275C62.3121 319.06 76.4838 322.987 90.9032 327.168C151.332 344.964 188.757 382.592 202.13 438.949C202.983 442.564 203.699 446.124 204.304 449.627C207.084 461.802 208.46 473.525 209.01 484.119H210.221V448.299C210.001 446.519 209.78 444.711 209.505 442.875C200.067 396.914 171.393 343.383 92.6093 320.162C78.1624 315.953 63.9632 312.026 50.2318 308.241C-11.1056 291.235 -64.7379 276.376 -107.776 248.381" fill="#68C6B8"/>
<path d="M209.533 442.932C209.808 444.768 210.028 446.548 210.248 448.355V446.661C210.028 445.418 209.78 444.175 209.533 442.932Z" fill="#68C6B8"/>
<path d="M-107.748 261.828V269.879C-65.0681 295.303 -13.7748 309.597 42.5543 325.275C56.726 329.23 71.393 333.326 86.2802 337.676C146.957 355.699 184.436 393.553 197.728 450.192C198.305 452.621 198.801 455.022 199.269 457.423C201.525 466.661 202.983 475.672 203.864 484.175H207.194V483.949C207.194 473.78 206.478 462.084 204.332 449.683C194.04 404.513 164.706 353.326 88.0963 330.558C73.1541 326.179 58.4596 322.083 44.2604 318.128C-14.2426 301.828 -65.756 287.45 -107.721 261.828" fill="#68C6B8"/>
<path d="M204.304 449.683C206.451 462.084 207.166 473.779 207.166 483.949V484.175H209.01C208.459 473.554 207.056 461.83 204.304 449.683Z" fill="#68C6B8"/>
<path d="M-107.748 275.02V283.184C-66.3064 306.461 -17.1595 320.247 36.5003 335.275C51.1398 339.371 66.2747 343.609 81.6572 348.157C142.554 366.405 180.116 404.485 193.325 461.378C193.6 462.565 193.847 463.751 194.095 464.938C195.829 471.463 197.122 477.904 198.113 484.175H202.433C202.02 475.842 201.057 466.802 199.269 457.423C188.344 412.875 158.57 363.326 83.5284 340.84C68.0908 336.292 52.9285 332.026 38.289 327.93C-17.4347 312.309 -66.8843 298.467 -107.721 275.02" fill="#68C6B8"/>
<path d="M199.269 457.423C201.057 466.802 202.02 475.842 202.433 484.175L203.864 484.175C202.983 475.672 201.525 466.633 199.269 457.423Z" fill="#68C6B8"/>
<path d="M-107.748 287.393V296.292C-67.5997 317.648 -20.5992 330.868 30.5014 345.275C45.6088 349.541 61.2114 353.919 77.0342 358.637C138.096 377.084 175.741 415.361 188.867 472.395C189.995 476.35 190.958 480.277 191.784 484.175H197.095C196.462 477.989 195.499 471.52 194.095 464.938C182.51 421.124 152.295 373.326 78.9329 351.151C63.0275 346.405 47.3974 341.998 32.2901 337.761C-19.7187 323.128 -67.4346 309.682 -107.748 287.393Z" fill="#68C6B8"/>
<path d="M194.095 464.938C195.471 471.52 196.434 477.989 197.095 484.175L198.113 484.175C197.15 477.904 195.829 471.463 194.095 464.938Z" fill="#68C6B8"/>
<path d="M-107.748 300.275V309.258C-68.9481 328.834 -24.039 341.546 24.5301 355.275C40.0777 359.682 56.1206 364.23 72.4112 369.117C131.905 387.225 169.081 424.09 183.143 478.582C183.721 480.446 184.299 482.311 184.794 484.175H191.151C190.545 480.362 189.802 476.491 188.894 472.565C188.894 472.508 188.867 472.452 188.839 472.395C176.594 429.372 146.021 383.298 74.3649 361.462C58.0193 356.547 41.9214 351.998 26.3463 347.592C-23.1309 333.58 -68.728 320.67 -107.776 300.246" fill="#68C6B8"/>
<path d="M188.867 472.395C188.867 472.395 188.894 472.508 188.922 472.565C189.83 476.491 190.573 480.362 191.178 484.175H191.811C190.986 480.277 190.022 476.35 188.894 472.395" fill="#68C6B8"/>
<path d="M-107.748 312.958V322.055C-70.324 340.021 -27.5337 352.196 18.5862 365.304C34.5741 369.852 51.0848 374.541 67.8157 379.626C125.493 397.338 162.285 432.48 177.337 484.203H184.602C184.602 484.203 184.546 483.921 184.519 483.808C184.106 482.056 183.611 480.362 183.171 478.61C170.072 436.773 139.087 393.072 69.8245 371.801C53.0111 366.716 36.4728 361.999 20.4849 357.451C-26.5156 344.089 -70.0213 331.688 -107.748 312.958Z" fill="#68C6B8"/>
<path d="M183.171 478.582C183.611 480.305 184.106 482 184.519 483.78C184.546 483.921 184.574 484.062 184.601 484.175H184.822C184.299 482.311 183.748 480.446 183.171 478.582Z" fill="#68C6B8"/>
<path d="M-107.748 325.501V334.682C-71.7549 351.151 -31.0285 362.818 12.6424 375.304C29.043 379.993 45.994 384.824 63.1652 390.078C116.825 406.688 152.378 438.299 169.247 484.175H177.117C163.083 443.836 131.822 402.677 65.2565 382.084C48.0028 376.801 31.0243 371.97 14.5961 367.281C-29.9828 354.541 -71.4247 342.676 -107.748 325.501Z" fill="#68C6B8"/>
<path d="M-107.748 337.931V346.998C-72.6906 362.479 -33.6702 373.722 6.75353 385.304C23.5669 390.135 40.9582 395.135 58.5697 400.558C107.992 415.954 142.059 444.062 160.331 484.175H168.696C152.956 447.31 121.531 411.349 60.7436 392.394C43.0771 386.942 25.6308 381.942 8.78984 377.112C-33.395 364.993 -72.8006 353.693 -107.721 337.931" fill="#68C6B8"/>
<path d="M-107.748 350.219V359.428C-74.204 373.665 -37.2751 384.343 0.892231 395.332C18.1184 400.304 35.95 405.445 53.9467 411.039C98.8834 425.163 131.107 449.711 150.369 484.175H159.285C142.169 451.067 111.156 419.994 56.1756 402.705C38.0964 397.084 20.2373 391.942 2.95607 386.971C-36.8898 375.473 -74.2866 364.71 -107.721 350.219" fill="#68C6B8"/>
<path d="M-107.748 362.422V371.688C-75.8276 384.824 -41.0725 394.88 -4.96909 405.361C12.6699 410.474 30.9142 415.756 49.3237 421.519C89.5273 434.231 119.549 455.248 139.252 484.175H148.883C130.804 455.079 100.755 428.581 51.6076 413.016C33.1156 407.225 14.8438 401.914 -2.85021 396.801C-40.4121 385.925 -75.7725 375.671 -107.721 362.394" fill="#68C6B8"/>
<path d="M-107.748 374.541V384.004C-77.4511 396.01 -44.7049 405.558 -10.8029 415.417C7.24885 420.672 25.906 426.095 44.7007 432.028C79.841 443.214 107.221 460.7 126.759 484.203H137.271C118.696 459.26 90.2427 437.112 47.0397 423.355C28.1624 417.395 9.45028 411.943 -8.62896 406.688C-43.9344 396.434 -77.3135 386.716 -107.721 374.541" fill="#68C6B8"/>
<path d="M-107.748 386.547V396.18C-79.0747 407.169 -48.3648 416.152 -16.6091 425.417C1.82783 430.813 20.8977 436.378 40.0777 442.48C69.6869 451.971 93.7375 465.955 112.285 484.175H124.227C105.763 463.553 79.5108 445.531 42.4717 433.638C23.1817 427.508 4.08429 421.915 -14.4077 416.519C-47.4842 406.858 -78.8821 397.677 -107.748 386.547Z" fill="#68C6B8"/>
<path d="M-107.748 398.496V408.299C-80.7533 418.327 -52.0246 426.745 -22.4154 435.417C-3.59319 440.926 15.8895 446.632 35.4271 452.904C59.0375 460.531 79.1805 470.983 95.7738 484.147H109.368C91.7562 467.904 68.5311 453.836 37.8762 443.92C18.201 437.621 -1.30921 431.886 -20.1865 426.35C-51.089 417.282 -80.5056 408.666 -107.803 398.468" fill="#68C6B8"/>
<path d="M-107.748 410.389V420.389C-82.4319 429.513 -55.6845 437.395 -28.1666 445.502C-8.95916 451.152 10.9087 457 30.8317 463.44C47.7001 468.921 62.7524 475.87 76.0435 484.203H92.3616C76.6214 472.339 57.2488 462.056 33.3633 454.288C13.3303 447.819 -6.59263 441.943 -25.8551 436.293C-54.5838 427.847 -82.0741 419.739 -107.748 410.417" fill="#68C6B8"/>
<path d="M-107.748 422.112V432.395C-84.138 440.7 -59.3719 448.017 -33.9179 455.531C-14.3252 461.322 5.92799 467.31 26.2087 473.892C35.3446 476.887 43.9027 480.361 52.0204 484.175H72.3561C59.808 476.661 45.4161 470.022 28.8229 464.57C8.43212 457.932 -11.9036 451.915 -31.5238 446.124C-57.8309 438.355 -83.4225 430.785 -107.693 422.084" fill="#68C6B8"/>
<path d="M-107.748 433.92V444.372C-85.8716 451.887 -63.0318 458.638 -39.6691 465.587C-19.9113 471.435 0.506977 477.508 20.9528 484.203H47.9753C40.6005 480.842 32.7029 477.706 24.2549 474.91C3.47891 468.102 -17.2145 461.943 -37.2475 456.011C-61.5183 448.807 -85.1561 441.802 -107.748 433.92Z" fill="#68C6B8"/>
<path d="M-107.748 445.672V456.293C-87.6328 463.045 -66.7467 469.26 -45.3928 475.616C-36.0092 478.412 -26.4881 481.237 -16.8843 484.175H16.4948C-3.56568 477.621 -23.5712 471.633 -42.9437 465.87C-65.1782 459.26 -86.9173 452.791 -107.776 445.672" fill="#68C6B8"/>
<path d="M-107.748 457.423V468.186C-90.9624 473.723 -73.6812 478.921 -56.0973 484.175H-20.6268C-30.0379 481.294 -39.3939 478.497 -48.5849 475.757C-68.8105 469.712 -88.6234 463.808 -107.748 457.395" fill="#68C6B8"/>
<path d="M-107.748 469.118V480.051C-103.456 481.463 -99.1077 482.847 -94.7324 484.203H-59.0967C-75.6625 479.232 -91.9255 474.316 -107.748 469.118Z" fill="#68C6B8"/>
<path d="M-107.748 480.785V484.203H-97.0714C-100.649 483.073 -104.226 481.943 -107.748 480.785Z" fill="#68C6B8"/>
</g>
</g>
</svg>
