<svg width="200" height="200" viewBox="0 0 200 200" fill="none" xmlns="http://www.w3.org/2000/svg">
<g opacity="0.91">
<mask id="mask0_444_1086" style="mask-type:luminance" maskUnits="userSpaceOnUse" x="0" y="0" width="200" height="200">
<path d="M184 0H16C7.16344 0 0 7.16344 0 16V184C0 192.837 7.16344 200 16 200H184C192.837 200 200 192.837 200 184V16C200 7.16344 192.837 0 184 0Z" fill="white"/>
</mask>
<g mask="url(#mask0_444_1086)">
<path d="M210.248 -3.17508H207.799C208.597 -3.00558 209.45 -2.83609 210.248 -2.6666V-3.17508Z" fill="#FDB913"/>
<path d="M166.357 -3.17508H159.12C174.75 0.892766 191.729 4.79111 210.276 8.74596V6.90978C194.563 3.54816 179.951 0.243041 166.357 -3.17508Z" fill="#FDB913"/>
<path d="M124.75 -3.17508H118.311C144.618 5.58208 174.778 12.6443 210.276 20.1868V18.1528C177.612 11.2036 149.489 4.67812 124.75 -3.17508Z" fill="#FDB913"/>
<path d="M92.059 -3.17508H86.3628C119.714 11.2036 159.753 20.78 210.248 31.6276V29.3959C162.505 19.1698 124.172 9.98891 92.059 -3.17508Z" fill="#FDB913"/>
<path d="M65.2291 -3.17508H60.2209C98.5257 17.6161 146.214 29.2264 210.221 43.0684V40.6672C148.856 27.3902 102.543 16.1754 65.2016 -3.17508" fill="#FDB913"/>
<path d="M42.637 -3.17508H38.0139C79.9787 24.6783 133.721 37.8423 210.248 54.5374V51.9385C136.363 35.8084 83.8037 22.9834 42.637 -3.20333" fill="#FDB913"/>
<path d="M23.0442 -3.17508H18.5863C62.6424 31.7123 120.32 46.1475 206.313 65.1873C207.662 65.498 208.955 65.8088 210.276 66.1477V63.3511C209.12 63.0686 207.992 62.7861 206.809 62.5036C123.154 44.0006 66.4674 29.8479 23.0442 -3.17508Z" fill="#FDB913"/>
<path d="M5.54286 -3.17508H1.22256C46.6821 38.9158 107.359 54.5374 201.663 75.6676C204.607 76.3456 207.441 77.0801 210.248 77.8428V74.8484C207.634 74.1422 204.965 73.436 202.213 72.8145C110.193 52.221 50.4245 36.8819 5.54286 -3.17508Z" fill="#FDB913"/>
<path d="M-10.0598 -3.17508H-14.215C34.7393 49.2266 99.654 64.0291 197.067 86.148C201.635 87.1932 206.038 88.4079 210.248 89.7073V86.487C206.203 85.2723 202.02 84.1423 197.645 83.1253C102.296 61.4867 38.2616 46.9385 -10.0598 -3.17508Z" fill="#FDB913"/>
<path d="M-24.5892 -3.17508H-28.7719C20.9804 57.1646 88.4542 72.7298 192.444 96.6283C198.718 98.0973 204.635 99.7922 210.248 101.713V98.295C204.827 96.4588 199.104 94.8486 193.077 93.4362C91.1509 70.0179 24.5577 54.6504 -24.5892 -3.17508Z" fill="#FDB913"/>
<path d="M-38.1005 -3.17508H-42.2832C7.93692 65.1873 77.6397 81.4587 187.849 107.109C195.856 109.001 203.314 111.29 210.248 113.917V110.301C203.479 107.787 196.269 105.583 188.509 103.747C80.364 78.5773 11.5418 62.5036 -38.1005 -3.17508Z" fill="#FDB913"/>
<path d="M-50.9513 -3.17508H-55.1615C-5.05151 73.1817 65.807 89.9333 180.529 116.939L183.198 117.561C193.022 119.905 201.993 122.872 210.221 126.29V122.42C202.158 119.143 193.435 116.318 183.914 114.03L181.244 113.408C68.5863 86.8824 -1.41915 70.3286 -50.9513 -3.17508Z" fill="#FDB913"/>
<path d="M-63.0317 -3.17508H-66.8566C-16.0311 81.6282 58.0194 99.3402 173.237 126.798L178.63 128.069C190.325 130.922 200.81 134.567 210.276 138.889V134.764C201.002 130.668 190.738 127.137 179.401 124.397L174.007 123.098C57.1389 95.2441 -13.8297 78.2665 -63.0317 -3.17508Z" fill="#FDB913"/>
<path d="M-74.0938 -3.17508H-78.3866C-28.3316 89.3119 46.2969 107.504 164.514 136.233L174.007 138.55C187.629 141.855 199.626 146.29 210.248 151.572V147.166C199.791 142.137 188.041 137.9 174.805 134.68L165.284 132.363C49.1037 104.114 -24.6442 86.1762 -74.0938 -3.17508Z" fill="#FDB913"/>
<path d="M-84.9634 -3.17508H-89.4213C-40.0818 97.5888 35.5373 116.148 157.386 146.092L169.384 149.03C185.014 152.872 198.526 158.183 210.248 164.539V159.849C198.691 153.804 185.427 148.748 170.237 144.99L158.24 142.053C38.4542 112.617 -36.2017 94.2272 -84.9634 -3.17508Z" fill="#FDB913"/>
<path d="M-95.3376 -3.17508H-99.6579C-50.2909 106.092 29.2082 125.866 150.369 155.923L164.761 159.51C182.483 163.917 197.507 170.188 210.221 177.731V172.731C197.618 165.556 182.868 159.567 165.642 155.273L151.25 151.714C28.1075 121.148 -47.4015 102.335 -95.3376 -3.17508Z" fill="#FDB913"/>
<path d="M-105.106 -3.17508H-107.748V1.59899C-59.2342 115.018 20.8153 135.075 143.462 165.81L160.166 169.991C179.181 174.793 195.856 181.827 210.248 190.951V185.867C196.654 177.448 180.446 170.471 161.101 165.584L144.398 161.403C22.1086 130.753 -57.3905 110.781 -105.106 -3.17508Z" fill="#FDB913"/>
<path d="M-107.748 13.6613V24.3959C-59.3167 126.064 19.1367 145.979 136.638 175.669C142.829 177.222 149.131 178.833 155.543 180.471C176.621 185.838 194.866 193.889 210.248 204.567V199.228C195.746 189.482 178.08 181.403 156.533 175.895C150.122 174.256 143.82 172.674 137.629 171.092C18.2836 140.923 -60.3624 120.951 -107.748 13.6613Z" fill="#FDB913"/>
<path d="M-107.748 35.7802V46.1475C-59.4268 137.279 17.4031 156.883 129.896 185.584C136.776 187.336 143.793 189.115 150.92 190.98C174.172 196.968 193.903 206.234 210.248 218.579V212.844C194.921 201.658 175.823 192.364 151.965 186.206C144.811 184.369 137.794 182.561 130.914 180.81C16.6326 151.657 -60.3624 131.939 -107.748 35.7802Z" fill="#FDB913"/>
<path d="M-107.748 56.7691V65.8088C-58.4362 148.719 18.8065 168.607 123.209 195.471C130.749 197.42 138.454 199.398 146.297 201.432C171.751 208.07 193.077 218.551 210.221 232.76V226.743C194.178 213.974 173.649 203.353 147.37 196.516C139.527 194.483 131.822 192.477 124.255 190.556C14.8989 162.42 -60.4175 142.985 -107.748 56.7691Z" fill="#FDB913"/>
<path d="M-107.748 76.6846V85.2723C-58.6013 159.934 16.5775 179.454 116.632 205.387C124.805 207.505 133.171 209.68 141.701 211.912C169.494 219.229 192.362 231.15 210.248 247.421V240.924C193.572 226.46 171.641 214.398 142.857 206.827C134.299 204.567 125.934 202.42 117.761 200.274C13.0552 173.126 -60.5275 154.058 -107.748 76.6846Z" fill="#FDB913"/>
<path d="M-107.748 94.5661V103.804C-58.8214 171.121 14.2385 190.245 110.083 215.302C118.889 217.59 127.887 219.963 137.078 222.392C167.32 230.443 191.729 243.862 210.248 262.449V255.472C193.05 239.201 169.742 225.5 138.262 217.11C129.071 214.652 120.045 212.308 111.239 210.019C13.9633 184.595 -59.5644 165.386 -107.748 94.5661Z" fill="#FDB913"/>
<path d="M-107.748 112.561V121.6C-59.1516 182.364 11.8169 201.065 103.617 225.246C113.028 227.732 122.631 230.246 132.483 232.901C165.284 241.715 191.261 256.743 210.248 277.845V270.444C192.637 252.167 168.036 236.658 133.721 227.449C123.87 224.794 114.238 222.279 104.855 219.794C11.6518 195.245 -59.8121 176.431 -107.748 112.561Z" fill="#FDB913"/>
<path d="M-107.748 129.793V138.663C-59.5644 193.579 9.31283 211.856 97.2049 235.189C107.194 237.845 117.403 240.557 127.86 243.381C163.413 253.043 190.931 270.02 210.248 293.975V285.84C192.389 265.416 166.522 247.901 129.153 237.76C118.696 234.935 108.46 232.195 98.4707 229.568C9.23027 205.867 -60.1423 187.477 -107.748 129.793Z" fill="#FDB913"/>
<path d="M-107.748 146.346V154.369C-99.1076 163.437 -89.779 171.686 -79.5974 179.03C-34.5782 211.601 23.5395 227.138 90.8482 245.105C101.388 247.929 112.175 250.811 123.237 253.834C161.734 264.399 190.793 283.467 210.248 310.642V301.659C192.307 278.947 165.202 259.173 124.585 248.042C113.523 245.02 102.708 242.11 92.1416 239.314C6.72613 216.488 -60.5551 198.522 -107.748 146.318" fill="#FDB913"/>
<path d="M-107.748 162.307V169.906C-59.5919 216.262 6.09323 233.946 84.5191 255.048C95.6088 258.043 106.974 261.093 118.614 264.314C160.276 275.839 190.876 297.252 210.248 328.1V318.185C192.389 292.93 164.183 270.585 120.017 258.382C108.377 255.161 96.9847 252.11 85.895 249.116C4.13947 227.138 -61.0504 209.567 -107.748 162.307Z" fill="#FDB913"/>
<path d="M-107.748 177.759V185.358C-60.3074 227.506 3.14881 244.709 78.2726 265.02C89.8851 268.156 101.8 271.376 114.018 274.794C159.12 287.393 191.316 311.49 210.276 346.546V335.36C192.719 307.393 163.523 282.111 115.477 268.692C103.259 265.274 91.3436 262.054 79.7035 258.89C1.49775 237.703 -61.6007 220.613 -107.721 177.759" fill="#FDB913"/>
<path d="M-107.748 191.771V200.358C-61.0779 238.72 0.176867 255.387 72.0535 274.964C84.1889 278.269 96.627 281.659 109.395 285.246C158.377 299.06 192.169 326.32 210.276 366.377V353.439C193.325 322.45 163.303 293.721 110.909 278.947C98.1405 275.359 85.6749 271.941 73.5395 268.636C0.534617 248.749 -61.3255 231.884 -107.721 191.714" fill="#FDB913"/>
<path d="M-107.748 206.404V214.991C-61.9309 249.935 -2.87761 266.15 65.862 284.992C78.4927 288.467 91.4812 291.998 104.745 295.783C158.24 311.009 193.6 342.168 210.221 388.44V372.818C194.233 338.524 163.605 305.642 106.313 289.342C93.0222 285.557 80.0337 281.998 67.3755 278.523C-2.46483 259.37 -62.1511 243.014 -107.748 206.432" fill="#FDB913"/>
<path d="M-107.748 220.669V229.257C-62.8666 261.15 -5.95961 276.828 59.7531 294.936C72.8791 298.552 86.3628 302.28 100.149 306.235C159.175 323.185 196.159 359.4 210.248 413.807V393.722C195.691 355.784 164.871 317.733 101.773 299.625C87.9589 295.642 74.4751 291.941 61.3216 288.297C-5.46429 269.907 -62.9766 254.031 -107.748 220.669Z" fill="#FDB913"/>
<path d="M-107.748 234.624V242.873C-63.582 272.421 -8.93152 287.619 53.6441 304.964C67.2104 308.721 81.2445 312.62 95.5263 316.744C155.763 334.202 193.105 371.518 206.561 427.677C207.799 432.847 208.762 437.96 209.505 442.96C209.753 444.203 210.001 445.446 210.221 446.689V417.366C197.893 375.304 167.568 330.36 97.1774 309.964C82.8681 305.811 68.8064 301.913 55.2401 298.156C-8.5738 280.472 -63.9397 265.105 -107.776 234.653" fill="#FDB913"/>
<path d="M-107.748 248.438V256.319C-63.8847 284.088 -10.39 298.919 48.6083 315.275C62.3122 319.06 76.4839 322.987 90.9033 327.168C151.333 344.964 188.757 382.592 202.131 438.949C202.984 442.564 203.699 446.124 204.304 449.627C207.084 461.802 208.46 473.525 209.01 484.119H210.221V448.299C210.001 446.519 209.78 444.711 209.505 442.875C200.067 396.914 171.393 343.383 92.6094 320.162C78.1625 315.953 63.9633 312.026 50.2319 308.241C-11.1054 291.235 -64.7378 276.376 -107.776 248.381" fill="#FDB913"/>
<path d="M209.533 442.932C209.808 444.768 210.028 446.548 210.248 448.355V446.661C210.028 445.418 209.78 444.175 209.533 442.932Z" fill="#FDB913"/>
<path d="M-107.748 261.828V269.879C-65.068 295.303 -13.7747 309.597 42.5544 325.275C56.7261 329.23 71.3931 333.326 86.2803 337.676C146.957 355.699 184.437 393.553 197.728 450.192C198.306 452.621 198.801 455.022 199.269 457.423C201.525 466.661 202.984 475.672 203.864 484.175H207.194V483.949C207.194 473.78 206.478 462.084 204.332 449.683C194.04 404.513 164.706 353.326 88.0965 330.558C73.1543 326.179 58.4597 322.083 44.2605 318.128C-14.2425 301.828 -65.7559 287.45 -107.721 261.828" fill="#FDB913"/>
<path d="M204.304 449.683C206.451 462.084 207.166 473.779 207.166 483.949V484.175H209.01C208.46 473.554 207.056 461.83 204.304 449.683Z" fill="#FDB913"/>
<path d="M-107.748 275.02V283.184C-66.3063 306.461 -17.1594 320.247 36.5005 335.275C51.14 339.371 66.2748 343.609 81.6573 348.157C142.554 366.405 180.116 404.485 193.325 461.378C193.6 462.565 193.848 463.751 194.095 464.938C195.829 471.463 197.122 477.904 198.113 484.175H202.433C202.02 475.842 201.057 466.802 199.269 457.423C188.344 412.875 158.57 363.326 83.5285 340.84C68.091 336.292 52.9286 332.026 38.2891 327.93C-17.4346 312.309 -66.8842 298.467 -107.721 275.02" fill="#FDB913"/>
<path d="M199.269 457.423C201.057 466.802 202.02 475.842 202.433 484.175L203.864 484.175C202.984 475.672 201.525 466.633 199.269 457.423Z" fill="#FDB913"/>
<path d="M-107.748 287.393V296.292C-67.5996 317.648 -20.5991 330.868 30.5016 345.275C45.6089 349.541 61.2115 353.919 77.0343 358.637C138.096 377.084 175.741 415.361 188.867 472.395C189.995 476.35 190.958 480.277 191.784 484.175H197.095C196.462 477.989 195.499 471.52 194.095 464.938C182.51 421.124 152.296 373.326 78.933 351.151C63.0277 346.405 47.3975 341.998 32.2902 337.761C-19.7185 323.128 -67.4345 309.682 -107.748 287.393Z" fill="#FDB913"/>
<path d="M194.095 464.938C195.471 471.52 196.434 477.989 197.095 484.175L198.113 484.175C197.15 477.904 195.829 471.463 194.095 464.938Z" fill="#FDB913"/>
<path d="M-107.748 300.275V309.258C-68.948 328.834 -24.0388 341.546 24.5302 355.275C40.0778 359.682 56.1207 364.23 72.4113 369.117C131.905 387.225 169.082 424.09 183.143 478.582C183.721 480.446 184.299 482.311 184.794 484.175H191.151C190.546 480.362 189.803 476.491 188.894 472.565C188.894 472.508 188.867 472.452 188.839 472.395C176.594 429.372 146.022 383.298 74.3651 361.462C58.0195 356.547 41.9215 351.998 26.3464 347.592C-23.1307 333.58 -68.7279 320.67 -107.776 300.246" fill="#FDB913"/>
<path d="M188.867 472.395C188.867 472.395 188.894 472.508 188.922 472.565C189.83 476.491 190.573 480.362 191.178 484.175H191.811C190.986 480.277 190.023 476.35 188.894 472.395" fill="#FDB913"/>
<path d="M-107.748 312.958V322.055C-70.3239 340.021 -27.5336 352.196 18.5863 365.304C34.5742 369.852 51.085 374.541 67.8158 379.626C125.493 397.338 162.285 432.48 177.337 484.203H184.602C184.602 484.203 184.547 483.921 184.519 483.808C184.106 482.056 183.611 480.362 183.171 478.61C170.072 436.773 139.087 393.072 69.8246 371.801C53.0112 366.716 36.473 361.999 20.4851 357.451C-26.5154 344.089 -70.0212 331.688 -107.748 312.958Z" fill="#FDB913"/>
<path d="M183.171 478.582C183.611 480.305 184.106 482 184.519 483.78C184.547 483.921 184.574 484.062 184.602 484.175H184.822C184.299 482.311 183.749 480.446 183.171 478.582Z" fill="#FDB913"/>
<path d="M-107.748 325.501V334.682C-71.7548 351.151 -31.0284 362.818 12.6425 375.304C29.0431 379.993 45.9941 384.824 63.1653 390.078C116.825 406.688 152.378 438.299 169.247 484.175H177.117C163.083 443.836 131.822 402.677 65.2566 382.084C48.0029 376.801 31.0244 371.97 14.5962 367.281C-29.9827 354.541 -71.4246 342.676 -107.748 325.501Z" fill="#FDB913"/>
<path d="M-107.748 337.931V346.998C-72.6904 362.479 -33.6701 373.722 6.75365 385.304C23.5671 390.135 40.9583 395.135 58.5698 400.558C107.992 415.954 142.059 444.062 160.331 484.175H168.696C152.956 447.31 121.531 411.349 60.7437 392.394C43.0772 386.942 25.6309 381.942 8.78997 377.112C-33.3949 364.993 -72.8005 353.693 -107.721 337.931" fill="#FDB913"/>
<path d="M-107.748 350.219V359.428C-74.2039 373.665 -37.2749 384.343 0.892354 395.332C18.1185 400.304 35.9501 405.445 53.9468 411.039C98.8835 425.163 131.107 449.711 150.369 484.175H159.285C142.169 451.067 111.156 419.994 56.1758 402.705C38.0965 397.084 20.2374 391.942 2.95619 386.971C-36.8897 375.473 -74.2865 364.71 -107.721 350.219" fill="#FDB913"/>
<path d="M-107.748 362.422V371.688C-75.8275 384.824 -41.0724 394.88 -4.96897 405.361C12.67 410.474 30.9143 415.756 49.3238 421.519C89.5274 434.231 119.549 455.248 139.252 484.175H148.883C130.804 455.079 100.755 428.581 51.6078 413.016C33.1158 407.225 14.8439 401.914 -2.85009 396.801C-40.412 385.925 -75.7724 375.671 -107.721 362.394" fill="#FDB913"/>
<path d="M-107.748 374.541V384.004C-77.451 396.01 -44.7048 405.558 -10.8028 415.417C7.24897 420.672 25.9061 426.095 44.7008 432.028C79.8411 443.214 107.221 460.7 126.759 484.203H137.271C118.696 459.26 90.2429 437.112 47.0398 423.355C28.1626 417.395 9.4504 411.943 -8.62884 406.688C-43.9343 396.434 -77.3134 386.716 -107.721 374.541" fill="#FDB913"/>
<path d="M-107.748 386.547V396.18C-79.0746 407.169 -48.3646 416.152 -16.609 425.417C1.82795 430.813 20.8978 436.378 40.0778 442.48C69.687 451.971 93.7376 465.955 112.285 484.175H124.227C105.763 463.553 79.5109 445.531 42.4718 433.638C23.1818 427.508 4.08441 421.915 -14.4076 416.519C-47.4841 406.858 -78.8819 397.677 -107.748 386.547Z" fill="#FDB913"/>
<path d="M-107.748 398.496V408.299C-80.7532 418.327 -52.0245 426.745 -22.4153 435.417C-3.59307 440.926 15.8896 446.632 35.4273 452.904C59.0376 460.531 79.1807 470.983 95.7739 484.147H109.368C91.7563 467.904 68.5313 453.836 37.8764 443.92C18.2011 437.621 -1.30908 431.886 -20.1863 426.35C-51.0889 417.282 -80.5055 408.666 -107.803 398.468" fill="#FDB913"/>
<path d="M-107.748 410.389V420.389C-82.4317 429.513 -55.6844 437.395 -28.1665 445.502C-8.95904 451.152 10.9089 457 30.8318 463.44C47.7002 468.921 62.7525 475.87 76.0437 484.203H92.3617C76.6215 472.339 57.2489 462.056 33.3634 454.288C13.3304 447.819 -6.59251 441.943 -25.855 436.293C-54.5837 427.847 -82.074 419.739 -107.748 410.417" fill="#FDB913"/>
<path d="M-107.748 422.112V432.395C-84.1379 440.7 -59.3718 448.017 -33.9178 455.531C-14.325 461.322 5.92811 467.31 26.2088 473.892C35.3447 476.887 43.9028 480.361 52.0205 484.175H72.3562C59.8081 476.661 45.4163 470.022 28.823 464.57C8.43224 457.932 -11.9035 451.915 -31.5237 446.124C-57.8308 438.355 -83.4224 430.785 -107.693 422.084" fill="#FDB913"/>
<path d="M-107.748 433.92V444.372C-85.8715 451.887 -63.0317 458.638 -39.669 465.587C-19.9112 471.435 0.507099 477.508 20.9529 484.203H47.9754C40.6006 480.842 32.703 477.706 24.255 474.91C3.47903 468.102 -17.2144 461.943 -37.2474 456.011C-61.5182 448.807 -85.156 441.802 -107.748 433.92Z" fill="#FDB913"/>
<path d="M-107.748 445.672V456.293C-87.6326 463.045 -66.7466 469.26 -45.3927 475.616C-36.0091 478.412 -26.4879 481.237 -16.8842 484.175H16.495C-3.56556 477.621 -23.571 471.633 -42.9436 465.87C-65.1781 459.26 -86.9172 452.791 -107.776 445.672" fill="#FDB913"/>
<path d="M-107.748 457.423V468.186C-90.9623 473.723 -73.6811 478.921 -56.0972 484.175H-20.6266C-30.0377 481.294 -39.3938 478.497 -48.5848 475.757C-68.8104 469.712 -88.6233 463.808 -107.748 457.395" fill="#FDB913"/>
<path d="M-107.748 469.118V480.051C-103.455 481.463 -99.1076 482.847 -94.7322 484.203H-59.0966C-75.6624 479.232 -91.9254 474.316 -107.748 469.118Z" fill="#FDB913"/>
<path d="M-107.748 480.785V484.203H-97.0713C-100.649 483.073 -104.226 481.943 -107.748 480.785Z" fill="#FDB913"/>
</g>
</g>
</svg>
