<svg width="212" height="212" viewBox="0 0 212 212" fill="none" xmlns="http://www.w3.org/2000/svg">
<g opacity="0.91">
<mask id="mask0_444_1091" style="mask-type:luminance" maskUnits="userSpaceOnUse" x="0" y="0" width="212" height="212">
<circle cx="106" cy="106" r="106" fill="white"/>
</mask>
<g mask="url(#mask0_444_1091)">
<path d="M211.833 -47.1535H210.211C210.739 -47.0412 211.304 -46.9289 211.833 -46.8166V-47.1535Z" fill="url(#paint0_linear_444_1091)"/>
<path d="M182.755 -47.1535H177.961C188.316 -44.4585 199.564 -41.8759 211.851 -39.2558V-40.4723C201.442 -42.6993 191.761 -44.889 182.755 -47.1535Z" fill="url(#paint1_linear_444_1091)"/>
<path d="M155.191 -47.1535H150.925C168.353 -41.3519 188.334 -36.6732 211.851 -31.6763V-33.0237C190.212 -37.6276 171.58 -41.9508 155.191 -47.1535Z" fill="url(#paint2_linear_444_1091)"/>
<path d="M133.533 -47.1535H129.759C151.855 -37.6276 178.38 -31.2833 211.833 -24.0967V-25.5752C180.203 -32.35 154.808 -38.4324 133.533 -47.1535Z" fill="url(#paint3_linear_444_1091)"/>
<path d="M115.758 -47.1535H112.44C137.817 -33.3793 169.411 -25.6875 211.815 -16.5172V-18.108C171.161 -26.904 140.479 -34.3338 115.74 -47.1535" fill="url(#paint4_linear_444_1091)"/>
<path d="M100.791 -47.1535H97.7279C125.53 -28.7006 161.134 -19.9795 211.833 -8.91895V-10.6407C162.884 -21.3269 128.064 -29.8235 100.791 -47.1722" fill="url(#paint5_linear_444_1091)"/>
<path d="M87.8105 -47.1535H84.8571C114.044 -24.0406 152.256 -14.4773 209.226 -1.86343C210.119 -1.65757 210.976 -1.4517 211.851 -1.22712V-3.0799C211.086 -3.26705 210.338 -3.4542 209.554 -3.64135C154.133 -15.8996 116.578 -25.2758 87.8105 -47.1535Z" fill="url(#paint6_linear_444_1091)"/>
<path d="M76.2158 -47.1535H73.3536C103.471 -19.2683 143.669 -8.91895 206.145 5.0798C208.096 5.52896 209.974 6.01554 211.833 6.52085V4.53707C210.101 4.06919 208.333 3.60132 206.51 3.18959C145.547 -10.4536 105.95 -20.6158 76.2158 -47.1535Z" fill="url(#paint7_linear_444_1091)"/>
<path d="M65.8791 -47.1535H63.1263C95.5585 -12.4374 138.564 -2.63074 203.101 12.023C206.127 12.7155 209.044 13.5202 211.833 14.3811V12.2476C209.153 11.4429 206.382 10.6943 203.484 10.0205C140.315 -4.31508 97.892 -13.9533 65.8791 -47.1535Z" fill="url(#paint8_linear_444_1091)"/>
<path d="M56.2533 -47.1535H53.4823C86.4432 -7.17846 131.145 3.13345 200.038 18.9663C204.195 19.9394 208.114 21.0623 211.833 22.3349V20.0704C208.242 18.854 204.45 17.7872 200.457 16.8515C132.931 1.33682 88.8131 -8.84409 56.2533 -47.1535Z" fill="url(#paint9_linear_444_1091)"/>
<path d="M47.3021 -47.1535H44.5311C77.8019 -1.86343 123.98 8.91636 196.993 25.9095C202.299 27.1634 207.239 28.6793 211.833 30.4198V28.0243C207.348 26.3586 202.572 24.8989 197.431 23.6824C125.785 7.00743 80.1901 -3.64135 47.3021 -47.1535Z" fill="url(#paint10_linear_444_1091)"/>
<path d="M38.7884 -47.1535H35.9991C69.197 3.43289 116.141 14.5308 192.144 32.4223L193.912 32.834C200.421 34.3873 206.364 36.3524 211.815 38.6169V36.053C206.473 33.882 200.694 32.0105 194.386 30.4946L192.618 30.0829C117.982 12.5096 71.6035 1.54268 38.7884 -47.1535Z" fill="url(#paint11_linear_444_1091)"/>
<path d="M30.7852 -47.1535H28.2511C61.923 9.02864 110.982 20.7629 187.313 38.9538L190.886 39.7959C198.634 41.6861 205.58 44.1004 211.851 46.9638V44.2314C205.708 41.5177 198.908 39.1784 191.397 37.363L187.823 36.5021C110.398 18.0492 63.3815 6.80157 30.7852 -47.1535Z" fill="url(#paint12_linear_444_1091)"/>
<path d="M23.4565 -47.1535H20.6125C53.774 14.1191 103.215 26.1715 181.534 45.2046L187.823 46.7392C196.848 48.9288 204.796 51.8671 211.833 55.3667V52.4472C204.906 49.116 197.121 46.3087 188.352 44.1752L182.044 42.6406C105.075 23.9257 56.2169 12.0417 23.4565 -47.1535Z" fill="url(#paint13_linear_444_1091)"/>
<path d="M16.2554 -47.1535H13.3021C45.9895 19.6026 96.0872 31.8983 176.812 51.7361L184.761 53.6824C195.116 56.2276 204.067 59.746 211.833 63.9569V60.8502C204.176 56.8452 195.389 53.4952 185.326 51.0062L177.377 49.0598C98.0196 29.5589 48.56 17.3755 16.2554 -47.1535Z" fill="url(#paint14_linear_444_1091)"/>
<path d="M9.38248 -47.1535H6.52028C39.2259 25.2357 91.8941 38.3362 172.163 58.2488L181.698 60.6256C193.438 63.5452 203.392 67.6999 211.815 72.6967V69.3842C203.465 64.6306 193.694 60.6631 182.281 57.8184L172.747 55.4603C91.1649 35.2108 41.1402 22.7467 9.38248 -47.1535Z" fill="url(#paint15_linear_444_1091)"/>
<path d="M2.91062 -47.1535H1.16048V-43.9907C33.301 31.1497 86.3338 44.4372 167.587 64.7991L178.653 67.5689C191.251 70.7504 202.299 75.4104 211.833 81.4553V78.0866C202.827 72.5096 192.089 67.887 179.273 64.6493L168.207 61.8795C87.1906 41.5739 34.5225 28.3424 2.91062 -47.1535Z" fill="url(#paint16_linear_444_1091)"/>
<path d="M1.16048 -35.9994V-28.8877C33.2463 38.4672 85.2217 51.6612 163.066 71.3306C167.168 72.3599 171.343 73.4266 175.591 74.5121C189.555 78.0679 201.642 83.4017 211.833 90.4759V86.9388C202.226 80.4821 190.522 75.1297 176.247 71.4803C171.999 70.3948 167.824 69.3468 163.723 68.2987C84.6566 48.3112 32.5536 35.0798 1.16048 -35.9994Z" fill="url(#paint17_linear_444_1091)"/>
<path d="M1.16048 -21.3456V-14.4773C33.1734 45.897 84.0732 58.8851 158.6 77.8995C163.157 79.0598 167.806 80.2389 172.528 81.474C187.933 85.4416 201.004 91.5801 211.833 99.7585V95.9594C201.679 88.5483 189.027 82.3911 173.221 78.3112C168.481 77.0947 163.832 75.897 159.274 74.7367C83.5627 55.4229 32.5536 42.3599 1.16048 -21.3456Z" fill="url(#paint18_linear_444_1091)"/>
<path d="M1.16048 -7.44047V-1.4517C33.8297 53.4765 85.003 66.6518 154.17 84.4497C159.165 85.741 164.27 87.0511 169.465 88.3985C186.329 92.7966 200.457 99.7398 211.815 109.153V105.167C201.186 96.708 187.586 89.6712 170.176 85.1422C164.981 83.7947 159.876 82.4659 154.863 81.1933C82.4142 62.5533 32.5171 49.6774 1.16048 -7.44047Z" fill="url(#paint19_linear_444_1091)"/>
<path d="M1.16048 5.75354V11.4429C33.7203 60.9064 83.5263 73.8384 149.813 91.0186C155.227 92.4223 160.769 93.8633 166.421 95.3418C184.834 100.189 199.983 108.087 211.833 118.866V114.562C200.785 104.98 186.256 96.9887 167.186 91.9731C161.517 90.4759 155.975 89.0536 150.56 87.6312C81.1927 69.6462 32.4442 57.0137 1.16048 5.75354Z" fill="url(#paint20_linear_444_1091)"/>
<path d="M1.16048 17.6001V23.7198C33.5745 68.3175 81.9767 80.9874 145.474 97.5876C151.308 99.1035 157.269 100.676 163.358 102.285C183.393 107.619 199.564 116.508 211.833 128.823V124.2C200.439 113.42 184.998 104.344 164.142 98.7853C158.053 97.1571 152.073 95.6038 146.239 94.0879C81.7944 77.2445 33.0822 64.5183 1.16048 17.6001Z" fill="url(#paint21_linear_444_1091)"/>
<path d="M1.16048 29.5215V35.5102C33.3557 75.766 80.3724 88.1552 141.19 104.175C147.424 105.822 153.787 107.488 160.314 109.247C182.044 115.086 199.254 125.042 211.833 139.022V134.119C200.166 122.011 183.867 111.736 161.134 105.635C154.607 103.876 148.227 102.21 142.01 100.563C80.263 84.3 32.9182 71.8359 1.16048 29.5215Z" fill="url(#paint22_linear_444_1091)"/>
<path d="M1.16048 40.9376V46.814C33.0822 83.1958 78.7134 95.3043 136.942 110.763C143.56 112.522 150.323 114.319 157.251 116.19C180.805 122.591 199.035 133.838 211.833 149.709V144.319C200.001 130.788 182.865 119.185 158.108 112.466C151.18 110.594 144.398 108.779 137.781 107.039C78.6587 91.3368 32.6994 79.1534 1.16048 40.9376Z" fill="url(#paint23_linear_444_1091)"/>
<path d="M1.16048 51.9045V57.2195C6.88489 63.227 13.0651 68.6918 19.8104 73.5576C49.6356 95.1359 88.1386 105.429 132.731 117.332C139.713 119.203 146.859 121.112 154.188 123.115C179.693 130.114 198.944 142.747 211.833 160.75V154.799C199.947 139.752 181.99 126.652 155.081 119.278C147.753 117.276 140.588 115.348 133.587 113.495C76.9997 98.3736 32.4259 86.4709 1.16048 51.8858" fill="url(#paint24_linear_444_1091)"/>
<path d="M1.16048 62.4784V67.5127C33.064 98.2239 76.5804 109.939 128.538 123.919C135.885 125.903 143.414 127.924 151.125 130.058C178.726 137.694 198.999 151.879 211.833 172.316V165.747C200.001 149.016 181.315 134.213 152.055 126.128C144.344 123.994 136.796 121.973 129.449 119.989C75.2861 105.429 32.0978 93.7884 1.16048 62.4784Z" fill="url(#paint25_linear_444_1091)"/>
<path d="M1.16048 72.7155V77.7498C32.59 105.672 74.6297 117.07 124.399 130.526C132.093 132.603 139.986 134.737 148.081 137.001C177.961 145.348 199.291 161.312 211.851 184.537V177.126C200.22 158.598 180.878 141.848 149.047 132.959C140.953 130.694 133.059 128.561 125.347 126.465C73.5359 112.428 31.7332 101.106 1.17872 72.7155" fill="url(#paint26_linear_444_1091)"/>
<path d="M1.16048 81.998V87.6874C32.0796 113.102 72.6608 124.144 120.279 137.113C128.319 139.303 136.559 141.549 145.018 143.926C177.468 153.077 199.856 171.137 211.851 197.675V189.103C200.621 168.573 180.732 149.54 146.021 139.752C137.562 137.375 129.303 135.111 121.264 132.921C72.8978 119.746 31.9155 108.573 1.17872 81.9606" fill="url(#paint27_linear_444_1091)"/>
<path d="M1.16048 91.6924V97.3817C31.5144 120.532 70.6372 131.274 116.177 143.757C124.545 146.059 133.15 148.399 141.937 150.906C177.377 160.994 200.804 181.636 211.815 212.291V201.942C201.223 179.222 180.932 157.438 142.976 146.639C134.171 144.132 125.566 141.773 117.18 139.472C70.9107 126.783 31.3686 115.947 1.16048 91.7111" fill="url(#paint28_linear_444_1091)"/>
<path d="M1.16048 101.143V106.833C30.8946 127.962 68.5954 138.349 112.13 150.345C120.826 152.74 129.759 155.211 138.893 157.831C177.997 169.06 202.499 193.052 211.833 229.097V215.791C202.189 190.657 181.771 165.448 139.968 153.452C130.816 150.813 121.883 148.361 113.169 145.947C68.9236 133.763 30.8216 123.246 1.16048 101.143Z" fill="url(#paint29_linear_444_1091)"/>
<path d="M1.16048 110.389V115.853C30.4206 135.429 66.6265 145.498 108.083 156.989C117.071 159.478 126.368 162.06 135.83 164.793C175.737 176.359 200.476 201.081 209.39 238.286C210.211 241.711 210.849 245.098 211.341 248.411C211.505 249.234 211.669 250.058 211.815 250.881V231.455C203.648 203.589 183.558 173.813 136.924 160.301C127.444 157.55 118.128 154.967 109.14 152.478C66.8635 140.763 30.1836 130.582 1.14225 110.407" fill="url(#paint30_linear_444_1091)"/>
<path d="M1.16048 119.54V124.762C30.22 143.158 65.6603 152.984 104.747 163.82C113.826 166.327 123.214 168.929 132.767 171.699C172.801 183.489 197.595 208.417 206.455 245.753C207.02 248.149 207.494 250.507 207.895 252.828C209.737 260.894 210.648 268.66 211.013 275.679H211.815V251.948C211.669 250.769 211.523 249.571 211.341 248.355C205.088 217.906 186.092 182.441 133.897 167.057C124.326 164.269 114.919 161.667 105.822 159.16C65.1863 147.893 29.6549 138.049 1.14225 119.503" fill="url(#paint31_linear_444_1091)"/>
<path d="M211.359 248.392C211.541 249.609 211.687 250.788 211.833 251.986V250.863C211.687 250.039 211.523 249.216 211.359 248.392Z" fill="url(#paint32_linear_444_1091)"/>
<path d="M1.16048 128.411V133.745C29.4361 150.588 63.4179 160.058 100.736 170.445C110.125 173.065 119.842 175.778 129.704 178.661C169.903 190.601 194.733 215.679 203.538 253.202C203.921 254.811 204.249 256.402 204.559 257.993C206.054 264.113 207.02 270.083 207.604 275.716H209.81V275.566C209.81 268.829 209.336 261.081 207.914 252.865C201.095 222.94 181.662 189.029 130.908 173.944C121.008 171.044 111.273 168.33 101.866 165.71C63.108 154.911 28.9804 145.385 1.17872 128.411" fill="url(#paint33_linear_444_1091)"/>
<path d="M207.895 252.865C209.317 261.081 209.791 268.829 209.791 275.566V275.716H211.013C210.648 268.679 209.718 260.913 207.895 252.865Z" fill="url(#paint34_linear_444_1091)"/>
<path d="M1.16048 137.151V142.559C28.6157 157.981 61.1756 167.113 96.7252 177.07C106.424 179.783 116.451 182.591 126.642 185.604C166.986 197.694 191.871 222.921 200.621 260.613C200.804 261.399 200.968 262.185 201.132 262.971C202.28 267.294 203.137 271.561 203.793 275.716H206.656C206.382 270.195 205.744 264.206 204.559 257.993C197.322 228.48 177.596 195.654 127.881 180.757C117.654 177.743 107.609 174.918 97.9102 172.204C60.9933 161.855 28.2329 152.684 1.17872 137.151" fill="url(#paint35_linear_444_1091)"/>
<path d="M204.559 257.993C205.744 264.206 206.382 270.195 206.656 275.716L207.604 275.716C207.02 270.083 206.054 264.094 204.559 257.993Z" fill="url(#paint36_linear_444_1091)"/>
<path d="M1.16048 145.348V151.243C27.7589 165.392 58.8968 174.15 92.7509 183.695C102.76 186.521 113.096 189.422 123.579 192.547C164.033 204.768 188.972 230.127 197.668 267.912C198.415 270.532 199.053 273.133 199.6 275.716H203.119C202.7 271.617 202.062 267.332 201.132 262.971C193.457 233.944 173.44 202.279 124.837 187.588C114.299 184.443 103.945 181.524 93.9359 178.717C59.4801 169.022 27.8683 160.114 1.16048 145.348Z" fill="url(#paint37_linear_444_1091)"/>
<path d="M201.132 262.971C202.043 267.332 202.681 271.617 203.119 275.716L203.793 275.716C203.155 271.561 202.28 267.294 201.132 262.971Z" fill="url(#paint38_linear_444_1091)"/>
<path d="M1.16048 153.882V159.833C26.8656 172.803 56.6179 181.224 88.7949 190.32C99.0952 193.239 109.724 196.253 120.516 199.49C159.931 211.486 184.56 235.909 193.876 272.01C194.259 273.246 194.642 274.481 194.97 275.716H199.181C198.78 273.19 198.288 270.626 197.686 268.024C197.686 267.987 197.668 267.949 197.65 267.912C189.537 239.409 169.283 208.885 121.811 194.418C110.982 191.162 100.317 188.149 89.9981 185.229C57.2195 175.947 27.0115 167.394 1.14225 153.863" fill="url(#paint39_linear_444_1091)"/>
<path d="M197.668 267.912C197.668 267.912 197.686 267.987 197.704 268.024C198.306 270.626 198.798 273.19 199.199 275.716H199.619C199.072 273.133 198.434 270.532 197.686 267.912" fill="url(#paint40_linear_444_1091)"/>
<path d="M1.16048 162.285V168.311C25.9541 180.214 54.3026 188.28 84.8571 196.964C95.4491 199.977 106.387 203.083 117.472 206.452C155.683 218.186 180.057 241.468 190.029 275.735H194.842C194.842 275.735 194.806 275.548 194.788 275.473C194.514 274.312 194.186 273.19 193.894 272.029C185.217 244.312 164.689 215.36 118.802 201.268C107.664 197.899 96.707 194.774 86.115 191.761C54.9772 182.909 26.1546 174.693 1.16048 162.285Z" fill="url(#paint41_linear_444_1091)"/>
<path d="M193.894 272.01C194.186 273.152 194.514 274.275 194.788 275.454C194.806 275.548 194.824 275.641 194.842 275.716H194.988C194.642 274.481 194.277 273.246 193.894 272.01Z" fill="url(#paint42_linear_444_1091)"/>
<path d="M1.16048 170.594V176.677C25.0061 187.588 51.9874 195.317 80.9193 203.589C91.7847 206.695 103.015 209.896 114.391 213.377C149.94 224.381 173.494 245.323 184.67 275.716H189.883C180.586 248.991 159.876 221.724 115.776 208.08C104.346 204.581 93.0973 201.38 82.2137 198.274C52.6801 189.833 25.2249 181.973 1.16048 170.594Z" fill="url(#paint43_linear_444_1091)"/>
<path d="M1.16048 178.829V184.836C24.3862 195.092 50.2372 202.541 77.018 210.214C88.1568 213.414 99.6786 216.727 111.346 220.32C144.088 230.52 166.658 249.141 178.763 275.716H184.305C173.877 251.293 153.058 227.469 112.786 214.911C101.082 211.299 89.5241 207.987 78.367 204.787C50.4195 196.758 24.3133 189.272 1.17872 178.829" fill="url(#paint44_linear_444_1091)"/>
<path d="M1.16048 186.97V193.071C23.3836 202.503 47.849 209.578 73.1348 216.858C84.5472 220.151 96.3606 223.558 108.283 227.263C138.054 236.621 159.402 252.884 172.163 275.716H178.07C166.731 253.782 146.185 233.196 109.76 221.742C97.7826 218.018 85.951 214.612 74.5021 211.318C48.1042 203.701 23.3289 196.571 1.17872 186.97" fill="url(#paint45_linear_444_1091)"/>
<path d="M1.16048 195.055V201.193C22.308 209.896 45.3332 216.558 69.2517 223.501C80.9375 226.889 93.0244 230.389 105.221 234.206C131.856 242.628 151.745 256.552 164.798 275.716H171.179C159.201 256.44 139.294 238.885 106.734 228.573C94.4828 224.737 82.3777 221.218 70.6555 217.831C45.7707 210.626 22.3444 203.832 1.17872 195.036" fill="url(#paint46_linear_444_1091)"/>
<path d="M1.16048 203.083V209.353C21.2324 217.307 42.9268 223.632 65.3868 230.164C77.3461 233.645 89.7064 237.238 102.158 241.168C125.438 248.579 143.578 260.164 156.522 275.735H163.486C151.18 259.209 132.33 244.537 103.708 235.423C91.2013 231.474 78.8046 227.862 66.8271 224.381C43.4372 217.587 21.3235 211.15 1.17872 203.083" fill="url(#paint47_linear_444_1091)"/>
<path d="M1.16048 211.037V217.419C20.1568 224.699 40.5021 230.651 61.5402 236.789C73.7547 240.364 86.3885 244.05 99.0952 248.093C118.711 254.381 134.645 263.645 146.932 275.716H154.844C142.612 262.054 125.22 250.114 100.681 242.235C87.9016 238.174 75.2496 234.468 62.9986 230.894C41.0855 224.493 20.2844 218.411 1.16048 211.037Z" fill="url(#paint48_linear_444_1091)"/>
<path d="M1.16048 218.954V225.448C19.0447 232.092 38.0774 237.669 57.6935 243.414C70.1633 247.063 83.0705 250.844 96.0142 254.999C111.656 260.052 125.001 266.976 135.994 275.697H145C133.332 264.936 117.946 255.616 97.6367 249.047C84.6019 244.874 71.6764 241.075 59.1702 237.407C38.6973 231.399 19.2088 225.691 1.12402 218.935" fill="url(#paint49_linear_444_1091)"/>
<path d="M1.16048 226.833V233.458C17.9326 239.503 35.6528 244.724 53.8833 250.095C66.6083 253.838 79.7708 257.712 92.9697 261.979C104.145 265.61 114.117 270.214 122.923 275.735H133.733C123.305 267.874 110.471 261.062 94.6469 255.916C81.3751 251.63 68.1761 247.737 55.4147 243.994C36.382 238.398 18.1696 233.027 1.16048 226.851" fill="url(#paint50_linear_444_1091)"/>
<path d="M1.16048 234.599V241.412C16.8023 246.914 33.2099 251.761 50.0731 256.739C63.0533 260.576 76.471 264.543 89.907 268.904C95.9595 270.888 101.629 273.189 107.007 275.716H120.48C112.167 270.738 102.632 266.34 91.6389 262.728C78.13 258.33 64.6576 254.344 51.6592 250.507C34.2308 245.36 17.2763 240.345 1.19695 234.581" fill="url(#paint51_linear_444_1091)"/>
<path d="M1.16048 242.422V249.347C15.6538 254.325 30.7852 258.798 46.263 263.402C59.3525 267.276 72.8796 271.299 86.4249 275.735H104.327C99.4416 273.508 94.2094 271.43 88.6126 269.578C74.8485 265.067 61.1391 260.987 47.8673 257.057C31.7879 252.285 16.1278 247.644 1.16048 242.422Z" fill="url(#paint52_linear_444_1091)"/>
<path d="M1.16048 250.208V257.244C14.487 261.717 28.3241 265.835 42.471 270.045C48.6876 271.898 54.9954 273.77 61.3579 275.716H83.4716C70.1815 271.374 56.9278 267.407 44.0935 263.589C29.3632 259.209 14.961 254.924 1.14225 250.208" fill="url(#paint53_linear_444_1091)"/>
<path d="M1.16048 257.993V265.123C12.2811 268.791 23.7299 272.235 35.3793 275.716H58.8785C52.6437 273.807 46.4453 271.954 40.3562 270.139C26.9568 266.134 13.8307 262.223 1.16048 257.974" fill="url(#paint54_linear_444_1091)"/>
<path d="M1.16048 265.741V272.984C4.00446 273.919 6.88489 274.836 9.78355 275.735H33.3922C22.4173 272.441 11.6431 269.185 1.16048 265.741Z" fill="url(#paint55_linear_444_1091)"/>
<path d="M1.16048 273.47V275.735H8.23395C5.86398 274.986 3.494 274.238 1.16048 273.47Z" fill="url(#paint56_linear_444_1091)"/>
</g>
</g>
<defs>
<linearGradient id="paint0_linear_444_1091" x1="1.12402" y1="115.054" x2="211.851" y2="115.054" gradientUnits="userSpaceOnUse">
<stop stop-color="#01457B"/>
<stop offset="0.5" stop-color="#0C3B64"/>
<stop offset="1" stop-color="#1B3051"/>
</linearGradient>
<linearGradient id="paint1_linear_444_1091" x1="1.12402" y1="115.054" x2="211.851" y2="115.054" gradientUnits="userSpaceOnUse">
<stop stop-color="#01457B"/>
<stop offset="0.5" stop-color="#0C3B64"/>
<stop offset="1" stop-color="#1B3051"/>
</linearGradient>
<linearGradient id="paint2_linear_444_1091" x1="1.12402" y1="115.054" x2="211.851" y2="115.054" gradientUnits="userSpaceOnUse">
<stop stop-color="#01457B"/>
<stop offset="0.5" stop-color="#0C3B64"/>
<stop offset="1" stop-color="#1B3051"/>
</linearGradient>
<linearGradient id="paint3_linear_444_1091" x1="1.12402" y1="115.054" x2="211.851" y2="115.054" gradientUnits="userSpaceOnUse">
<stop stop-color="#01457B"/>
<stop offset="0.5" stop-color="#0C3B64"/>
<stop offset="1" stop-color="#1B3051"/>
</linearGradient>
<linearGradient id="paint4_linear_444_1091" x1="1.12402" y1="115.054" x2="211.851" y2="115.054" gradientUnits="userSpaceOnUse">
<stop stop-color="#01457B"/>
<stop offset="0.5" stop-color="#0C3B64"/>
<stop offset="1" stop-color="#1B3051"/>
</linearGradient>
<linearGradient id="paint5_linear_444_1091" x1="1.12402" y1="115.054" x2="211.851" y2="115.054" gradientUnits="userSpaceOnUse">
<stop stop-color="#01457B"/>
<stop offset="0.5" stop-color="#0C3B64"/>
<stop offset="1" stop-color="#1B3051"/>
</linearGradient>
<linearGradient id="paint6_linear_444_1091" x1="1.12402" y1="115.054" x2="211.851" y2="115.054" gradientUnits="userSpaceOnUse">
<stop stop-color="#01457B"/>
<stop offset="0.5" stop-color="#0C3B64"/>
<stop offset="1" stop-color="#1B3051"/>
</linearGradient>
<linearGradient id="paint7_linear_444_1091" x1="1.12402" y1="115.054" x2="211.851" y2="115.054" gradientUnits="userSpaceOnUse">
<stop stop-color="#01457B"/>
<stop offset="0.5" stop-color="#0C3B64"/>
<stop offset="1" stop-color="#1B3051"/>
</linearGradient>
<linearGradient id="paint8_linear_444_1091" x1="1.12402" y1="115.054" x2="211.851" y2="115.054" gradientUnits="userSpaceOnUse">
<stop stop-color="#01457B"/>
<stop offset="0.5" stop-color="#0C3B64"/>
<stop offset="1" stop-color="#1B3051"/>
</linearGradient>
<linearGradient id="paint9_linear_444_1091" x1="1.12402" y1="115.054" x2="211.851" y2="115.054" gradientUnits="userSpaceOnUse">
<stop stop-color="#01457B"/>
<stop offset="0.5" stop-color="#0C3B64"/>
<stop offset="1" stop-color="#1B3051"/>
</linearGradient>
<linearGradient id="paint10_linear_444_1091" x1="1.12402" y1="115.054" x2="211.851" y2="115.054" gradientUnits="userSpaceOnUse">
<stop stop-color="#01457B"/>
<stop offset="0.5" stop-color="#0C3B64"/>
<stop offset="1" stop-color="#1B3051"/>
</linearGradient>
<linearGradient id="paint11_linear_444_1091" x1="1.12402" y1="115.054" x2="211.851" y2="115.054" gradientUnits="userSpaceOnUse">
<stop stop-color="#01457B"/>
<stop offset="0.5" stop-color="#0C3B64"/>
<stop offset="1" stop-color="#1B3051"/>
</linearGradient>
<linearGradient id="paint12_linear_444_1091" x1="1.12402" y1="115.054" x2="211.851" y2="115.054" gradientUnits="userSpaceOnUse">
<stop stop-color="#01457B"/>
<stop offset="0.5" stop-color="#0C3B64"/>
<stop offset="1" stop-color="#1B3051"/>
</linearGradient>
<linearGradient id="paint13_linear_444_1091" x1="1.12402" y1="115.054" x2="211.851" y2="115.054" gradientUnits="userSpaceOnUse">
<stop stop-color="#01457B"/>
<stop offset="0.5" stop-color="#0C3B64"/>
<stop offset="1" stop-color="#1B3051"/>
</linearGradient>
<linearGradient id="paint14_linear_444_1091" x1="1.12402" y1="115.054" x2="211.851" y2="115.054" gradientUnits="userSpaceOnUse">
<stop stop-color="#01457B"/>
<stop offset="0.5" stop-color="#0C3B64"/>
<stop offset="1" stop-color="#1B3051"/>
</linearGradient>
<linearGradient id="paint15_linear_444_1091" x1="1.12402" y1="115.054" x2="211.851" y2="115.054" gradientUnits="userSpaceOnUse">
<stop stop-color="#01457B"/>
<stop offset="0.5" stop-color="#0C3B64"/>
<stop offset="1" stop-color="#1B3051"/>
</linearGradient>
<linearGradient id="paint16_linear_444_1091" x1="1.12402" y1="115.054" x2="211.851" y2="115.054" gradientUnits="userSpaceOnUse">
<stop stop-color="#01457B"/>
<stop offset="0.5" stop-color="#0C3B64"/>
<stop offset="1" stop-color="#1B3051"/>
</linearGradient>
<linearGradient id="paint17_linear_444_1091" x1="1.12402" y1="115.054" x2="211.851" y2="115.054" gradientUnits="userSpaceOnUse">
<stop stop-color="#01457B"/>
<stop offset="0.5" stop-color="#0C3B64"/>
<stop offset="1" stop-color="#1B3051"/>
</linearGradient>
<linearGradient id="paint18_linear_444_1091" x1="1.12402" y1="115.054" x2="211.851" y2="115.054" gradientUnits="userSpaceOnUse">
<stop stop-color="#01457B"/>
<stop offset="0.5" stop-color="#0C3B64"/>
<stop offset="1" stop-color="#1B3051"/>
</linearGradient>
<linearGradient id="paint19_linear_444_1091" x1="1.12402" y1="115.054" x2="211.851" y2="115.054" gradientUnits="userSpaceOnUse">
<stop stop-color="#01457B"/>
<stop offset="0.5" stop-color="#0C3B64"/>
<stop offset="1" stop-color="#1B3051"/>
</linearGradient>
<linearGradient id="paint20_linear_444_1091" x1="1.12402" y1="115.054" x2="211.851" y2="115.054" gradientUnits="userSpaceOnUse">
<stop stop-color="#01457B"/>
<stop offset="0.5" stop-color="#0C3B64"/>
<stop offset="1" stop-color="#1B3051"/>
</linearGradient>
<linearGradient id="paint21_linear_444_1091" x1="1.12402" y1="115.054" x2="211.851" y2="115.054" gradientUnits="userSpaceOnUse">
<stop stop-color="#01457B"/>
<stop offset="0.5" stop-color="#0C3B64"/>
<stop offset="1" stop-color="#1B3051"/>
</linearGradient>
<linearGradient id="paint22_linear_444_1091" x1="1.12402" y1="115.054" x2="211.851" y2="115.054" gradientUnits="userSpaceOnUse">
<stop stop-color="#01457B"/>
<stop offset="0.5" stop-color="#0C3B64"/>
<stop offset="1" stop-color="#1B3051"/>
</linearGradient>
<linearGradient id="paint23_linear_444_1091" x1="1.12402" y1="115.054" x2="211.851" y2="115.054" gradientUnits="userSpaceOnUse">
<stop stop-color="#01457B"/>
<stop offset="0.5" stop-color="#0C3B64"/>
<stop offset="1" stop-color="#1B3051"/>
</linearGradient>
<linearGradient id="paint24_linear_444_1091" x1="1.12402" y1="115.054" x2="211.851" y2="115.054" gradientUnits="userSpaceOnUse">
<stop stop-color="#01457B"/>
<stop offset="0.5" stop-color="#0C3B64"/>
<stop offset="1" stop-color="#1B3051"/>
</linearGradient>
<linearGradient id="paint25_linear_444_1091" x1="1.12402" y1="115.054" x2="211.851" y2="115.054" gradientUnits="userSpaceOnUse">
<stop stop-color="#01457B"/>
<stop offset="0.5" stop-color="#0C3B64"/>
<stop offset="1" stop-color="#1B3051"/>
</linearGradient>
<linearGradient id="paint26_linear_444_1091" x1="1.12402" y1="115.054" x2="211.851" y2="115.054" gradientUnits="userSpaceOnUse">
<stop stop-color="#01457B"/>
<stop offset="0.5" stop-color="#0C3B64"/>
<stop offset="1" stop-color="#1B3051"/>
</linearGradient>
<linearGradient id="paint27_linear_444_1091" x1="1.12402" y1="115.054" x2="211.851" y2="115.054" gradientUnits="userSpaceOnUse">
<stop stop-color="#01457B"/>
<stop offset="0.5" stop-color="#0C3B64"/>
<stop offset="1" stop-color="#1B3051"/>
</linearGradient>
<linearGradient id="paint28_linear_444_1091" x1="1.12402" y1="115.054" x2="211.851" y2="115.054" gradientUnits="userSpaceOnUse">
<stop stop-color="#01457B"/>
<stop offset="0.5" stop-color="#0C3B64"/>
<stop offset="1" stop-color="#1B3051"/>
</linearGradient>
<linearGradient id="paint29_linear_444_1091" x1="1.12402" y1="115.054" x2="211.851" y2="115.054" gradientUnits="userSpaceOnUse">
<stop stop-color="#01457B"/>
<stop offset="0.5" stop-color="#0C3B64"/>
<stop offset="1" stop-color="#1B3051"/>
</linearGradient>
<linearGradient id="paint30_linear_444_1091" x1="1.12402" y1="115.054" x2="211.851" y2="115.054" gradientUnits="userSpaceOnUse">
<stop stop-color="#01457B"/>
<stop offset="0.5" stop-color="#0C3B64"/>
<stop offset="1" stop-color="#1B3051"/>
</linearGradient>
<linearGradient id="paint31_linear_444_1091" x1="1.12402" y1="115.054" x2="211.851" y2="115.054" gradientUnits="userSpaceOnUse">
<stop stop-color="#01457B"/>
<stop offset="0.5" stop-color="#0C3B64"/>
<stop offset="1" stop-color="#1B3051"/>
</linearGradient>
<linearGradient id="paint32_linear_444_1091" x1="1.12402" y1="115.054" x2="211.851" y2="115.054" gradientUnits="userSpaceOnUse">
<stop stop-color="#01457B"/>
<stop offset="0.5" stop-color="#0C3B64"/>
<stop offset="1" stop-color="#1B3051"/>
</linearGradient>
<linearGradient id="paint33_linear_444_1091" x1="1.12402" y1="115.054" x2="211.851" y2="115.054" gradientUnits="userSpaceOnUse">
<stop stop-color="#01457B"/>
<stop offset="0.5" stop-color="#0C3B64"/>
<stop offset="1" stop-color="#1B3051"/>
</linearGradient>
<linearGradient id="paint34_linear_444_1091" x1="1.12402" y1="115.054" x2="211.851" y2="115.054" gradientUnits="userSpaceOnUse">
<stop stop-color="#01457B"/>
<stop offset="0.5" stop-color="#0C3B64"/>
<stop offset="1" stop-color="#1B3051"/>
</linearGradient>
<linearGradient id="paint35_linear_444_1091" x1="1.12402" y1="115.054" x2="211.851" y2="115.054" gradientUnits="userSpaceOnUse">
<stop stop-color="#01457B"/>
<stop offset="0.5" stop-color="#0C3B64"/>
<stop offset="1" stop-color="#1B3051"/>
</linearGradient>
<linearGradient id="paint36_linear_444_1091" x1="1.12402" y1="115.054" x2="211.851" y2="115.054" gradientUnits="userSpaceOnUse">
<stop stop-color="#01457B"/>
<stop offset="0.5" stop-color="#0C3B64"/>
<stop offset="1" stop-color="#1B3051"/>
</linearGradient>
<linearGradient id="paint37_linear_444_1091" x1="1.12402" y1="115.054" x2="211.851" y2="115.054" gradientUnits="userSpaceOnUse">
<stop stop-color="#01457B"/>
<stop offset="0.5" stop-color="#0C3B64"/>
<stop offset="1" stop-color="#1B3051"/>
</linearGradient>
<linearGradient id="paint38_linear_444_1091" x1="1.12402" y1="115.054" x2="211.851" y2="115.054" gradientUnits="userSpaceOnUse">
<stop stop-color="#01457B"/>
<stop offset="0.5" stop-color="#0C3B64"/>
<stop offset="1" stop-color="#1B3051"/>
</linearGradient>
<linearGradient id="paint39_linear_444_1091" x1="1.12402" y1="115.054" x2="211.851" y2="115.054" gradientUnits="userSpaceOnUse">
<stop stop-color="#01457B"/>
<stop offset="0.5" stop-color="#0C3B64"/>
<stop offset="1" stop-color="#1B3051"/>
</linearGradient>
<linearGradient id="paint40_linear_444_1091" x1="1.12402" y1="115.054" x2="211.851" y2="115.054" gradientUnits="userSpaceOnUse">
<stop stop-color="#01457B"/>
<stop offset="0.5" stop-color="#0C3B64"/>
<stop offset="1" stop-color="#1B3051"/>
</linearGradient>
<linearGradient id="paint41_linear_444_1091" x1="1.12402" y1="115.054" x2="211.851" y2="115.054" gradientUnits="userSpaceOnUse">
<stop stop-color="#01457B"/>
<stop offset="0.5" stop-color="#0C3B64"/>
<stop offset="1" stop-color="#1B3051"/>
</linearGradient>
<linearGradient id="paint42_linear_444_1091" x1="1.12402" y1="115.054" x2="211.851" y2="115.054" gradientUnits="userSpaceOnUse">
<stop stop-color="#01457B"/>
<stop offset="0.5" stop-color="#0C3B64"/>
<stop offset="1" stop-color="#1B3051"/>
</linearGradient>
<linearGradient id="paint43_linear_444_1091" x1="1.12402" y1="115.054" x2="211.851" y2="115.054" gradientUnits="userSpaceOnUse">
<stop stop-color="#01457B"/>
<stop offset="0.5" stop-color="#0C3B64"/>
<stop offset="1" stop-color="#1B3051"/>
</linearGradient>
<linearGradient id="paint44_linear_444_1091" x1="1.12402" y1="115.054" x2="211.851" y2="115.054" gradientUnits="userSpaceOnUse">
<stop stop-color="#01457B"/>
<stop offset="0.5" stop-color="#0C3B64"/>
<stop offset="1" stop-color="#1B3051"/>
</linearGradient>
<linearGradient id="paint45_linear_444_1091" x1="1.12402" y1="115.054" x2="211.851" y2="115.054" gradientUnits="userSpaceOnUse">
<stop stop-color="#01457B"/>
<stop offset="0.5" stop-color="#0C3B64"/>
<stop offset="1" stop-color="#1B3051"/>
</linearGradient>
<linearGradient id="paint46_linear_444_1091" x1="1.12402" y1="115.054" x2="211.851" y2="115.054" gradientUnits="userSpaceOnUse">
<stop stop-color="#01457B"/>
<stop offset="0.5" stop-color="#0C3B64"/>
<stop offset="1" stop-color="#1B3051"/>
</linearGradient>
<linearGradient id="paint47_linear_444_1091" x1="1.12402" y1="115.054" x2="211.851" y2="115.054" gradientUnits="userSpaceOnUse">
<stop stop-color="#01457B"/>
<stop offset="0.5" stop-color="#0C3B64"/>
<stop offset="1" stop-color="#1B3051"/>
</linearGradient>
<linearGradient id="paint48_linear_444_1091" x1="1.12402" y1="115.054" x2="211.851" y2="115.054" gradientUnits="userSpaceOnUse">
<stop stop-color="#01457B"/>
<stop offset="0.5" stop-color="#0C3B64"/>
<stop offset="1" stop-color="#1B3051"/>
</linearGradient>
<linearGradient id="paint49_linear_444_1091" x1="1.12402" y1="115.054" x2="211.851" y2="115.054" gradientUnits="userSpaceOnUse">
<stop stop-color="#01457B"/>
<stop offset="0.5" stop-color="#0C3B64"/>
<stop offset="1" stop-color="#1B3051"/>
</linearGradient>
<linearGradient id="paint50_linear_444_1091" x1="1.12402" y1="115.054" x2="211.851" y2="115.054" gradientUnits="userSpaceOnUse">
<stop stop-color="#01457B"/>
<stop offset="0.5" stop-color="#0C3B64"/>
<stop offset="1" stop-color="#1B3051"/>
</linearGradient>
<linearGradient id="paint51_linear_444_1091" x1="1.12402" y1="115.054" x2="211.851" y2="115.054" gradientUnits="userSpaceOnUse">
<stop stop-color="#01457B"/>
<stop offset="0.5" stop-color="#0C3B64"/>
<stop offset="1" stop-color="#1B3051"/>
</linearGradient>
<linearGradient id="paint52_linear_444_1091" x1="1.12402" y1="115.054" x2="211.851" y2="115.054" gradientUnits="userSpaceOnUse">
<stop stop-color="#01457B"/>
<stop offset="0.5" stop-color="#0C3B64"/>
<stop offset="1" stop-color="#1B3051"/>
</linearGradient>
<linearGradient id="paint53_linear_444_1091" x1="1.12402" y1="115.054" x2="211.851" y2="115.054" gradientUnits="userSpaceOnUse">
<stop stop-color="#01457B"/>
<stop offset="0.5" stop-color="#0C3B64"/>
<stop offset="1" stop-color="#1B3051"/>
</linearGradient>
<linearGradient id="paint54_linear_444_1091" x1="1.12402" y1="115.054" x2="211.851" y2="115.054" gradientUnits="userSpaceOnUse">
<stop stop-color="#01457B"/>
<stop offset="0.5" stop-color="#0C3B64"/>
<stop offset="1" stop-color="#1B3051"/>
</linearGradient>
<linearGradient id="paint55_linear_444_1091" x1="1.12402" y1="115.054" x2="211.851" y2="115.054" gradientUnits="userSpaceOnUse">
<stop stop-color="#01457B"/>
<stop offset="0.5" stop-color="#0C3B64"/>
<stop offset="1" stop-color="#1B3051"/>
</linearGradient>
<linearGradient id="paint56_linear_444_1091" x1="1.12402" y1="115.054" x2="211.851" y2="115.054" gradientUnits="userSpaceOnUse">
<stop stop-color="#01457B"/>
<stop offset="0.5" stop-color="#0C3B64"/>
<stop offset="1" stop-color="#1B3051"/>
</linearGradient>
</defs>
</svg>
